<?xml version="1.0" encoding="utf-8"?>
<!-- Generator: Adobe Illustrator 23.0.2, SVG Export Plug-In . SVG Version: 6.00 Build 0)  -->
<svg version="1.1" id="Layer_1" xmlns="http://www.w3.org/2000/svg" xmlns:xlink="http://www.w3.org/1999/xlink" x="0px" y="0px"
	 viewBox="0 0 300 300" style="enable-background:new 0 0 300 300;" xml:space="preserve">
<style type="text/css">
	.st0{fill:#FFFFFF;}
</style>
<g id="dunav_stup">
	<path d="M162.68,263.8c-0.87-3.57,1.8-5.23,4.61-7.63c-0.37-2.36-0.74-5.06-1.23-7.73c-0.31-1.69-1.21-3.37-1.12-5.01
		c1.49-26.18-3.54-52.17-2.27-78.34c0.4-8.24-3.22-15.99-2.39-24.42c0.82-8.36,1.25-17.05-0.2-25.23
		c-0.98-5.52-1.66-11.03-1.87-16.92c-3.58,0-6.79,0-11.01,0c0,2.91,0.18,6.09-0.03,9.24c-0.64,9.24-1.72,18.46-2.09,27.71
		c-0.37,9.16,1.48,18.69-0.46,27.43c-2.72,12.29-1.29,24.42-1.74,36.6c-0.3,8.2-3.26,16-2.47,24.42c0.78,8.37,0.3,16.87,0.08,25.3
		c-0.05,1.93-1.3,3.82-2.12,6.09c0.68,1.17,1.54,2.63,2.78,4.76c-3.13,2.12-4.28,6.72-9.39,5.95c1.39-1.92,2.78-3.85,4.64-6.44
		c-4.94-0.18-9.42-1.13-13.48,2.02c-3.49-2.8-7.04-3.01-11.45-0.71c-0.57,0.3-1.2,0.48-1.8,0.71c-1.43-1.14-2.86-2.29-5.28-4.22
		c11.06,0,21.17,0,32.06,0c-2.12-21.83,3.09-42.56,2.12-63.65c-0.39-8.47,1.58-17.03,1.94-25.56c0.37-8.81-1.56-18.05,0.45-26.39
		c3.49-14.48,0.32-28.76,2.25-43.06c-7.42,0-13.83,0-21.69,0c2.88,1.35,4.35,2.03,6.27,2.93c-1.72,0.6-3,1.04-4.85,1.69
		c1.62,1.88,3.1,3.59,5.25,6.08c-1.89,1.17-3.44,2.12-5.55,3.42c0.65,1.29,1.39,2.77,2.22,4.44c-0.61,0.25-1.52,0.62-2.43,0.99
		c-3.72-9.06-4.09-12.8-1.65-19.43c-4.59-1.23-9.19-0.48-13.7-0.6c-4.74-0.13-9.49-0.03-15.68-0.03c1.33,1.64,1.97,2.44,2.74,3.39
		c-0.53,0.53-1.05,1.05-1.78,1.78c5.32,5.49-2.01,9.62-0.71,14.79c-1.68-0.11-2.39-0.16-4.12-0.28c0.62-1.97,1.16-3.7,1.8-5.73
		c-0.74-0.25-2-0.67-3.26-1.1c-0.18-8.81,0.4-11.07,4.17-16.52c18.36-3.14,36.5-6.25,54.53-9.33c0-5.73,0-10.4,0-15.85
		c-3.43,0-7.55,1.25-9.64-0.28c-3.53-2.57-5.36,1.44-8.42,0.64c-5.3-1.38-10.95-1.45-17.31-2.17c0.96,1.28,1.47,1.97,2.4,3.22
		c-1.37,0.6-2.68,1.16-4.44,1.92c1.63,0.79,3,1.46,4.44,2.16c0,1.45,0,2.9,0,4.61c-1.33,0.64-2.83,1.36-4.84,2.32
		c0.86,1.55,1.67,3,2.59,4.64c-0.86,0.28-1.83,0.6-3.87,1.27c0.84-4.94-4.52-8.42-2.11-12.94c2.03-3.8-4.56-9.11,0.52-10.61
		c14.6-3.1,27.17-5.77,40.31-8.56c5.74-8.87,1.3-19.74,3.27-30.01c3.36,0,6.56,0,9.73,0c2.09,9.8,4.12,19.56,2.88,29.42
		c12.56,3.33,24.8,6.58,36.54,9.7c1.23,2.48,2.13,4.27,3.14,6.3c-1.03,0.36-2.31,0.81-4.8,1.68c2.08,0.86,3.31,1.37,4.85,2.01
		c0,1.64,0,3.37,0,5.05c-1.39,0.56-2.65,1.07-4.54,1.83c0.69,1.54,1.36,3.02,2.24,4.98c-0.88,0.21-2.03,0.48-4.51,1.07
		c2.24-5.59-5.8-9.79,1.34-15.65c-3.11-1.01-5.34-2.29-7.61-2.36c-8.45-0.25-16.91-0.1-25.99-0.1c-1.35,6.56-0.48,12.44,4.17,16.81
		c14.64,2.8,28.69,5.48,43.86,8.38c1,1.56,2.68,4.21,4.38,6.88c-0.41,0.43-0.9,0.95-1.39,1.48c0.61,2.44,1.22,4.92,1.88,7.54
		c-1.79,0.64-3.07,1.09-4.39,1.56c0.69,1.42,1.37,2.84,2.18,4.51c-1.02,0.64-1.83,1.15-3.48,2.19c-0.54-1.6-0.85-2.75-1.31-3.83
		c-0.66-1.57-1.67-3.02-2.09-4.64c-0.36-1.38-0.49-3.07,0-4.34c0.53-1.37,3.1-2.18,0.53-4.07c-0.22-0.16,0.78-1.96,1.36-3.38
		c-9.23,0-18.33,0-28.49,0c0.69,1.09,1.23,1.95,1.93,3.05c-0.5,0.56-1.19,1.33-1.87,2.1c5.93,5.2-2.15,9.4-0.22,14.56
		c-1.88-0.29-2.89-0.45-4.01-0.63c0.82-1.69,1.52-3.11,2.48-5.1c-1.54-0.57-2.74-1.02-4.88-1.81c0.31-2.12,0.68-4.64,1.18-8.01
		c0.23,0.25-0.48-0.52-1.23-1.36c1.47-0.71,2.87-1.4,5.65-2.75c-5.68,0-9.87,0-14.5,0c0,7.92-1.34,15.89,0.28,23.2
		c3.21,14.45-0.08,29.08,2.25,43.23c2.63,15.96-0.17,32.03,2.29,47.63c2.17,13.8,1,27.41,1.87,41.08c0.1,1.6,1.13,3.14,1.71,4.66
		C168.48,260.08,165.58,261.94,162.68,263.8z M155.72,30.98c-0.65,0.25-1.31,0.5-1.96,0.75c-0.22-1.52-0.44-3.04-0.66-4.57
		c-2.02,9.33-5.48,17.69-3.03,26.65c1.88,0,3.59,0,5.65,0C155.72,46.07,155.72,38.53,155.72,30.98z M149.43,69.67
		c0,3.53,0.29,6.13-0.09,8.61c-0.32,2.08-1.44,4.03-2.36,6.43c4.27,0,7.44,0,10.9,0c0-5.12,0-10.02,0-15.04
		C155.05,69.67,152.6,69.67,149.43,69.67z M145.55,91.49c-0.35-0.8-0.7-1.61-1.04-2.41c-4.98,0.83-9.96,1.6-14.93,2.5
		c-5.1,0.92-10.17,1.96-15.25,2.95c0.06,0.37,0.12,0.73,0.18,1.1c9.26,0,18.52,0,27.75,0C143.45,94.13,144.5,92.81,145.55,91.49z
		 M162.88,96.11c9.3-0.49,17.76,0.44,26.1-1.7c-8.58-1.73-17.17-3.46-26.1-5.27C162.88,91.77,162.88,93.49,162.88,96.11z
		 M144.98,59.08c-7.73,1.6-14.91,3.08-22.09,4.57c0.02,0.29,0.05,0.58,0.07,0.87c7.33,0,14.65,0,22.02,0
		C144.98,62.58,144.98,61.14,144.98,59.08z M147.59,89.53c0,2.66,0,4.37,0,5.89c3.83,0,7.27,0,10.3,0c0-2.29,0-4,0-5.89
		C154.35,89.53,151.18,89.53,147.59,89.53z M179.92,64.72c0.03-0.37,0.06-0.74,0.1-1.11c-6.41-1.47-12.82-2.95-19.32-4.44
		c0,1.8,0,3.51,0,5.55C167.24,64.72,173.58,64.72,179.92,64.72z M155.19,58.8c-2.01,0-3.7,0-5.86,0c0.18,2.37,0.34,4.34,0.46,5.93
		c3.17,0,5.6,0,8.3,0C156.94,62.37,155.97,60.38,155.19,58.8z"/>
	<path d="M185.9,267.96c1.91-3.79,2.81-5.59,4.06-8.08c2.73,0,6.17,0,12.08,0c-4.34,1.52-6.62,2.07-8.65,3.1
		C191.32,264.03,189.49,265.55,185.9,267.96z"/>
	<path d="M140.6,270.42c1.94-3.55,3.98-6.96,8.83-6.62C147.49,267.34,145.45,270.75,140.6,270.42z"/>
	<path d="M175.93,263.93c0-1.18,0-2.23,0-4.02c2.06-0.17,4.17-0.35,8.8-0.73C180.27,261.59,178.13,262.75,175.93,263.93z"/>
	<path d="M159.37,269.31c-1.56,1.01-3.13,2.02-5.2,3.36c-0.1-1.48-0.18-2.66-0.28-4.21c1.77-0.13,3.07-0.22,4.37-0.32
		C158.63,268.53,159,268.92,159.37,269.31z"/>
	<path d="M104.16,269.31c-1.56,1.01-3.13,2.02-5.2,3.36c-0.1-1.48-0.18-2.66-0.28-4.21c1.77-0.13,3.07-0.22,4.37-0.32
		C103.42,268.53,103.79,268.92,104.16,269.31z"/>
	<path d="M149.36,263.79c0.1-1.3,0.19-2.6,0.32-4.37c1.55,0.1,2.74,0.18,4.21,0.28c-1.34,2.07-2.35,3.63-3.36,5.2
		C150.14,264.53,149.75,264.16,149.36,263.79z"/>
	<path d="M184.77,268.21c0.74-0.74,1.47-1.47,2.21-2.21C186.24,266.74,185.5,267.48,184.77,268.21z"/>
	<path d="M171.52,268.21c0.74-0.74,1.47-1.47,2.21-2.21C172.99,266.74,172.25,267.48,171.52,268.21z"/>
	<path d="M160.48,266.01c-0.74,0.74-1.47,1.47-2.21,2.21C159,267.48,159.74,266.74,160.48,266.01z"/>
	<path d="M129.56,268.21c0.74-0.74,1.47-1.47,2.21-2.21C131.03,266.74,130.3,267.48,129.56,268.21z"/>
	<path d="M116.31,268.21c0.74-0.74,1.47-1.47,2.21-2.21C117.78,266.74,117.05,267.48,116.31,268.21z"/>
	<path d="M103.06,268.21c0.74-0.74,1.47-1.47,2.21-2.21C104.53,266.74,103.8,267.48,103.06,268.21z"/>
	<ellipse cx="143.91" cy="258.28" rx="1.56" ry="0.52"/>
	<path d="M116.31,268.21c-0.74,0.74-1.47,1.47-2.21,2.21C114.84,269.69,115.58,268.95,116.31,268.21z"/>
	<path d="M129.56,268.21c-0.74,0.74-1.47,1.47-2.21,2.21C128.09,269.69,128.82,268.95,129.56,268.21z"/>
	<path d="M169.31,270.42c0.74-0.74,1.47-1.47,2.21-2.21C170.78,268.95,170.04,269.69,169.31,270.42z"/>
	<path d="M173.72,266.01c0.74-0.74,1.47-1.47,2.21-2.21C175.2,264.53,174.46,265.27,173.72,266.01z"/>
	<path d="M160.48,266.01c0.74-0.74,1.47-1.47,2.21-2.21C161.95,264.53,161.21,265.27,160.48,266.01z"/>
	<path d="M182.56,270.42c0.74-0.74,1.47-1.47,2.21-2.21C184.03,268.95,183.29,269.69,182.56,270.42z"/>
	<path d="M120.73,263.8c-0.74,0.74-1.47,1.47-2.21,2.21C119.26,265.27,119.99,264.53,120.73,263.8z"/>
	<path d="M107.48,263.8c-0.74,0.74-1.47,1.47-2.21,2.21C106.01,265.27,106.74,264.53,107.48,263.8z"/>
	<path d="M122.94,261.59c-0.74,0.74-1.47,1.47-2.21,2.21C121.46,263.06,122.2,262.33,122.94,261.59z"/>
	<path d="M109.69,261.59c-0.74,0.74-1.47,1.47-2.21,2.21C108.21,263.06,108.95,262.33,109.69,261.59z"/>
	<path d="M114.33,270.62c-0.51,0.6-1.03,1.2-1.54,1.8c-0.23-0.23-0.46-0.46-0.7-0.7c0.6-0.51,1.2-1.03,1.8-1.54
		C114.05,270.34,114.19,270.48,114.33,270.62z"/>
	<path d="M127.58,270.62c-0.51,0.6-1.03,1.2-1.54,1.8c-0.23-0.23-0.46-0.46-0.7-0.7c0.6-0.51,1.2-1.03,1.8-1.54
		C127.3,270.34,127.44,270.48,127.58,270.62z"/>
	<path d="M140.83,270.62c-0.51,0.6-1.03,1.2-1.54,1.8c-0.23-0.23-0.46-0.46-0.7-0.7c0.6-0.51,1.2-1.03,1.8-1.54
		C140.55,270.34,140.69,270.48,140.83,270.62z"/>
	<path d="M169.54,270.62c-0.51,0.6-1.03,1.2-1.54,1.8c-0.23-0.23-0.46-0.46-0.7-0.7c0.6-0.51,1.2-1.03,1.8-1.54
		C169.25,270.34,169.4,270.48,169.54,270.62z"/>
	<path d="M182.79,270.62c-0.51,0.6-1.03,1.2-1.54,1.8c-0.23-0.23-0.46-0.46-0.7-0.7c0.6-0.51,1.2-1.03,1.8-1.54
		C182.5,270.34,182.65,270.48,182.79,270.62z"/>
	<path class="st0" d="M155.72,30.98c0,7.55,0,15.09,0,22.83c-2.06,0-3.77,0-5.65,0c-2.46-8.95,1-17.31,3.03-26.65
		c0.22,1.52,0.44,3.04,0.66,4.57C154.41,31.48,155.06,31.23,155.72,30.98z"/>
	<path class="st0" d="M149.43,69.67c3.17,0,5.61,0,8.45,0c0,5.03,0,9.92,0,15.04c-3.45,0-6.63,0-10.9,0
		c0.92-2.4,2.04-4.36,2.36-6.43C149.73,75.79,149.43,73.2,149.43,69.67z"/>
	<path class="st0" d="M145.55,91.49c-1.05,1.32-2.1,2.65-3.29,4.14c-9.23,0-18.49,0-27.75,0c-0.06-0.37-0.12-0.73-0.18-1.1
		c5.08-0.99,10.16-2.03,15.25-2.95c4.96-0.9,9.95-1.67,14.93-2.5C144.85,89.88,145.2,90.68,145.55,91.49z"/>
	<path class="st0" d="M162.88,96.11c0-2.62,0-4.34,0-6.96c8.93,1.8,17.52,3.53,26.1,5.27C180.64,96.55,172.18,95.62,162.88,96.11z"
		/>
	<path class="st0" d="M144.98,59.08c0,2.06,0,3.5,0,5.44c-7.36,0-14.69,0-22.02,0c-0.02-0.29-0.05-0.58-0.07-0.87
		C130.08,62.16,137.25,60.68,144.98,59.08z"/>
	<path class="st0" d="M147.59,89.53c3.58,0,6.76,0,10.3,0c0,1.89,0,3.59,0,5.89c-3.04,0-6.48,0-10.3,0
		C147.59,93.9,147.59,92.2,147.59,89.53z"/>
	<path class="st0" d="M179.92,64.72c-6.34,0-12.67,0-19.22,0c0-2.05,0-3.76,0-5.55c6.5,1.49,12.91,2.97,19.32,4.44
		C179.98,63.98,179.95,64.35,179.92,64.72z"/>
	<path class="st0" d="M155.19,58.8c0.77,1.58,1.75,3.57,2.9,5.93c-2.7,0-5.13,0-8.3,0c-0.12-1.59-0.28-3.56-0.46-5.93
		C151.49,58.8,153.18,58.8,155.19,58.8z"/>
</g>
</svg>
