<?xml version="1.0" encoding="utf-8"?>
<!-- Generator: Adobe Illustrator 23.0.2, SVG Export Plug-In . SVG Version: 6.00 Build 0)  -->
<svg version="1.1" id="Layer_1" xmlns="http://www.w3.org/2000/svg" xmlns:xlink="http://www.w3.org/1999/xlink" x="0px" y="0px"
	 viewBox="0 0 300 300" style="enable-background:new 0 0 300 300;" xml:space="preserve">
<g>
	<path d="M147.9,263.51c-2.35,0.67-2.55,0.48-2.54-1.92c0.03-5.63,0.01-11.27,0.01-17.1c-1.94,0-3.81,0-5.67,0
		c-2.19,0-2.27-0.09-2.22-2.39c-2.08-0.24-4.19-0.42-6.28-0.74c-1.5-0.23-2.99-0.63-4.46-1.04c-0.37-0.1-0.65-0.53-0.97-0.81
		c0.33-0.33,0.61-0.87,0.99-0.96c2.01-0.48,4.05-0.89,6.09-1.23c1.46-0.25,2.95-0.38,4.43-0.52c0.86-0.08,1.2-0.46,1.15-1.34
		c-0.06-0.99-0.09-1.99,0.01-2.97c0.12-1.19-0.44-1.53-1.51-1.64c-2.71-0.27-5.42-0.59-8.11-0.96c-0.77-0.11-1.53-0.4-2.26-0.71
		c-0.32-0.14-0.73-0.51-0.74-0.79c-0.01-0.28,0.38-0.72,0.69-0.83c1.17-0.39,2.35-0.79,3.56-0.98c2.35-0.37,4.72-0.64,7.09-0.86
		c0.93-0.08,1.33-0.38,1.28-1.35c-0.06-1.14-0.05-2.28,0-3.42c0.03-0.89-0.32-1.18-1.2-1.26c-2.52-0.23-5.03-0.5-7.53-0.9
		c-1.37-0.22-2.69-0.74-4.04-1.12c-0.03-0.24-0.05-0.47-0.08-0.71c0.72-0.37,1.41-0.95,2.18-1.09c2.82-0.5,5.67-0.92,8.52-1.25
		c2.13-0.25,2.14-0.16,2.15-2.24c0.01-3.64,0.01-3.6-3.59-3.99c-2.21-0.24-4.41-0.63-6.62-0.96c-0.34-0.05-0.71-0.1-1-0.28
		c-0.52-0.32-0.98-0.72-1.47-1.09c0.48-0.39,0.91-1.02,1.45-1.12c3.31-0.6,6.64-1.08,9.97-1.6c0.34-0.05,0.68-0.09,1.24-0.16
		c0-1.69,0.05-3.36-0.05-5.02c-0.02-0.27-0.71-0.66-1.14-0.72c-2.84-0.44-5.69-0.79-8.53-1.21c-0.58-0.08-1.18-0.24-1.71-0.49
		c-0.45-0.21-0.81-0.6-1.2-0.91c0.39-0.34,0.73-0.87,1.18-0.98c1.87-0.48,3.75-0.89,5.65-1.22c1.56-0.27,3.14-0.43,4.72-0.57
		c0.8-0.07,1.07-0.38,1.12-1.19c0.23-4.37,0.24-4.32-4-4.82c-2.26-0.27-4.5-0.71-6.73-1.16c-0.72-0.15-1.39-0.58-2.08-0.89
		c0-0.17-0.01-0.34-0.01-0.51c0.72-0.34,1.4-0.86,2.16-1c3.12-0.56,6.25-1.06,9.39-1.46c0.94-0.12,1.25-0.4,1.28-1.35
		c0.13-4.5,0.15-4.4-4.38-4.93c-2.54-0.3-5.02-0.99-7.53-1.55c-0.3-0.07-0.56-0.35-1.26-0.8c1.1-0.51,1.87-0.99,2.7-1.22
		c1.48-0.39,2.99-0.75,4.51-0.89c1.24-0.11,1.4-0.69,1.4-1.73c-0.02-9.32-0.01-18.65-0.01-27.97c0-3.11-0.06-6.22,0.03-9.33
		c0.04-1.18-0.44-1.52-1.48-1.7c-1.84-0.31-3.68-0.69-5.49-1.15c-0.45-0.11-0.81-0.63-1.21-0.96c0.4-0.31,0.77-0.81,1.22-0.9
		c3.16-0.6,6.32-1.22,9.5-1.61c1.55-0.19,2.05-0.69,2.01-2.28c-0.09-3.64-0.01-3.53-3.6-3.9c-2.6-0.27-5.18-0.83-7.74-1.35
		c-0.5-0.1-0.91-0.65-1.36-1c0.47-0.38,0.9-0.99,1.42-1.09c3.26-0.6,6.54-1.17,9.83-1.56c1.21-0.14,1.5-0.59,1.44-1.66
		c-0.06-1.04-0.05-2.08,0-3.12c0.04-0.88-0.3-1.15-1.2-1.25c-3-0.32-6-0.72-8.97-1.2c-0.92-0.15-1.77-0.69-2.65-1.05
		c-0.01-0.2-0.02-0.4-0.03-0.6c0.76-0.34,1.49-0.85,2.29-0.99c2.88-0.5,5.77-0.92,8.67-1.26c1.34-0.15,1.97-0.5,1.92-2.06
		c-0.13-3.72-0.04-3.69-3.76-4.17c-2.31-0.29-4.61-0.64-6.89-1.07c-0.77-0.15-1.46-0.65-2.19-0.99c-0.01-0.19-0.02-0.38-0.03-0.58
		c0.9-0.39,1.77-0.97,2.72-1.13c2.93-0.5,5.88-0.89,8.84-1.2c1.05-0.11,1.34-0.53,1.29-1.49c-0.08-1.38,0.42-3.19-0.27-4.03
		c-0.64-0.78-2.53-0.56-3.87-0.76c-2.01-0.3-4.03-0.51-6.02-0.91c-0.92-0.18-1.78-0.7-2.66-1.07c-0.01-0.18-0.02-0.35-0.02-0.53
		c0.71-0.36,1.38-0.92,2.12-1.05c2.92-0.51,5.87-0.94,8.82-1.27c1.33-0.15,2-0.45,1.95-2.03c-0.12-3.79-0.03-3.75-3.73-4.21
		c-2.31-0.28-4.6-0.7-6.89-1.09c-0.48-0.08-0.97-0.24-1.4-0.47c-0.96-0.5-1-1.19,0.03-1.52c1.82-0.59,3.71-1.01,5.6-1.36
		c1.7-0.31,3.44-0.47,5.17-0.58c0.92-0.06,1.15-0.43,1.19-1.28c0.21-4.54,0.22-4.47-4.27-5c-2.4-0.28-4.78-0.8-7.15-1.29
		c-0.47-0.1-0.86-0.58-1.28-0.88c0.41-0.37,0.78-0.99,1.25-1.08c3.01-0.6,6.04-1.09,9.06-1.6c0.53-0.09,1.07-0.15,1.51-0.21
		c0.06-0.76-0.12-1.63,0.23-2.06c0.33-0.41,1.22-0.48,1.88-0.52c1.33-0.09,2.68-0.14,4.02-0.05c1.34,0.08,1.87-0.33,1.74-1.75
		c-0.14-1.52-0.03-3.07-0.01-4.61c0.01-0.41,0.11-0.81,0.17-1.22c0.17-0.02,0.34-0.03,0.51-0.05c0.18,1.01,0.37,2.02,0.56,3.06
		c0.02-0.01-0.21,0.05-0.46,0.11c0.68,0.68-0.81,2.3,1.19,2.46c-0.41,0.07-0.71,0.13-1.34,0.24c0.55,0.18,0.8,0.27,1.05,0.35
		c-0.19,0.09-0.38,0.18-0.93,0.44c2.77,0.28,5.15,0.52,7.52,0.77c0.02-0.12,0.04-0.24,0.06-0.36c-0.21-0.06-0.41-0.12-0.67-0.2
		c0.21-0.11,0.38-0.2,0.69-0.36c-0.36-0.1-0.62-0.17-0.98-0.28c0.41-0.07,0.72-0.13,1.25-0.23c-0.47-0.17-0.73-0.27-1.07-0.4
		c0.38-0.06,0.67-0.11,1.21-0.21c-0.41-0.16-0.6-0.24-0.67-0.27c0.16-0.32,0.48-0.66,0.44-0.96c-0.12-0.98-0.45-1.95-0.54-2.93
		c-0.04-0.46,0.36-0.94,0.46-1.43c0.21-1.01,0.11-1.94-0.83-2.54c0.18-0.02,0.42-0.05,0.95-0.12c-0.39-0.23-0.56-0.33-0.75-0.44
		c0.2-0.08,0.42-0.17,0.76-0.3c-0.35-0.11-0.58-0.19-0.81-0.26c0.19-0.16,0.56-0.34,0.54-0.48c-0.15-1.33,0.46-2.78-0.31-4.12
		c0.01,0,0.26-0.04,0.65-0.1c-0.31-0.39-0.58-0.73-0.83-1.06c0.15-0.04,0.41-0.1,0.54-0.14c-0.07-0.24-0.13-0.46-0.27-0.97
		c-1.1-0.17-2.55-0.39-4-0.61c0-0.03,0-0.07-0.01-0.1c1.61,0,3.22,0,5.05,0c0,6.32,0,12.63,0,19.04c2.33,0,4.46,0,6.58,0
		c0,0.07,0,0.15,0,0.22c-3.89,0-7.78-0.02-11.67,0.03c-0.46,0.01-0.91,0.45-1.36,0.69c0.44,0.2,0.89,0.57,1.33,0.57
		c3.77,0.05,7.54,0.05,11.31,0.01c0.58-0.01,1.16-0.33,1.84-0.54c-0.13,0.47-0.3,1.05-0.49,1.73c4.08,0.58,8.4,0.34,12.22,2.31
		c0.03,0.18,0.07,0.37,0.1,0.55c-0.65,0.34-1.27,0.86-1.95,0.97c-3.17,0.55-6.34,1.05-9.54,1.41c-1.04,0.12-1.37,0.45-1.34,1.44
		c0.05,1.44,0.01,2.87,0.01,4.45c4.26,0.67,8.79,0.32,12.75,2.44c0.02,0.24,0.05,0.48,0.07,0.71c-1.01,0.38-2,0.92-3.05,1.09
		c-2.59,0.43-5.21,0.69-7.81,1.02c-0.58,0.07-1.16,0.18-2.02,0.31c0,1.65-0.08,3.28,0.06,4.89c0.03,0.33,0.86,0.79,1.36,0.86
		c2.7,0.38,5.41,0.65,8.11,0.99c0.63,0.08,1.28,0.24,1.85,0.51c0.49,0.23,0.88,0.68,1.31,1.03c-0.44,0.37-0.82,0.98-1.31,1.08
		c-2.47,0.49-4.96,0.99-7.46,1.23c-3.87,0.38-3.88,0.29-3.92,4.2c-0.01,0.63,0,1.27,0,1.92c4.32,0.88,8.82,0.29,12.74,2.41
		c0.04,0.19,0.09,0.37,0.13,0.56c-0.73,0.38-1.43,0.97-2.2,1.1c-2.88,0.49-5.77,0.91-8.67,1.18c-1.46,0.13-2.14,0.56-1.99,2.12
		c0.12,1.22,0.02,2.46,0.02,3.78c2.54,0.3,4.99,0.58,7.44,0.9c1.13,0.15,2.27,0.29,3.35,0.63c0.68,0.21,1.26,0.78,1.88,1.19
		c-0.58,0.41-1.1,1-1.74,1.21c-1.27,0.4-2.59,0.67-3.91,0.85c-1.86,0.26-3.74,0.46-5.62,0.55c-1,0.05-1.44,0.32-1.39,1.37
		c0.06,1.47,0.02,2.95,0.02,4.49c4.3,0.69,8.72,0.51,12.71,2.35c0.04,0.2,0.08,0.4,0.12,0.6c-0.79,0.38-1.53,0.97-2.36,1.11
		c-2.97,0.53-5.96,0.98-8.96,1.31c-1.22,0.13-1.62,0.58-1.54,1.76c0.08,1.28,0.02,2.56,0.02,3.97c2.59,0.32,5.14,0.56,7.67,0.96
		c1.41,0.22,2.78,0.67,4.15,1.07c0.32,0.1,0.57,0.44,0.85,0.67c-0.25,0.29-0.45,0.74-0.76,0.83c-1.7,0.48-3.42,0.89-5.14,1.3
		c-0.67,0.16-1.36,0.22-2.19,0.35c0,13.42,0,26.79,0,40.22c2.78,0.57,5.69,0.56,8.54,2.38c-1.01,0.51-1.68,1.06-2.43,1.19
		c-3.12,0.54-6.25,1.02-9.4,1.39c-0.95,0.11-1.32,0.37-1.29,1.32c0.05,1.48,0.01,2.96,0.01,4.49c4.31,0.75,8.8,0.4,12.74,2.5
		c0.02,0.22,0.04,0.44,0.07,0.65c-1.07,0.4-2.1,0.96-3.2,1.15c-2.78,0.48-5.59,0.83-8.39,1.15c-0.86,0.1-1.24,0.37-1.22,1.26
		c0.05,1.43,0.01,2.86,0.01,4.32c3.14,0.44,6.22,0.84,9.29,1.33c0.92,0.15,1.82,0.47,2.68,0.83c0.98,0.4,0.91,1.08,0.03,1.44
		c-1.14,0.46-2.35,0.81-3.56,1c-2.4,0.38-4.81,0.67-7.23,0.89c-0.88,0.08-1.25,0.35-1.23,1.23c0.03,1.52,0.01,3.05,0.01,4.59
		c2.88,0.35,5.68,0.65,8.47,1.05c1.07,0.15,2.13,0.47,3.15,0.83c0.4,0.14,0.69,0.6,1.04,0.92c-0.39,0.35-0.73,0.91-1.18,1.02
		c-1.92,0.44-3.87,0.8-5.83,1.1c-1.47,0.23-2.95,0.37-4.44,0.46c-0.85,0.06-1.25,0.35-1.22,1.25c0.05,1.48,0.01,2.96,0.01,4.58
		c1.89,0.17,3.72,0.26,5.52,0.52c1.95,0.28,3.9,0.68,5.82,1.14c0.49,0.12,0.88,0.66,1.32,1.01c-0.44,0.37-0.82,0.95-1.32,1.08
		c-1.58,0.41-3.19,0.71-4.8,0.95c-1.76,0.26-3.54,0.46-5.32,0.58c-0.86,0.06-1.26,0.32-1.23,1.23c0.04,1.53,0.01,3.05,0.01,4.62
		c4.27,0.84,8.75,0.35,12.7,2.34c0.04,0.19,0.08,0.37,0.12,0.56c-0.68,0.38-1.32,0.98-2.04,1.11c-2.87,0.5-5.77,0.9-8.66,1.24
		c-2.09,0.25-2.11,0.18-2.15,2.26c-0.02,1.18,0,2.36,0,3.58c4.31,0.78,8.76,0.45,12.87,2.44c-0.86,1.6-2.25,1.76-3.52,1.95
		c-2.29,0.35-4.61,0.55-6.91,0.82c-0.44,0.05-0.88,0.15-1.31,0.22c-0.31,2.39-0.31,2.39-2.82,2.4c-1.14,0-2.29,0.08-3.42-0.02
		c-1.33-0.13-1.83,0.32-1.82,1.7c0.03,5.26-0.05,10.51-0.08,15.77c0,0.54,0,1.07,0,2.02c-0.64-0.81-1.03-1.3-1.41-1.78
		c0.18-0.09,0.36-0.17,0.75-0.36c-0.45-0.12-0.68-0.18-0.85-0.23c0.25-0.12,0.79-0.27,0.78-0.4c-0.03-0.49-0.22-0.97-0.3-1.25
		c0.51-1.46,0.75-2.81-0.21-4.32c0.18-0.01,0.36-0.03,0.54-0.04c-0.19-0.08-0.38-0.15-0.68-0.27c0.3-0.11,0.53-0.19,0.66-0.23
		c-0.69-0.9,0.95-2.55-0.73-3.01c0.18-0.25,0.41-0.57,0.69-0.97c-0.21-0.07-0.42-0.14-0.74-0.24c0.33-0.11,0.57-0.19,0.88-0.29
		c-0.27-0.12-0.49-0.21-0.4-0.18c0-1.35,0-2.58,0-3.83c-0.19-0.05-0.42-0.12-0.7-0.2c0.33-0.07,0.6-0.13,1.16-0.24
		c-0.48-0.16-0.69-0.23-0.92-0.31c0.18-0.12,0.34-0.22,0.77-0.5c-2.62-0.27-4.96-0.52-7.3-0.77c-0.03,0.11-0.05,0.23-0.08,0.34
		c0.27,0.11,0.54,0.21,0.81,0.32c-0.26,0.07-0.56,0.14-1.21,0.31c0.57,0.14,0.78,0.19,1.02,0.25c-0.25,0.08-0.48,0.15-0.96,0.29
		c0.42,0.18,0.63,0.27,0.83,0.36c-0.23,0.04-0.47,0.09-1.06,0.19c0.55,0.19,0.76,0.26,1.07,0.36c-0.32,0.1-0.57,0.18-0.63,0.2
		c0.01,0.23,0.04,0.41,0.03,0.58c-0.03,0.9-0.1,1.8-0.07,2.7c0,0.15,0.44,0.28,0.69,0.42c-0.18,0.05-0.4,0.12-0.83,0.25
		c0.43,0.14,0.68,0.22,0.92,0.31c-1.35,0.39-0.69,1.53-0.68,2.26c0.02,0.94-0.99,2,0.2,2.85c-0.98,0.32,0.28,1.05-0.33,1.68
		c-0.4,0.42-0.12,1.58,0,2.38c0.06,0.39,0.43,0.73,0.64,1.04c-0.07,0.01-0.35,0.06-0.7,0.13c0.22,0.17,0.38,0.3,0.55,0.43
		c-0.17,0.07-0.3,0.13-0.63,0.26c0.8,0.25,1.46,0.45,2.12,0.66C148.15,263.24,148.02,263.38,147.9,263.51z M165.16,149.02
		C165.15,149.02,165.15,149.02,165.16,149.02c-0.01-5.45-0.03-10.9,0.01-16.35c0.01-1.28-0.45-1.76-1.75-1.73
		c-2.82,0.07-5.65,0.06-8.48,0c-1.16-0.02-1.61,0.43-1.61,1.56c0.01,11,0.01,22,0,33c0,1.11,0.43,1.6,1.6,1.58
		c2.82-0.06,5.65-0.07,8.48,0c1.29,0.03,1.77-0.44,1.76-1.72C165.14,159.91,165.16,154.46,165.16,149.02z M171.4,71.78
		c-3.17-1.9-22.56-1.77-24.72,0.21C155.15,73.13,163.28,73.18,171.4,71.78z M171.41,83.22c-0.01-0.29-0.01-0.58-0.02-0.87
		c-8.13-1.04-16.25-1.19-24.37,0.08c0,0.27,0,0.54,0,0.8C155.16,84.33,163.29,84.35,171.41,83.22z M148.37,194.31
		c-0.01,0.29-0.02,0.57-0.03,0.86c1.7,0.18,3.41,0.52,5.11,0.5c5.99-0.05,11.98-0.2,17.97-0.35c0.51-0.01,1.01-0.32,1.51-0.48
		c-0.03-0.18-0.06-0.36-0.1-0.54C164.68,193.2,156.52,193.17,148.37,194.31z M172.83,239.56c-2.88-1.88-22.04-1.8-24.84,0.14
		C156.55,240.95,164.69,240.87,172.83,239.56z M148.42,216.78c2.95,1.91,22.33,1.83,24.74-0.15
		C164.68,215.49,156.55,215.44,148.42,216.78z M147.06,60.65c8.11,1.15,16.21,1.23,24.31-0.02
		C168.78,58.72,149.52,58.74,147.06,60.65z M147,93.78c2.87,1.88,22.4,1.8,24.71-0.18C163.25,92.49,155.12,92.43,147,93.78z
		 M148.37,205.69c2.6,1.89,22.05,1.87,24.87-0.1C164.69,204.39,156.53,204.4,148.37,205.69z M146.92,104.99
		c3.53,1.69,22.54,1.54,24.45-0.11C168.23,103.38,149.71,103.42,146.92,104.99z M172.85,228.4c-2.99-1.86-22.47-1.76-24.77,0.2
		C156.57,229.69,164.72,229.77,172.85,228.4z M171.39,127.51c-2.97-1.74-22.58-1.59-24.61,0.2
		C155.17,128.9,163.28,128.93,171.39,127.51z M148.34,183.36c2.8,1.81,23.1,1.66,24.66-0.24
		C164.63,182.05,156.48,181.92,148.34,183.36z M148.27,172.33c3.55,1.59,22.88,1.41,24.63-0.16
		C169.45,170.72,151.27,170.78,148.27,172.33z M147,115.97c2.58,1.9,22.2,1.86,24.37-0.06C163.25,114.92,155.12,114.8,147,115.97z
		 M156.07,243.81c1.53,0,3.06,0.04,4.59-0.03c0.4-0.02,0.79-0.37,1.18-0.56c-0.37-0.21-0.74-0.59-1.11-0.6
		c-3.21-0.05-6.42-0.04-9.62,0c-0.35,0-0.69,0.35-1.03,0.53c0.37,0.22,0.73,0.61,1.1,0.63
		C152.81,243.86,154.44,243.82,156.07,243.81z"/>
	<path d="M146.07,38.69c0.69,1.45,0.13,2.96,0.24,4.43c0.03,0.39,0.27,0.75,0.43,1.17c0.12-0.03-0.11,0.03-0.53,0.14
		c0.34,0.16,0.54,0.26,0.77,0.37c-0.28,0.08-0.54,0.15-0.66,0.18c0.06,0.39,0.21,0.73,0.14,1.01c-0.12,0.46-0.38,0.89-0.58,1.33
		c-0.16-0.39-0.45-0.78-0.45-1.17c-0.04-2.22-0.02-4.44,0-6.66c0-0.28,0.2-0.56,0.31-0.84C145.84,38.67,145.96,38.68,146.07,38.69z"
		/>
	<path d="M147.9,263.51c0.12-0.13,0.25-0.27,0.37-0.4c1.59,0.11,3.17,0.22,4.76,0.32c-0.01,0.15-0.02,0.3-0.03,0.46
		C151.3,263.76,149.6,263.64,147.9,263.51z"/>
	<path d="M146.07,38.69c-0.11-0.01-0.23-0.02-0.34-0.03c-0.13-0.84-0.27-1.67-0.42-2.62C146.51,36.41,146.76,37.73,146.07,38.69z"/>
</g>
</svg>
