<?xml version="1.0" encoding="utf-8"?>
<!-- Generator: Adobe Illustrator 23.0.2, SVG Export Plug-In . SVG Version: 6.00 Build 0)  -->
<svg version="1.1" id="Layer_1" xmlns="http://www.w3.org/2000/svg" xmlns:xlink="http://www.w3.org/1999/xlink" x="0px" y="0px"
	 viewBox="0 0 300 300" style="enable-background:new 0 0 300 300;" xml:space="preserve">
<style type="text/css">
	.st0{fill:#FFFFFF;}
</style>
<path d="M145.74,83.45c0-5.4,0-10.41,0-15.14c-3.97,0-7.46,0-10.64,0c-0.98,0.98-1.66,1.66-1.98,1.98c0.53,2.48,1,4.69,1.81,8.44
	c-1.18,0.74-2.65,1.65-3.47,2.16c0.47,1.89,0.84,3.34,1.16,5.13c-1.17-0.27-2.16-0.27-4.05-0.27c1.95-5-4.59-9.47-0.74-14.67
	c-0.55-1.9-1.13-3.92-1.81-6.3c7.47-2.93,14.53-5.69,21.8-8.54c0-10.33,0-20.4,0-30.18c5.58-4.4,6.3-4.43,12.13-0.55
	c0,9.84,0,19.92,0,30.71c7.73,2.86,15.4,5.7,23.74,8.79c-0.29,1.65-0.64,3.65-1.15,6.56c0.27,0.87,0.86,2.81,1.58,5.14
	c-1.69,1.26-3.25,2.43-4.51,3.38c1.02,1.87,1.73,3.17,2.6,4.74c-1.4,0.47-2.26,0.76-2.99,1.01c-0.45-0.27-0.96-0.49-0.94-0.58
	c1.19-4.77-5.45-9.08-0.44-14.59c-0.99-0.5-2.1-1.06-4.85-2.44c-2.58,0-7.41,0-12.63,0c2.9,4.7,1.05,9.76,1.77,14.96
	c9.06,2.9,18.31,5.87,27.8,8.91c-1.05,1.17-1.66,1.87-2.25,2.53c0.59,0.69,1.18,1.37,1.93,2.23c-1.34,0.48-2.48,0.88-4.45,1.58
	c1.76,0.77,2.94,1.28,4.8,2.08c-1.53,2.33-2.99,4.57-4.62,7.06c0.7,0.93,1.43,1.88,2.15,2.84c-0.93,0.93-1.86,1.86-2.79,2.79
	c-1.33-4.26-2.67-8.55-4.11-13.15c0.47-0.22,1.77-0.83,3.15-1.49c-1.02-0.98-1.96-1.88-2.89-2.76c-6.12,0-12.25,0-18.63,0
	c0,5.07,0,9.89,0,14.92c5.72,1.74,10.43,6.05,16.73,6.96c1.1,0.16,1.98,2.92,2.67,4.6c0.82,2.01-3.2,3.89-0.14,6.44
	c0.61,0.51-1.36,3.79-1.72,5.86c-0.32,1.85-0.07,3.8-0.07,6.24c-1.61-0.15-2.73-0.26-4.53-0.43c1.07-2.26,1.84-3.89,2.8-5.9
	c-1.48-1.7-3.07-3.54-5.32-6.13c2.16-0.89,3.45-1.42,4.73-1.96c-3.5-3.89-8.04-3.58-13.43-3.06c0,14.56,0,29.21,0,43.86
	c3.93,10.35,1.34,21.1,1.9,31.66c0.38,7.2-1.22,14.74,0.42,21.56c1.78,7.4,1.36,14.6,1.57,21.9c0.21,7.2,0.05,14.41,0.05,22.31
	c9.69,0,19.36,0,29.03,0c0.05,0.48,0.1,0.97,0.15,1.45c-1.47,0.25-2.98,0.36-4.4,0.78c-1.74,0.51-3.4,1.28-5.1,1.93
	c-3.11-2.49-6.28-2.68-10.21-0.63c-0.51,0.26-1.07,0.42-1.61,0.63c-3.64-2.55-5.43-2.6-10.27-0.61c-1.07,0.44-2.34,0.42-3.51,0.61
	c-3.11-2.49-6.28-2.68-10.21-0.63c-0.51,0.26-1.07,0.42-1.61,0.63c-3.11-2.49-6.28-2.68-10.21-0.63c-0.51,0.26-1.07,0.42-1.61,0.63
	c-3.11-2.49-6.28-2.68-10.21-0.63c-0.51,0.26-1.07,0.42-1.61,0.63c-3.64-2.55-5.43-2.6-10.27-0.61c-1.07,0.44-2.34,0.42-3.51,0.61
	c-0.6-1.03-1.21-2.06-2.2-3.75c9.31,0,18.32,0,27.94,0c-1.24-18.1,3.36-35.28,1.85-52.75c-0.2-2.28-0.03-4.59-0.03-6.88
	c0.01-8.95,2.81-17.62,2.11-26.72c-0.67-8.8-1.55-17.98,0.22-26.45c2.02-9.67,0.92-19.06,1.71-28.51
	c-4.11-0.61-7.69-1.14-11.48-1.69c-0.48,0.96-1.28,2.56-2.15,4.29c0.96,0.96,2.11,2.11,3.55,3.55c-1.35,1.51-2.72,3.04-4.34,4.84
	c0.88,1.21,1.6,2.2,2.41,3.32c-0.84,0.73-1.81,1.58-2.95,2.58c-0.73-0.68-1.62-1.5-2.65-2.45c0.58-0.94,1.16-1.88,1.95-3.16
	c-1.48-2.11-3.04-4.34-4.73-6.76c1.87-0.87,3.19-1.49,4.92-2.3c-1.53-0.53-2.67-0.93-4.27-1.49c0.54-0.73,1-1.34,1.67-2.25
	c-0.4-0.51-0.89-1.15-1.76-2.27c5.72-3.91,12.5-5.53,18.94-8.08c1.08-5.45,2.08-10.51,3.11-15.68 M166.38,264.67
	c-0.89-5.99-2.03-11.23-2.38-16.52c-1.1-16.75,1.06-33.52-1.7-50.37c-1.78-10.85-0.62-22.24-0.25-33.37
	c0.36-10.97-3.46-21.61-2.1-32.63c0.35-2.8,0.05-5.68,0.05-8.35c-4.37,0-7.88,0-10.96,0c-0.99,4.59-2.49,8.79-2.7,13.05
	c-0.42,8.5-0.56,17.07,0,25.55c0.56,8.43-1.66,16.49-2.12,24.76c-0.78,14.14,0.81,28.25-1.56,42.51c-1.9,11.42-0.38,23.4-0.38,35.36
	C150.22,264.67,157.67,264.67,166.38,264.67z M159.97,111.16c-0.02-5.76,0.82-10.9-2.91-15.63c-2.81,0.13-5.86,0.27-8.57,0.4
	c0,5.48,0,10.28,0,15.23C152.3,111.16,155.79,111.16,159.97,111.16z M157.39,56.03c-0.66-10.15-1.27-19.56-1.92-29.41
	c-1.2,0.21-2.31,0.4-3.58,0.62c1.81,9.92-4.09,19.05-1.07,28.79C152.94,56.03,155.13,56.03,157.39,56.03z M150.31,81.47
	c3.03,0,5.22,0,7.22,0c0-4.73,0-9.1,0-13.11c-2.69,0-4.88,0-7.22,0C150.31,72.84,150.31,76.98,150.31,81.47z M148.36,118.88
	c3.9,0,7.61,0,11.46,0c0-1.87,0-3.4,0-5.23c-3.9,0-7.61,0-11.46,0C148.36,115.52,148.36,117.05,148.36,118.88z M157.85,85.75
	c-2.04,0-3.92,0.18-5.76-0.04c-4.82-0.57-4.21,2.32-3.5,5.6c3.02,0,6.08,0,9.26,0C157.85,89.43,157.85,87.9,157.85,85.75z
	 M175.38,91.34c0.01-0.32,0.02-0.65,0.04-0.97c-3.51-0.89-6.99-1.92-10.54-2.61c-2.56-0.5-3.5,0.77-2.45,3.58
	C166.68,91.34,171.03,91.34,175.38,91.34z M150.35,64.09c2.36,0,4.56,0.21,6.67-0.14c0.55-0.09,0.81-1.92,1.23-3.01
	c-3.01-0.8-5.43-1.44-7.9-2.1C150.35,60.45,150.35,61.97,150.35,64.09z M172.13,63.61c-5.31-1.6-8.36-2.52-11.78-3.56
	c0,1.56,0,2.66,0,3.56C163.77,63.61,166.8,63.61,172.13,63.61z M135.25,118.72c3.74,0,6.35,0,9.52,0c-0.63-1.61-1.03-2.63-1.53-3.91
	C140.61,116.1,138.48,117.14,135.25,118.72z M162.6,114.72c-0.3,1.57-0.5,2.67-0.86,4.6c3.05-0.21,5.46-0.37,9.43-0.64
	C167.38,116.94,165.24,115.94,162.6,114.72z M138.29,62.48c0.02,0.37,0.03,0.74,0.05,1.11c2.61,0,5.23,0,8.05,0
	c-0.23-1.36-0.39-2.24-0.59-3.45c-1.22,0.79-2.08,1.64-3.08,1.91C141.3,62.43,139.77,62.36,138.29,62.48z"/>
<path d="M167.87,274.75c1.73-3.16,3.55-6.2,7.88-5.91C174.02,272.01,172.2,275.05,167.87,274.75z"/>
<path d="M133.92,272.03c-0.66,2.94-1.51,5.58-6.06,3.94C130.33,274.36,132.12,273.2,133.92,272.03z"/>
<path d="M183.14,272.03c-0.66,2.94-1.51,5.58-6.06,3.94C179.55,274.36,181.34,273.2,183.14,272.03z"/>
<path d="M126.53,268.85c-0.17,2.95-2.45,1.67-3.94,1.97C122.76,267.87,125.03,269.14,126.53,268.85z"/>
<path d="M183.62,272.78c0.66-0.66,1.31-1.31,1.97-1.97C184.94,271.47,184.28,272.13,183.62,272.78z"/>
<path d="M160,270.81c-0.66,0.66-1.31,1.31-1.97,1.97C158.68,272.13,159.34,271.47,160,270.81z"/>
<path d="M148.18,270.81c-0.66,0.66-1.31,1.31-1.97,1.97C146.87,272.13,147.53,271.47,148.18,270.81z"/>
<path d="M136.37,270.81c-0.66,0.66-1.31,1.31-1.97,1.97C135.06,272.13,135.72,271.47,136.37,270.81z"/>
<path d="M122.59,270.81c-0.66,0.66-1.31,1.31-1.97,1.97C121.28,272.13,121.93,271.47,122.59,270.81z"/>
<path d="M108.81,272.78c0.66-0.66,1.31-1.31,1.97-1.97C110.12,271.47,109.46,272.13,108.81,272.78z"/>
<path d="M185.59,270.81c0.66-0.66,1.31-1.31,1.97-1.97C186.9,269.5,186.25,270.16,185.59,270.81z"/>
<path d="M161.97,268.85c-0.66,0.66-1.31,1.31-1.97,1.97C160.65,270.16,161.31,269.5,161.97,268.85z"/>
<path d="M150.15,268.85c-0.66,0.66-1.31,1.31-1.97,1.97C148.84,270.16,149.5,269.5,150.15,268.85z"/>
<path d="M138.34,268.85c-0.66,0.66-1.31,1.31-1.97,1.97C137.03,270.16,137.68,269.5,138.34,268.85z"/>
<path d="M112.75,268.85c-0.66,0.66-1.31,1.31-1.97,1.97C111.43,270.16,112.09,269.5,112.75,268.85z"/>
<path d="M106.84,274.75c0.66-0.66,1.31-1.31,1.97-1.97C108.15,273.44,107.5,274.1,106.84,274.75z"/>
<path d="M118.65,274.75c0.66-0.66,1.31-1.31,1.97-1.97C119.96,273.44,119.31,274.1,118.65,274.75z"/>
<path d="M146.22,272.78c-0.66,0.66-1.31,1.31-1.97,1.97C144.9,274.1,145.56,273.44,146.22,272.78z"/>
<path d="M158.03,272.78c-0.66,0.66-1.31,1.31-1.97,1.97C156.72,274.1,157.37,273.44,158.03,272.78z"/>
<path d="M107.05,274.93c-0.46,0.54-0.91,1.07-1.37,1.61c-0.21-0.21-0.41-0.41-0.62-0.62c0.54-0.46,1.07-0.91,1.61-1.37
	C106.79,274.67,106.92,274.8,107.05,274.93z"/>
<path d="M118.86,274.93c-0.46,0.54-0.91,1.07-1.37,1.61c-0.21-0.21-0.41-0.41-0.62-0.62c0.54-0.46,1.07-0.91,1.61-1.37
	C118.6,274.67,118.73,274.8,118.86,274.93z"/>
<path d="M144.45,274.93c-0.46,0.54-0.92,1.07-1.37,1.61c-0.21-0.21-0.41-0.41-0.62-0.62c0.54-0.46,1.07-0.91,1.61-1.37
	C144.2,274.67,144.32,274.8,144.45,274.93z"/>
<path d="M156.27,274.93c-0.46,0.54-0.92,1.07-1.37,1.61c-0.21-0.21-0.41-0.41-0.62-0.62c0.54-0.46,1.07-0.91,1.61-1.37
	C156.01,274.67,156.14,274.8,156.27,274.93z"/>
<path d="M168.08,274.93c-0.46,0.54-0.92,1.07-1.37,1.61c-0.21-0.21-0.41-0.41-0.62-0.62c0.54-0.46,1.07-0.91,1.61-1.37
	C167.82,274.67,167.95,274.8,168.08,274.93z"/>
<path class="st0" d="M166.38,264.67c-8.71,0-16.15,0-24.1,0c0-11.96-1.51-23.95,0.38-35.36c2.37-14.26,0.78-28.37,1.56-42.51
	c0.46-8.27,2.68-16.33,2.12-24.76c-0.56-8.48-0.42-17.05,0-25.55c0.21-4.26,1.71-8.46,2.7-13.05c3.08,0,6.59,0,10.96,0
	c0,2.67,0.29,5.55-0.05,8.35c-1.36,11.02,2.46,21.66,2.1,32.63c-0.37,11.13-1.53,22.52,0.25,33.37c2.76,16.85,0.6,33.62,1.7,50.37
	C164.35,253.44,165.49,258.68,166.38,264.67z"/>
<path class="st0" d="M132.82,86.29c-0.52-2.06-0.88-3.52-1.35-5.4c0.82-0.51,2.28-1.42,3.47-2.16c-0.8-3.75-1.28-5.96-1.81-8.44
	c0.32-0.32,1.01-1,1.98-1.98c3.17,0,6.67,0,10.64,0c0,4.73,0,9.74,0,15.14C141.51,84.38,137.04,85.36,132.82,86.29z"/>
<path class="st0" d="M159.97,111.16c-4.19,0-7.68,0-11.48,0c0-4.95,0-9.75,0-15.23c2.71-0.13,5.76-0.27,8.57-0.4
	C160.8,100.26,159.95,105.4,159.97,111.16z"/>
<path class="st0" d="M157.39,56.03c-2.26,0-4.44,0-6.57,0c-3.01-9.75,2.88-18.88,1.07-28.79c1.27-0.22,2.38-0.41,3.58-0.62
	C156.11,36.47,156.73,45.88,157.39,56.03z"/>
<path class="st0" d="M150.31,81.47c0-4.49,0-8.64,0-13.11c2.34,0,4.53,0,7.22,0c0,4.01,0,8.38,0,13.11
	C155.53,81.47,153.34,81.47,150.31,81.47z"/>
<path class="st0" d="M148.36,118.88c0-1.83,0-3.36,0-5.23c3.85,0,7.57,0,11.46,0c0,1.83,0,3.36,0,5.23
	C155.97,118.88,152.26,118.88,148.36,118.88z"/>
<path class="st0" d="M157.85,85.75c0,2.16,0,3.69,0,5.56c-3.17,0-6.24,0-9.26,0c-0.71-3.28-1.32-6.17,3.5-5.6
	C153.93,85.93,155.81,85.75,157.85,85.75z"/>
<path class="st0" d="M175.38,91.34c-4.35,0-8.7,0-12.95,0c-1.05-2.81-0.12-4.08,2.45-3.58c3.55,0.69,7.03,1.72,10.54,2.61
	C175.41,90.7,175.39,91.02,175.38,91.34z"/>
<path class="st0" d="M150.35,64.09c0-2.12,0-3.64,0-5.25c2.48,0.66,4.9,1.3,7.9,2.1c-0.42,1.09-0.68,2.92-1.23,3.01
	C154.91,64.3,152.71,64.09,150.35,64.09z"/>
<path class="st0" d="M172.13,63.61c-5.33,0-8.36,0-11.78,0c0-0.9,0-2,0-3.56C163.77,61.08,166.82,62,172.13,63.61z"/>
<path class="st0" d="M135.25,118.72c3.23-1.58,5.36-2.63,7.99-3.91c0.5,1.29,0.9,2.31,1.53,3.91
	C141.6,118.72,138.98,118.72,135.25,118.72z"/>
<path class="st0" d="M162.6,114.72c2.64,1.22,4.78,2.21,8.57,3.96c-3.97,0.27-6.38,0.43-9.43,0.64
	C162.1,117.39,162.31,116.29,162.6,114.72z"/>
<path class="st0" d="M138.29,62.48c1.48-0.12,3.01-0.05,4.43-0.43c1.01-0.26,1.86-1.12,3.08-1.91c0.21,1.21,0.36,2.09,0.59,3.45
	c-2.83,0-5.44,0-8.05,0C138.32,63.23,138.31,62.85,138.29,62.48z"/>
<polygon class="st0" points="163.93,133.41 163.93,123.4 161.74,119.33 162.6,114.72 162.21,110.76 171.17,109.18 190.1,119.34 
	190.1,148.17 171.17,148.17 "/>
<path class="st0" d="M162.01,77.3c0,0-0.66-6.78-1.66-9.05l-0.41-12.02l24.51-7.24l9.11,23.63l-7.14,16.26l-12.06-3.24L162.01,77.3z
	"/>
</svg>
