<?xml version="1.0" encoding="utf-8"?>
<!-- Generator: Adobe Illustrator 23.0.2, SVG Export Plug-In . SVG Version: 6.00 Build 0)  -->
<svg version="1.1" id="Layer_1" xmlns="http://www.w3.org/2000/svg" xmlns:xlink="http://www.w3.org/1999/xlink" x="0px" y="0px"
	 viewBox="0 0 300 300" style="enable-background:new 0 0 300 300;" xml:space="preserve">
<style type="text/css">
	.st0{fill:#FFFFFF;}
</style>
<g>
	<path d="M181.99,213.9c0.56,0.88,1.11,1.66,1.72,2.53c-0.34,1.09-0.73,2.34-1.13,3.61c-0.42-0.38-0.76-0.69-1.46-1.32
		c-0.05,1.23-0.09,2.13-0.13,3c0.72,0.17,1.17,0.28,1.93,0.45c0.18,1.55-0.18,3.42,1.08,4.82c-0.28,0.11-0.55,0.22-0.83,0.33
		c0.28,0.22,0.55,0.45,0.83,0.67c0,0.67,0,1.33,0,2c-0.28,0.11-0.55,0.22-0.83,0.33c0.28,0.22,0.55,0.45,0.83,0.67
		c0,0.59,0,1.18,0,1.7c-0.55,0.15-0.84,0.23-1.23,0.33c-0.57-0.65-1.17-1.34-1.77-2.03c0.35-0.67,0.71-1.34,0.9-1.71
		c-0.37-1.48-0.64-2.66-0.98-3.83c-0.04-0.14-0.43-0.17-1-0.39c0,1.4,0,2.62,0,3.85c-0.25,0.05-0.49,0.11-0.74,0.16
		c-0.57-1.35-1.15-2.7-1.75-4.11c-0.38,0.07-0.83,0.14-1.01,0.18c-1.28,2.42,0.32,4.04,1.1,5.86c0.49,0,0.99,0,1.48,0
		c-0.63,0.86-1.26,1.73-1.87,2.56c1.27,0.17,0.15,3.29,2.87,2.12c0-0.47,0-1.08,0-1.68c0.44,0.54,0.88,1.07,1.52,1.84
		c0.61-0.53,1.33-1.16,2.32-2.02c0,2.14,0,3.92,0,5.87c-0.41,0.14-0.99,0.35-1.76,0.61c0.32,0.49,0.62,0.95,1.01,1.53
		c-0.5,1-1.04,2.07-1.78,3.55c-0.23-1.72-0.41-3.02-0.59-4.32c-0.29,2.05-1.89,4.21,0.61,5.75c-0.56,0.8-0.9,1.29-1.3,1.87
		c0.66,0.44,1.32,0.88,1.97,1.33c1.48,1.82,1.42,4.15,0.83,5.99c-0.41,1.27-0.1,2.54-0.67,3.85c-0.67,1.53-0.16,3.57-0.16,5.39
		c0,1.66,0,3.31,0,4.97c0,0.93,0,1.86,0,2.79c-0.23,0.01-0.47,0.02-0.7,0.04c-0.15-0.89-0.31-1.79-0.52-3.01c-1.22,0-2.5,0-3.78,0
		c0-0.33,0-0.67,0-1c0.33-0.25,0.67-0.5,1-0.76c-0.33-0.41-0.67-0.83-1-1.24c-0.15-0.76,0.5-1.91-1.05-1.95
		c0.02-0.01,0.08-0.08,0.15-0.14c-0.23-0.27-0.46-0.54-0.7-0.82c-0.11,0.11-0.21,0.21-0.32,0.32c0.27,0.23,0.54,0.46,0.86,0.64
		c0.2,0.71-0.45,1.86,1.05,1.95c0,0.67,0,1.33,0,2c-0.28,0.11-0.55,0.22-0.83,0.33c0.28,0.22,0.55,0.45,0.83,0.67
		c0,0.6,0,1.2,0,2.05c0.78-0.42,1.22-0.66,2.27-1.23c-0.49,1.25-0.78,2-1.06,2.72c0.56,1.08,1.17,2.27,1.79,3.46c-2,0-4,0-6,0
		c0-1.24,0-2.48,0-4c-0.81,0-1.4,0-2,0c-0.37-2.56-0.74-5.13-1.17-8.12c-0.87-0.27-1.85-0.57-2.83-0.88c0-0.67,0-1.33-1.35-3.6
		c0.2-0.05,1.04,0.79,2.28,2.04c0.14-2.62-0.85-3.3-2.28-2.04c-0.73,1.76-0.73,1.76-0.13,3.6c0.49,0,0.98,0,1.48,0
		c0,0.33,0,0.67,0,1c-0.58,0-1.17,0-2,0c0,0.83,0,1.42,0,2c-0.33,0-0.67,0-1,0c-0.15-0.76,0.5-1.91-1-2
		c0.35-0.68,0.71-1.36,1.13-2.17c-0.79-0.95-1.58-1.9-2.54-3.05c0.67-0.38,1.04-0.58,1.45-0.84c-0.02,0.01-0.08,0.08-0.15,0.14
		c0.23,0.27,0.46,0.54,0.7,0.82c0.11-0.11,0.21-0.21,0.32-0.32c-0.27-0.23-0.54-0.46-0.86-0.64c0.59-2.27,2.92,0.05,3.95-1.47
		c-0.04-0.36-0.09-0.8-0.16-1.48c-1.32,0-2.58,0-3.83,0c-0.25-0.91-0.5-1.82-0.78-2.84c0.56-0.36,1.17-0.76,2.17-1.17
		c0.1,0-0.19,0.02-0.48,0.03c0.13,0.65,0.25,1.3,0.38,1.95c0.22-0.03,0.43-0.06,0.65-0.09c-0.05-0.64-0.11-1.27-0.55-1.9
		c-0.03-0.67,0.32-1.34,0.65-1.98c-0.37-0.77-0.75-1.44-1.03-2.15c-0.21-0.53-0.29-1.11-0.43-1.67c-0.18,0.04-0.37,0.07-0.55,0.11
		c0,1.44,0,2.89,0,4.33c-0.72,0.27-1.29,0.49-1.79,0.67c0,1.6,0,3.16,0,4.71c0.75,0,1.25,0,1.75,0c-0.48,0.66-0.97,1.33-1.33,1.82
		c-1.08-0.54-1.87-0.93-2.66-1.32c0.35-0.36,0.67-0.71,0.99-1.05c-0.34-1.16-0.67-2.31-1.06-3.5c0.01,0.02,0.08,0.08,0.14,0.15
		c0.27-0.23,0.54-0.46,0.82-0.7c-0.11-0.11-0.21-0.21-0.32-0.32c-0.23,0.27-0.46,0.54-0.64,0.86c-2.23,1.79-0.33,4.21-0.92,6.24
		c-0.06,0.2,0.29,0.52,0.55,0.94c0.69,0,1.46,0,1.95,0c1.09,2.03,0.68,4.37,2.47,5.86c0.15,0.76-0.5,1.91,1,2
		c0.21,2.24,0.76,2.79,3,3c0,0.67,0,1.33,0,2c-0.63,0.11-1.27,0.23-1.9,0.34c0.02,0.22,0.05,0.44,0.07,0.66c0.61,0,1.22,0,1.83,0
		c0.95,1.18,1.12,2.55,1,4c-2.33,0-4.67,0-7,0c-0.12-0.69-0.23-1.38-0.49-2.89c-1.2,1.38-1.85,2.13-2.51,2.89c-3.67,0-7.33,0-11,0
		c-1.19-1.41-1.01-3.19-0.99-4.43c-0.99-1.06-1.62-1.74-2.29-2.45c0.52-0.74,0.86-1.22,1.14-1.63c-1.64-1.05-3.28-2.1-5.28-3.38
		c0.59-0.46,1.01-0.79,1.47-1.16c-0.02,0.01-0.08,0.08-0.15,0.14c0.23,0.27,0.46,0.54,0.7,0.82c0.11-0.11,0.21-0.21,0.32-0.32
		c-0.27-0.23-0.54-0.46-0.86-0.64c-0.43-0.93,0.88-2.48-1.05-2.95c-0.22-0.72-0.48-1.44-0.66-2.18c-0.15-0.6-0.23-1.22-0.39-1.87
		c0.01,0.02,0.08,0.08,0.14,0.15c0.27-0.23,0.54-0.46,0.82-0.7c-0.11-0.11-0.21-0.21-0.32-0.32c-0.23,0.27-0.46,0.54-0.64,0.86
		c-2.08-0.62-0.31-2.51-1.19-3.69c-0.78-1.54-2.32-1.27-3.76-1.27c0.73-1.14,1.46-2.28,2.32-3.63c-0.84-0.22-1.29-0.33-1.7-0.44
		c-0.57,0.73-1.1,1.4-1.62,2.07c0.06-1.25-0.41-2.64,0.98-3.52c-0.47-0.47-0.94-0.94-1.44-1.44c-0.34,0.3-0.68,0.61-0.88,0.78
		c-0.84-0.31-1.6-0.6-2.16-0.81c0.26,2.44,0.49,4.57,0.71,6.71c0.18-0.17,0.35-0.34,0.53-0.52c0.55,0.97,1.1,1.94,1.65,2.91
		c0.2-0.09,0.41-0.18,0.61-0.27c0-0.61,0-1.23,0-1.84c0.33,0,0.67,0,1,0c0,0.95,0,1.89,0,2.72c-0.9,0.31-1.47,0.5-2.27,0.78
		c1.01,1.99,1.94,3.84,3,5.94c0.83-0.64,1.32-1.01,1.81-1.39c0.43,0.43,0.9,0.9,1.57,1.57c-1.44,0.57-3.24,0.83-3.11,3.32
		c0.99-0.23,1.87-0.44,2.84-0.68c0.04,0.43,0.08,0.88,0.14,1.4c-0.63,0.22-1.2,0.43-1.84,0.66c0.45,0.91,0.89,1.81,1.21,2.44
		c0.99,0.41,1.74,0.72,3.01,1.24c-0.57-1.32-0.88-2.04-1.27-2.95c1.79-0.17,2.54,0.66,2.97,2.11c-0.32,0.48-0.64,0.97-0.75,1.14
		c0.23,1.05,0.4,1.84,0.59,2.71c-0.92,0-1.42,0-1.92,0.02c0.17-0.16,0.33-0.34,0.5-0.51c-0.71-0.46-1.42-0.92-2.35-1.52
		c-0.04,0.67-0.08,1.21-0.13,1.91c0.8,0.06,1.39,0.1,1.98,0.13c0.64,0.5,1.27,1.02,1.83,1.48c-0.57,0.78-1.2,1.64-1.83,2.5
		c-1.67,0-3.33,0-5,0c-0.25-0.33-0.5-0.67-0.76-1c-0.41,0.33-0.83,0.67-1.24,1c-2.67,0-5.33,0-8,0c0-1.29,0-2.57,0-3.44
		c-1.65-0.71-2.86-1.23-4.46-1.92c1.18-0.53,1.78-0.8,2.63-1.18c-0.93-0.35-1.5-0.56-2.23-0.84c0-1.45,0-2.9,0-4.29
		c-0.75-0.27-1.33-0.47-1.97-0.7c0.07-0.53,0.13-0.99,0.21-1.52c0.59,0.28,1.05,0.5,1.63,0.78c0.99-2.46-1.62-2.02-2.39-2.75
		c-1.3-1.23-1.16-2.89-1.88-4.28c-0.64,0.2-1.08,0.34-1.5,0.46c-0.29,2.57,0.93,4.14,3.11,5.35c-0.38,2.06-0.76,4.14-1.12,6.15
		c0.9,0.18,1.35,0.28,1.96,0.4c0,0.74-0.24,1.53,0.04,1.99c1.13,1.83-0.71,4.09,0.96,5.78c-1.67,0-3.33,0-5,0c0-1,0-2,0-3
		c0.28-0.11,0.55-0.22,0.83-0.33c-0.28-0.22-0.55-0.45-0.83-0.67c0.22-0.87,0.45-1.75,0.68-2.65c-0.82-2.11-0.73-4.83-2.97-6.4
		c0.57-0.66,0.89-1.03,1.13-1.31c-0.97-1.92-1.93-3.83-2.85-5.64c0.41-0.89,0.78-1.7,1.38-3c-1.47,0-2.42,0-3.37,0
		c0-0.67,0-1.33,0-1.98c0.63-0.03,1.25-0.09,2.1-0.17c-0.53-3.46-1.02-6.67-1.53-10.01c-0.68,0.22-1.12,0.36-1.73,0.56
		c0.4,1.6,0.94,3.09,1.11,4.61c0.19,1.64,0.04,3.32,0.04,5.01c-0.28-0.14-0.82-0.27-0.81-0.37c0.17-2.91-1.02-5.63-1.16-8.48
		c-0.14-2.95-0.03-5.92-0.03-8.8c0.77-0.27,1.35-0.48,2.42-0.86c-0.97-0.32-1.48-0.49-2.26-0.74c-0.11-6.1-2.14-12.23-0.76-19.15
		c0.44,1.05,0.69,1.64,0.95,2.25c0.22-0.14,0.63-0.3,0.62-0.42c-0.13-1.7,0.58-3.56-0.85-5.07c-0.03-0.03,0.6-0.67,1.01-1.13
		c-0.41-0.82-0.82-1.64-1.24-2.48c0.36-0.44,0.67-0.81,0.98-1.18c-2.13-2.07-2.02-5.67-5.48-7.29c0.79-0.63,1.2-0.96,1.61-1.29
		c0.82,1.01,1.63,2.03,3,3.72c0-1.52,0-2.12,0.58-3.93c-0.19-0.53-0.56-0.33-0.54-0.19c0.07,0.48,0.28,0.94,0.43,1.4
		c0.17-0.6,0.34-1.21,0.11-1.21c-2.67,1.01-0.75-1.19-2.02-1.75c-0.53,0.66-1.04,1.31-1.56,1.96c-0.18-1.66-1.5-0.73-2.37-1.03
		c-1.14-1.74-2.31-3.55-3.64-5.58c0.13-3.12,0.08-6.42-1.55-9.55c-0.55-1.06-0.33-2.52-0.44-3.8c-0.07-0.89-1.45-1.65-0.04-2.71
		c0.95-0.72-1.98-1.67-0.12-2.68c-0.29-3.14,1.06-5.81,2.65-8.79c0.35,0.8,0.61,1.4,0.9,2.08c2.83,0.25,3.38-3.02,5.93-3.49
		c-0.56-0.97-0.95-1.63-1.41-2.42c0.67-0.97,1.37-2,2.08-3.03c0.33-0.33,0.67-0.67,0.95-1.05c0.01,0.02,0.08,0.08,0.14,0.15
		c0.27-0.23,0.54-0.46,0.82-0.7c-0.11-0.11-0.21-0.21-0.32-0.32c-0.23,0.27-0.46,0.54-0.64,0.86c-0.28,0.38-0.61,0.71-0.95,1.05
		c-0.97,0.21-1.94,0.41-3.19,0.68c1.22-3.66,4.31-5.45,6.81-7.6c1.71-1.47,3.99-2.32,6.09-3.26c3.25-1.45,5.84-3.57,7.13-6.3
		c2.35-0.63,4.15-1.12,5.67-1.53c0.6-1.09,1.06-1.9,1.57-2.81c1.18,0,2.3,0,3.07,0c0.99-1.12,1.74-1.96,2.92-3.3
		c0-2.06,0-4.84,0-7.5c2.25-1.51,1.48,1.39,2.75,1.51c0-0.81,0-1.59,0-2.44c-1.1-0.42-2.39-0.92-3.79-1.46
		c0.03-2.68-0.6-5.24,1.97-6.98c0.33,1.01,0.66,2.03,1,3.04c0.47,1.38,0.96,2.76,1.42,4.08c0.73-0.21,1.03-0.29,1.39-0.39
		c-0.84-2.26-2.03-4.42-1.86-6.96c0.02-0.24-0.62-0.51-0.95-0.77c0-0.33,0-0.67,0.06-1.08c0.99-1.23,0.99-1.23,0.06-2.89
		c0,1.13,0,2.05-0.06,2.89c-0.72-0.37-1.38-0.81-2.05-1.26c0.24-0.32,0.6-0.57,0.58-0.78c-0.15-1.48-0.43-2.95-0.58-4.43
		c-0.14-1.42,0.34-2.95-0.99-4.11c-0.16-0.14-0.04-0.64-0.02-0.97c0.46-6.4-1.67-12.65-1.05-19.07c0.17-1.71,0.15-3.39-0.82-5.15
		c-0.7-1.26-0.14-3.21-0.14-4.7c1.93-1.51,3.08,0.62,4.93,0.74c-0.72,4.51,2.86,8,3.22,12.41c0.05,0.56,0.86,1.13,0.8,1.63
		c-0.27,2.32,0.84,4.41,0.92,6.59c0.05,1.2,1.54,2.17,0.27,3.77c-0.73,0.92-0.14,2.89-0.14,4.39c0,0.62,0,1.24,0,2.6
		c1.51-1.78,2.51-2.96,3.98-4.69c0-6.64,0-14.09,0-21.14c0.68-0.81,1.1-1.32,1.63-1.95c1.16,0.57,2.27,1.11,3.53,1.72
		c0,2.41,0,4.86,0,7.81c0.8-1.27,1.56-2.04,1.8-2.95c0.27-1.04,0.06-2.2,0.45-3.3c0.39,2.1,1.15,4.07-0.13,6.33
		c-0.96,1.7-0.45,3.94-1.11,6c-1.27,3.99-1.37,8.28-1.2,12.52c0.05,1.36-0.45,2.74-0.64,3.76c0.33,2.13,0.62,3.99,0.9,5.76
		c0.97,1.44,1.93,2.88,2.95,4.4c-0.75,1.1-1.46,2.13-2.15,3.55c0,0.1-0.02-0.19-0.03-0.48c-0.65,0.13-1.3,0.25-1.95,0.38
		c0.03,0.22,0.05,0.43,0.08,0.65c0.64-0.05,1.28-0.11,1.9-0.55c2.03,1.05,1.33,3.52,0.78,4.81c-0.75,1.79-0.54,3.45-0.83,5.16
		c-0.24,1.47-0.74,2.89-0.22,4.58c0.58-1.96,1.16-3.92,1.76-5.94c0.32,0.68,0.63,1.34,0.96,2.04c0.26-0.28,0.49-0.52,1.16-1.22
		c0.25,0.76,0.49,1.5,0.82,2.51c0.05-0.15-0.23,0.63-0.72,1.98c1.83-0.65,2.95-1.05,3.99-1.42c2.03,1.22,3.89,2.35,6.18,3.72
		c0.01,0.1,0.08,0.71,0.19,1.66c1.06,1.36,2.32,2.97,3.55,4.55c0.82-1.03,1.92-1.24,3.27-0.42c4.06,2.47,7.39,5.91,11.41,8.42
		c0.27,1.74,2.22,2.11,2.89,3.71c0.59,1.42,2.98,2.25,3.27,3.61c0.8,3.83,4.12,6.73,3.6,11.07c-0.42,3.49,0.32,7.12-1.5,10.43
		c-0.77-0.18-1.75-0.54-2.75-0.61c-0.64-0.05-1.32,0.31-2.18,0.24c-2.93,2.28-3.22,6.02-4.94,9.24c0.82,0.28,1.39,0.47,2.14,0.72
		c0,1.38,0,2.84,0,4.55c0.74,0.56,1.54,1.15,2.66,1.99c-0.69,0.56-1.1,0.89-1.56,1.28c0.02-0.01,0.08-0.08,0.15-0.14
		c-0.23-0.27-0.46-0.54-0.7-0.82c-0.11,0.11-0.21,0.21-0.32,0.32c0.27,0.23,0.54,0.46,0.86,0.64c-0.07,0.56,0.03,1.5-0.32,1.73
		c-1.88,1.19-1.66,3-1.62,4.82c-1.28-0.23-2.5-0.45-4.35-0.78c0.72,1.79,1.21,3,1.64,4.06c0.65,0.13,1.1,0.22,1.54,0.3
		c-0.02,1.11,1.04,2.41-2.05,2.23c-0.53,0.19-0.33,0.56-0.19,0.54c0.48-0.07,0.94-0.28,1.4-0.43c-0.6-0.17-1.21-0.34-1.21-0.11
		c1.21,1.24,1.21,1.91,1.21,2.58C183.33,214,182.67,214,181.99,213.9c-0.43-0.9-0.95-1.87-1.76-3.41c0,2.01,0,3.23,0,4.63
		C180.93,214.58,181.41,214.22,181.99,213.9z M126.9,163.91c0.07,0.07,0.13,0.13,0.2,0.2c0.27-0.23,0.54-0.46,0.82-0.7
		c-0.11-0.11-0.21-0.21-0.32-0.32c-0.23,0.27-0.46,0.54-0.49,1c-0.07-0.07-0.13-0.13-0.2-0.2c-0.27,0.23-0.54,0.46-0.82,0.7
		c0.11,0.11,0.21,0.21,0.32,0.32C126.64,164.64,126.87,164.36,126.9,163.91z M132.91,186.1c0.07-0.07,0.13-0.13,0.2-0.2
		c-0.23-0.27-0.46-0.54-0.7-0.82c-0.11,0.11-0.21,0.21-0.32,0.32c0.27,0.23,0.54,0.46,1,0.49c-0.07,0.07-0.13,0.13-0.2,0.2
		c0.23,0.27,0.46,0.54,0.7,0.82c0.11-0.11,0.21-0.21,0.32-0.32C133.64,186.36,133.36,186.13,132.91,186.1z M148,257
		c0.28-0.11,0.55-0.22,0.83-0.33c-0.28-0.22-0.55-0.45-0.83-0.67c-0.15-0.76,0.5-1.91-1-2c-0.33-0.33-0.67-0.67-1-1
		c-0.33-0.67-0.67-1.33-1-2c0.58,0,1.17,0,2,0c0-0.83,0-1.42-0.1-2.09c0.07,0.07,0.13,0.13,0.2,0.2c0.27-0.23,0.54-0.46,0.82-0.7
		c-0.11-0.11-0.21-0.21-0.32-0.32c-0.23,0.27-0.46,0.54-0.59,0.91c-0.67,0.67-1.33,1.33-2,2c-0.33,0-0.67,0-1.09,0.1
		c0.07-0.07,0.13-0.13,0.2-0.2c-0.23-0.27-0.46-0.54-0.7-0.82c-0.11,0.11-0.21,0.21-0.32,0.32c0.27,0.23,0.54,0.46,0.91,0.59
		c0,0.58,0,1.17,0,2c0.83,0,1.42,0,2,0c0.33,0.33,0.67,0.67,1,1c0.15,0.76-0.5,1.91,1,2C148,256.33,148,256.67,148,257
		c-0.28,0.11-0.55,0.22-0.83,0.33c0.28,0.22,0.55,0.45,1.33,0.66c-0.41,0.41-0.92,0.75-1.17,1.23c-0.24,0.47-0.21,1.08-0.3,1.63
		c0.94-0.83,2.95-1.18,0.96-2.85C148,257.67,148,257.33,148,257z M155.9,245.91c0.07,0.07,0.13,0.13,0.2,0.2
		c0.27-0.23,0.54-0.46,0.82-0.7c-0.11-0.11-0.21-0.21-0.32-0.32c-0.23,0.27-0.46,0.54-0.49,1c-0.07-0.07-0.13-0.13-0.2-0.2
		c-0.27,0.23-0.54,0.46-0.82,0.7c0.11,0.11,0.21,0.21,0.32,0.32C155.64,246.64,155.87,246.36,155.9,245.91z M171.1,205.09
		c-0.07-0.07-0.13-0.13-0.2-0.2c-0.27,0.23-0.54,0.46-0.82,0.7c0.11,0.11,0.21,0.21,0.32,0.32c0.23-0.27,0.46-0.54,0.49-1
		c0.07,0.07,0.13,0.13,0.2,0.2c0.27-0.23,0.54-0.46,0.82-0.7c-0.11-0.11-0.21-0.21-0.32-0.32
		C171.36,204.36,171.13,204.64,171.1,205.09z M158,241c-0.28,0.11-0.55,0.22-0.83,0.33c0.28,0.22,0.55,0.45,0.83,0.67
		c0,0.59,0,1.19,0,2.04c1.28-0.66,2.21-1.14,4.03-2.08c-1.6-0.51-2.31-0.73-3.03-0.96c-0.11-0.28-0.22-0.55-0.33-0.83
		C158.45,240.45,158.22,240.72,158,241z M171,241c0,0.33,0,0.67,0,1c-2.33,1.11-0.55,2.44-0.32,3.26c-0.63,2.1-1.19,3.82-1.65,5.58
		c-0.09,0.33,0.24,0.77,0.29,0.92c0.94-0.28,1.71-0.5,3.22-0.95c-0.71,1.41-1.04,2.07-1.42,2.83c0.58,0.51,1.29,1.15,1.87,1.67
		c0,1.07,0,1.88,0.1,2.79c-0.07-0.07-0.13-0.13-0.2-0.2c-0.27,0.23-0.54,0.46-0.82,0.7c0.11,0.11,0.21,0.21,0.32,0.32
		c0.23-0.27,0.46-0.54,0.59-0.91c0.89,0.36,1.78,0.71,2.67,1.07c-0.47-1.34-1.62-2.3,0.33-3.07c0.83,1,1.66,2.01,2.5,3.01
		c-0.31-1.87,0.11-3.82-1.5-5.01c-0.11-0.28-0.22-0.55-0.33-0.83c-0.22,0.28-0.45,0.55-0.67,0.83c-0.61,0-1.23,0-1.67,0
		c-1.07-2.25,1.04-1.66,1.5-2.4c0.23-0.37-0.03-1.03-0.08-1.77c-0.63,0.54-0.97,0.83-1.29,1.1c-0.52-0.51-0.99-0.97-1.26-1.24
		c0.46-1.28,0.87-2.44,1.38-3.87c0.39,0.96,0.62,1.51,0.84,2.07c0.18-2.46,0.07-4.92-1.04-6.8c-0.82-1.38,0.93-3.45-1.38-4.1
		c0-0.62,0-1.23,0-2.27c-1.24,0.48-1.99,0.77-2.68,1.04c-0.4-0.85-0.77-1.64-1.38-2.93c0.7-0.39,1.58-0.87,2.58-1.41
		c-0.71-0.96-1.07-1.46-1.32-1.79c0.29-0.82,0.57-1.6,0.99-2.8c-1.9,0.91-2.32,1.96-2.22,3.39c0.05,0.71,0.4,1.77-0.97,1.78
		c0-0.6,0-1.21,0-1.84c-1.22,0.09-2.26,2.13-3-0.16c0.33-0.25,0.67-0.5,1-0.76c-0.33-0.41-0.67-0.83-1.09-1.14
		c0.07-0.07,0.13-0.13,0.2-0.2c-0.23-0.27-0.46-0.54-0.7-0.82c-0.11,0.11-0.21,0.21-0.32,0.32c0.27,0.23,0.54,0.46,0.91,0.59
		c0,0.67,0,1.33,0,2c-0.33,0.43-0.99,1.21-0.95,1.24c1.28,1.18,0.89,2.7,0.98,4.13c0.01,0.19,0.38,0.35,0.29,0.28
		c1.03-0.21,1.81-0.37,2.6-0.52c0.11,0.23,0.22,0.46,0.33,0.69c-0.8,0.71-1.6,1.43-2.89,2.58c1.85,0.64,3.24,1.12,4.64,1.6
		C170.33,240.33,170.67,240.67,171,241z M169.91,150.1c0.07-0.07,0.13-0.13,0.2-0.2c-0.23-0.27-0.46-0.54-0.7-0.82
		c-0.11,0.11-0.21,0.21-0.32,0.32c0.27,0.23,0.54,0.46,1,0.49c-0.07,0.07-0.13,0.13-0.2,0.2c0.23,0.27,0.46,0.54,0.7,0.82
		c0.11-0.11,0.21-0.21,0.32-0.32C170.64,150.36,170.36,150.13,169.91,150.1z M159.09,237.9c-0.07,0.07-0.13,0.13-0.2,0.2
		c0.23,0.27,0.46,0.54,0.7,0.82c0.11-0.11,0.21-0.21,0.32-0.32c-0.27-0.23-0.54-0.46-1-0.49c0.07-0.07,0.13-0.13,0.2-0.2
		c-0.23-0.27-0.46-0.54-0.7-0.82c-0.11,0.11-0.21,0.21-0.32,0.32C158.36,237.64,158.64,237.87,159.09,237.9z M158.09,233.9
		c-0.07,0.07-0.13,0.13-0.2,0.2c0.23,0.27,0.46,0.54,0.7,0.82c0.11-0.11,0.21-0.21,0.32-0.32c-0.27-0.23-0.54-0.46-0.91-0.59
		c-0.33-0.33-0.67-0.67-1.09-0.9c0.07-0.07,0.13-0.13,0.2-0.2c-0.23-0.27-0.46-0.54-0.7-0.82c-0.11,0.11-0.21,0.21-0.32,0.32
		c0.27,0.23,0.54,0.46,0.91,0.59C157.33,233.33,157.67,233.67,158.09,233.9z M177.91,216.1c0.07-0.07,0.13-0.13,0.2-0.2
		c-0.23-0.27-0.46-0.54-0.7-0.82c-0.11,0.11-0.21,0.21-0.32,0.32c0.27,0.23,0.54,0.46,1,0.49c-0.07,0.07-0.13,0.13-0.2,0.2
		c0.23,0.27,0.46,0.54,0.7,0.82c0.11-0.11,0.21-0.21,0.32-0.32C178.64,216.36,178.36,216.13,177.91,216.1z M180.9,216.91
		c0.07,0.07,0.13,0.13,0.2,0.2c0.27-0.23,0.54-0.46,0.82-0.7c-0.11-0.11-0.21-0.21-0.32-0.32c-0.23,0.27-0.46,0.54-0.59,0.91
		c-0.33,0.33-0.67,0.67-0.96,0.96c-0.64,0.05-1.24,0.1-2.06,0.16c0.08,0.73,0.14,1.28,0.21,1.88c0.67-0.06,1.1-0.09,1.7-0.14
		c0.05-0.66,0.1-1.26,0.11-1.86C180.33,217.67,180.67,217.33,180.9,216.91z M132.09,217.9c-0.07,0.07-0.13,0.13-0.2,0.2
		c0.23,0.27,0.46,0.54,0.7,0.82c0.11-0.11,0.21-0.21,0.32-0.32c-0.27-0.23-0.54-0.46-1-0.49c0.07-0.07,0.13-0.13,0.2-0.2
		c-0.23-0.27-0.46-0.54-0.7-0.82c-0.11,0.11-0.21,0.21-0.32,0.32C131.36,217.64,131.64,217.87,132.09,217.9z M148.91,225.1
		c0.07-0.07,0.13-0.13,0.2-0.2c-0.23-0.27-0.46-0.54-0.7-0.82c-0.11,0.11-0.21,0.21-0.32,0.32c0.27,0.23,0.54,0.46,1.68,0.57
		c-0.29,0.01-0.58,0.03-0.86,0.04c0.13,0.65,0.25,1.3,0.38,1.95c0.22-0.03,0.43-0.06,0.65-0.09
		C149.89,226.25,149.83,225.61,148.91,225.1z M156.09,272.9c-0.07,0.07-0.13,0.13-0.2,0.2c0.23,0.27,0.46,0.54,0.7,0.82
		c0.11-0.11,0.21-0.21,0.32-0.32c-0.27-0.23-0.54-0.46-0.91-0.59c-0.11-0.63-0.23-1.27-0.34-1.9c-0.22,0.02-0.44,0.05-0.66,0.07
		c0,0.61,0,1.22,0.04,1.73c-0.72,0.14-1.36,0.27-1.05,0.21c0.09,0.46,0.25,1.23,0.41,2c0.17-0.11,0.33-0.23,0.5-0.34
		c0.04-0.59,0.09-1.18,0.1-1.77C155.33,273,155.67,273,156.09,272.9z M153.85,268.42c0.77-0.68,1.14-0.88,1.12-1.02
		c-0.07-0.48-0.28-0.94-0.43-1.4c-0.17,0.6-0.34,1.21,0.47,0c0.33,0,0.67,0,1,0c0,0.58,0,1.17,0,2c0.83,0,1.42,0,2.32-0.37
		c-0.57,1.58-0.99,2.72-1.31,3.61c1.06,0.99,1.9,1.78,2.76,2.59c0.11-2.84,0.11-2.84-1.77-5.82c-0.08-1-0.15-1.99-0.23-2.99
		c-0.75,0.42-1.26,0.71-1.77,0.99c-0.11-0.28-0.22-0.55-0.33-0.83C155.45,265.45,155.22,265.72,153.85,268.42z M180.85,195.42
		c0.77-0.68,1.14-0.88,1.12-1.02c-0.07-0.48-0.28-0.94-0.43-1.4c-0.17,0.6-0.34,1.21,0.36-0.09c0.07,0.07,0.13,0.13,0.2,0.2
		c0.27-0.23,0.54-0.46,0.82-0.7c-0.11-0.11-0.21-0.21-0.32-0.32C182.36,192.36,182.13,192.64,180.85,195.42z M148,220
		c-0.33-0.33-0.67-0.67-1-1c0-0.67,0-1.33-0.1-2.09c0.07,0.07,0.13,0.13,0.2,0.2c0.27-0.23,0.54-0.46,0.82-0.7
		c-0.11-0.11-0.21-0.21-0.32-0.32c-0.23,0.27-0.46,0.54-0.59,0.91c-0.33,0.25-0.67,0.5-1,0.76c0.33,0.41,0.67,0.83,1,1.24
		c0.33,0.33,0.67,0.67,1.78,0.97c-0.29,0.01-0.58,0.03-0.86,0.04c0.13,0.65,0.25,1.3,0.38,1.95c0.22-0.03,0.43-0.06,0.65-0.09
		C148.89,221.25,148.83,220.61,148,220z M167,144c-0.58,0-1.17,0-2,0c0,0.83,0,1.42,0,1.67c-0.91,1.26-1.68,2.34-2.53,3.52
		c-0.81,0-1.58,0-2.87,0c0.74,1.2,1.26,2.03,1.76,2.83c1.34-1.28,2.51-2.41,3.65-3.5c0-0.89,0-1.7,0-2.52
		c0.67-0.67,1.33-1.33,1.9-2.09c0.07,0.07,0.13,0.13,0.2,0.2c0.27-0.23,0.54-0.46,0.82-0.7c-0.11-0.11-0.21-0.21-0.32-0.32
		C167.36,143.36,167.13,143.64,167,144z M140.91,241.1c0.07-0.07,0.13-0.13,0.2-0.2c-0.23-0.27-0.46-0.54-0.7-0.82
		c-0.11,0.11-0.21,0.21-0.32,0.32c0.27,0.23,0.54,0.46,1.54,0.38c-0.67,0.72-1.15,1.25-2.13,2.31c1.35-0.15,1.89-0.21,2.63-0.29
		C141.94,242.01,141.81,241.48,140.91,241.1z M173.96,217.1c0.72-0.14,1.36-0.27,1.44-0.28c-0.23-0.61-0.49-1.29-0.75-1.97
		c-0.18,0.13-0.37,0.26-0.55,0.39c-0.04,0.59-0.09,1.18-0.1,1.77c-0.28,0.11-0.55,0.22-0.83,0.33c0.28,0.22,0.55,0.45,1.33,0.67
		c-0.28,0.04-0.56,0.08-0.83,0.11c0.54,1.6,1.08,3.2,1.62,4.8c0.19-0.05,0.39-0.1,0.58-0.15c0-1.12,0-2.24,0-3.38
		c-0.44-0.44-0.91-0.91-1.88-1.38C174,217.67,174,217.33,173.96,217.1z M172,178c-0.58,0-1.17,0-2,0c0,0.83,0,1.42,0,2
		c-1.93,0.47-0.62,2.02-0.97,3.65c-2.04-0.73-4.04-0.88-6.04-0.37c0.03,0.62,0.04,0.94,0.06,1.3c2.01-0.31,4-0.62,5.96-1.59
		c1.8,0.74,0.94,1.58,0.09,2.41c0.37,0.63,0.75,1.27,1.13,1.91c-1.02,0.97-1.86,1.78-2.77,2.64c-2.12-0.04-4.44,0.58-6.45-0.96
		c-0.15-0.76,0.5-1.91-1-2c0-0.67,0-1.33-0.5-2.5c0.17,0.18,0.33,0.35,0.5,0.53c0.59-0.04,1.18-0.09,1.98-0.14
		c-0.05-0.7-0.08-1.24-0.13-1.91c-0.94,0.61-1.64,1.06-1.86,2.02c-0.87,0.63-1.75,1.25-2.62,1.88c-0.59-0.59-1.18-1.18-2.12-2.12
		c-1.95,0.49-4.15,1.04-6.47,1.62c0.28,0.77,0.44,1.2,0.61,1.69c1.83-2.09,4.13-0.6,5.1-0.88c1.37,0.62,2.14,0.97,3.01,1.36
		c-1.24,1.89-2.14,3.28-3.19,4.87c-0.84-0.61-1.34-0.97-1.37-0.99c-1.5,0.23-2.63,0.41-3.62,0.57c-1.09-1.57-1.93-2.78-2.77-3.99
		c-0.27,1.93,0.17,3.85,1.65,4.54c2.03,0.95,3.55,3.66,5.53,2.69c2.23-1.52,3.67-2.5,5.26-3.58c0-1.61-0.05-3.25,0.04-4.88
		c0.02-0.28,0.62-0.53,0.96-0.79c0.15,0.76-0.5,1.91,1,2c0.33,1.01,0.66,2.02,0.88,2.7c3.79,1.21,6.2-1.03,9.12-2.08
		c0-1.56-0.05-3.2,0.04-4.83c0.02-0.28,0.62-0.52,0.96-0.82c-0.17,0.18-0.33,0.35-0.5,0.53c0.71,0.46,1.42,0.92,2.35,1.52
		c0.04-0.67,0.08-1.21,0.13-1.91c-0.8-0.06-1.39-0.1-1.98-0.11c-0.45-0.62-0.99-1.19-1.33-1.87c-0.33-0.66-0.46-1.42-0.67-2.13
		c0.58,0,1.17,0,2,0c0-0.83,0-1.42-0.1-2.09c0.07,0.07,0.13,0.13,0.2,0.2c0.27-0.23,0.54-0.46,0.82-0.7
		c-0.11-0.11-0.21-0.21-0.32-0.32C172.36,177.36,172.13,177.64,172,178z M144.95,238.86c-0.5-1.01-0.93-1.88-1.74-3.5
		c0,1.83,0,2.7,0,3.64c0.65-0.05,1.08-0.09,0.69-3.09c0.07,0.07,0.13,0.13,0.2,0.2c0.27-0.23,0.54-0.46,0.82-0.7
		c-0.11-0.11-0.21-0.21-0.32-0.32C144.36,235.36,144.13,235.64,144.95,238.86z M155.62,146.75c1.49-0.33,2.83-0.77,2-3.08
		c-0.82,1.26-1.41,2.17-1.51,3.42c-0.07-0.07-0.13-0.13-0.2-0.2c-0.27,0.23-0.54,0.46-0.82,0.7c0.11,0.11,0.21,0.21,0.32,0.32
		C155.64,147.64,155.87,147.36,155.62,146.75z M152.91,238.1c0.07-0.07,0.13-0.13,0.2-0.2c-0.23-0.27-0.46-0.54-0.7-0.82
		c-0.11,0.11-0.21,0.21-0.32,0.32c0.27,0.23,0.54,0.46,0.87,0.55c0.05,0.64,0.1,1.24,0.16,2.06c0.73-0.08,1.28-0.14,1.88-0.21
		c-0.06-0.67-0.09-1.1-0.14-1.7C154.2,238.06,153.6,238.01,152.91,238.1z M135.09,164.9c-0.07,0.07-0.13,0.13-0.2,0.2
		c0.23,0.27,0.46,0.54,0.7,0.82c0.11-0.11,0.21-0.21,0.32-0.32c-0.27-0.23-0.54-0.46-0.87-0.55c-0.05-0.64-0.1-1.24-0.16-2.06
		c-0.73,0.08-1.28,0.14-1.88,0.21c0.06,0.67,0.09,1.1,0.14,1.7C133.8,164.94,134.4,164.99,135.09,164.9z M157.91,140.1
		c0.07-0.07,0.13-0.13,0.2-0.2c-0.23-0.27-0.46-0.54-0.7-0.82c-0.11,0.11-0.21,0.21-0.32,0.32c0.27,0.23,0.54,0.46,0.91,0.57
		c0,0.52,0,1.01,0,1.55c0.89,0.44,1.8,0.88,2.84,1.39c0.06-0.62,0.1-1.07,0.13-1.48C159.94,140.93,158.97,140.46,157.91,140.1z
		 M129,268c-1.44,1.63-1.44,3.37,0,5c0.49,0.98,0.98,1.97,2,4.03c0-2.14,0-3.08-0.14-4.76c0.65,1.06,1.15,1.88,1.57,2.56
		c0.68-0.77,1.43-1.61,2.22-2.5c-0.63-0.87-1.47-2.03-2.32-3.21c-0.22,0.57-0.41,1.15-0.66,1.69c-0.25,0.54-0.58,1.05-0.67,2.18
		c-0.67,0-1.33,0-2,0C129,271.33,129,269.67,129,268c0.59,0.28,1.18,0.56,1.84,0.88c0.41-1.82-0.58-2.44-1.84-2.88
		c1.32-1.75,1.15-3.71,0.76-6.15c-0.83-0.26-1.8-0.55-2.76-0.85c0.23-0.86,0.47-1.72,0.73-2.68c-0.4-0.18-1.08-0.48-1.73-0.78
		c0-0.57,0-1.05,0-1.54c1.87-0.42,0.84-1.7,0.82-2.68c-0.6-0.6-1.18-1.18-1.79-1.79c0.32-0.35,0.64-0.69,0.91-0.99
		c-0.37-0.49-0.75-0.99-1.14-1.51c0.44-0.66,0.76-1.15,1.09-1.64c-1.57-0.68-3.03-1.74-4.89-1.39c0.25-1.34,0.5-2.69,0.86-4.59
		c-1.04-1.35-2.43-3.15-3.71-4.82c0.67-1.29,1.3-2.5,2.09-4.01c-1.54-0.73-1.9-3.04-5.13-2.18c1.15-1.15,1.92-1.89,2.64-2.68
		c0.08-0.09-0.13-0.45-0.19-0.63c-0.49-0.1-0.94-0.19-1.31-0.27c-0.62-4.99-3.03-9.54-3.06-14.03c-0.18-0.65-0.36-1.29-0.54-1.94
		c-0.98,6.88,2.94,12.67,3.36,19.14c0,0.49,0,0.99,0,1.55c0.66,0.3,1.34,0.62,1.87,0.86c-0.39,2.09-0.77,4.08-0.94,5
		c0.95,2.42,1.45,3.86,2.08,5.26c0.53,1.18,0.46,2.74,1.98,3.34c-0.22,0.84-0.44,1.67-0.66,2.52c0.19,0.67,0.36,1.52,0.68,2.3
		c0.19,0.45,0.64,0.8,0.97,1.19c0,0.49,0,0.98,0,1.23c1.41,0.97,2.7,1.87,4,2.77c-0.95,0-1.9,0-3.81,0
		c2.96,3.55,1.46,7.95,4.56,10.77c0.15-0.64,0.06-1.22-0.2-1.71c-0.8-1.48-1.09-2.87,0.46-4.07c0.33,2.33,0.67,4.67,1.1,7.09
		c-0.07-0.07-0.13-0.13-0.2-0.2c-0.27,0.23-0.54,0.46-0.82,0.7c0.11,0.11,0.21,0.21,0.32,0.32c0.23-0.27,0.46-0.54,0.59-0.91
		c0.33,0,0.67,0,1,0C129,266.67,129,267.33,129,268z M151,262c0.33,0.33,0.67,0.67,1,1c-0.35,1.81-0.69,3.63-0.92,4.81
		c1.16,1.1,2.03,1.93,2.82,2.68c0.88-1.59-1.54-1.84-1.77-3.18c1.88-1.24,1-4.01,2.96-5.41c-0.07,0.07-0.13,0.13-0.2,0.2
		c0.23,0.27,0.46,0.54,0.7,0.82c0.11-0.11,0.21-0.21,0.32-0.32c-0.27-0.23-0.54-0.46-0.91-0.59c0-0.59,0-1.19,0-1.85
		c-0.71-0.06-1.14-0.1-1.48-0.12c-1.29,0.69,0.52,2.77-1.52,2.97c-0.33-0.33-0.67-0.67-2.49,1.01c0.34-0.68,0.69-1.34,0.99-2.01
		c0.11-0.25,0.11-0.56,0.16-0.84c-0.31-0.05-0.61-0.1-1.26-0.21c-0.37,0.43-0.86,1.01-1.36,1.6C148.54,263.04,149.01,263.51,151,262
		z M164.23,160.82c-2.02,0.2-3.17,0.88-3.23,2.51c0.94-0.73,1.97-1.53,2.79-2.97c0.72,0.67,1.25,1.15,2.31,2.13
		c-0.15-1.35-0.21-1.89-0.29-2.63C165.01,160.06,164.48,160.19,164.23,160.82z M183.5,178.5c-0.18,0.17-0.35,0.33-0.53,0.5
		c0.04,0.59,0.09,1.18,0.14,1.98c0.7-0.05,1.24-0.08,1.91-0.13c-0.61-0.94-1.06-1.64-2.02-1.86c0.41-0.33,0.86-0.64,1.24-1.01
		c0.3-0.29,0.51-0.66,0.49-1.06c0.89,0.08,1.51,0.13,2.1,0.18c0.15,1.45,0.29,2.68,0.35,3.28c0.59-0.25,1.37-0.59,2.26-0.97
		c-1.82-2.42-2.49-4.84-3.27-7.34c-0.48,1.61-0.96,3.22-1.17,4.92c-1.27,0-2.55-0.08-3.8,0.05c-0.43,0.04-0.8,0.62,0.89,4.36
		c-2.01-1.15-2.06-3.37-3.62-4.51c-0.42-0.31-0.37-1.21-0.75-1.64c-1.23-1.4-0.91-2.57,0.24-3.82c0.19-0.21-0.1-0.88-0.23-1.73
		c-1.16,1.29-2.07,2.3-3.01,3.35c1.07,2.14,1.69,4.35,3.08,5.84c1.2,1.29,2.17,2.38,2.2,4.15c0.02,0.83-0.09,1.68,0.07,2.47
		c0.12,0.57,0.67,1.04,0.91,1.61c0.22,0.53,0.29,1.12,0.43,1.69c0.27-0.06,0.54-0.12,0.8-0.18c-0.33-2.12-0.67-4.24-1-6.35
		c0.21-0.21,0.45-0.45-1.21-4.29C181,178.33,182,178.67,183.5,178.5z M174.58,184.85c0.68,0.77,0.88,1.14,1.02,1.12
		c0.48-0.07,0.94-0.28,1.4-0.43c-0.6-0.17-1.21-0.34,0.58,0.42c-0.23,0.02-0.45,0.04-0.68,0.05c0.12,1.34,0.24,2.69,0.37,4.15
		c0.78-0.2,1.21-0.31,1.94-0.5C178.62,188.33,178.1,187.14,174.58,184.85z M144.69,124.5c0.91,0.72,1.38,1.09,1.58,1.26
		c1.33-0.43,2.48-0.79,3.78-1.2c-0.5-0.59-0.97-1.13-1.14-1.33c-1.64,0.5-2.79,0.85-3.8,1.87c-0.07-0.07-0.13-0.13-0.2-0.2
		c-0.27,0.23-0.54,0.46-0.82,0.7c0.11,0.11,0.21,0.21,0.32,0.32C144.64,125.64,144.87,125.36,144.69,124.5z M126.71,231.4
		c1.35,0.98,2.02,2.08,3.94,3.04c-1.05-2.17-1.62-3.35-2.44-5.03c-0.66,0.88-1.06,1.4-1.38,2.56c-0.46-0.21-1.06-0.49-2.27-1.05
		c0.83,1.74,1.38,2.88,2.27,4.75C126.83,233.9,126.83,232.95,126.71,231.4z M143,186.97c-0.17,0.18-0.33,0.35-0.5,0.53
		c0.71,0.46,1.42,0.92,2.35,1.52c0.04-0.67,0.08-1.21,0.13-1.91c-0.8-0.06-1.39-0.1-1.89-0.31c-1.33-0.9-2.56-2.13-4.39-1.76
		c-0.96,0.19-1.85,0.77-2.77,1.18c0.1,0.27,0.21,0.53,0.31,0.8c0.77-0.26,1.55-0.52,2.39-0.81
		C139.7,187.69,141.48,186.75,143,186.97z M139.91,174.1c0.07-0.07,0.13-0.13,0.2-0.2c-0.23-0.27-0.46-0.54-0.7-0.82
		c-0.11,0.11-0.21,0.21-0.32,0.32c0.27,0.23,0.54,0.46-0.2,0.59c2.37,1.05,3.81,1.69,4.98,2.21c1.64-1.15,2.89-2.02,4.21-2.95
		c-0.14-0.41-0.29-0.84-0.57-1.64c-1.16,0.85-2.14,1.58-3.23,2.38C142.95,174,141.48,174,139.91,174.1z M138,169.12
		c1.23-0.68,2.41-1.34,3.61-2c1.25,1.44,2.79,0.82,4.45,0.75c-1.07-1.08-1.93-1.95-2.93-2.95c-1.63,0.82-3.38,1.71-5.12,2.59
		c0,0.51,0,1,0.1,1.59c-0.07-0.07-0.13-0.13-0.2-0.2c-0.27,0.23-0.54,0.46-0.82,0.7c0.11,0.11,0.21,0.21,0.32,0.32
		C137.64,169.64,137.87,169.36,138,169.12z M150.91,171.1c0.07-0.07,0.13-0.13,0.2-0.2c-0.23-0.27-0.46-0.54-0.7-0.82
		c-0.11,0.11-0.21,0.21-0.32,0.32c0.27,0.23,0.54,0.46,0.91,0.59c0.32,1,0.64,2,0.97,3.02c3.36-0.12,6.42,0.58,9.03-1.54
		c0-0.49,0-0.98,1.15-3.9c-0.77,0.68-1.14,0.88-1.12,1.02c0.07,0.48,0.28,0.94,0.43,1.4c0.17-0.6,0.34-1.21-0.47,0
		c-1.38,0.68-2.76,1.36-4.11,2.03c-0.71-0.42-1.38-0.8-1.96-1.14c-0.65,0.42-1.12,0.71-1.39,0.89
		C152.57,172.1,151.78,171.55,150.91,171.1z M130.78,238.54c-2.42,0.36-0.61-3.44-3.68-2.31c0.46,2.06,0.9,3.99,1.34,5.96
		c1.8,0.95,3.57,1.43,5.63,0.98c-1.64-0.87-3.29-1.73-4.99-2.63c0.27-0.32,0.56-0.66-0.18-4.63c0.07,0.07,0.13,0.13,0.2,0.2
		c0.27-0.23,0.54-0.46,0.82-0.7c-0.11-0.11-0.21-0.21-0.32-0.32C129.36,235.36,129.13,235.64,130.78,238.54z M164,221
		c0-0.6,0-1.2,0-2.09c-2.51,2.38-2.53,2.66-1.02,4.59c0.37,0.48,0.68,1,1.12,1.6c-0.07-0.07-0.13-0.13-0.2-0.2
		c-0.27,0.23-0.54,0.46-0.82,0.7c0.11,0.11,0.21,0.21,0.32,0.32c0.23-0.27,0.46-0.54,0.59-0.91c0.75,0.58,1.49,1.19,2.27,1.73
		c0.13,0.09,0.45-0.12,1.05-0.29c-0.78-1.08-1.49-2.06-2.67-3.69c0.71-0.31,1.6-0.71,2.5-1.11c-0.1-0.21-0.2-0.43-0.3-0.64
		C165.89,221,164.95,221,164,221z M113,233c0,0.33,0,0.67,0,1c-1.64,0.16-0.91,1.43-0.95,2.23c-0.02,0.47,0.82,1.3,0.71,1.41
		c-2,2.01-0.25,3.8,0.24,5.66c0.52,1.95,1.43,3.82,1.05,5.95c-0.03,0.19,0.62,0.5,1.11,0.59c0,1.77,0,3.38,0,5.09
		c0.85,0.42,1.61,0.81,2.6,1.31c0.13-0.87,0.2-1.32,0.27-1.78c-0.73-0.35-1.4-0.67-2.5-1.2c0.94-0.75,1.65-1.31,2.51-2
		c-0.58-0.1-1.08-0.08-1.46-0.29c-0.53-0.29-0.96-0.76-1.58-0.98c0-2.31,0.13-4.63-0.04-6.93c-0.17-2.35-0.58-4.69-1-7.01
		c-0.13-0.72-0.64-1.38-0.97-2.07c0.28-0.11,0.55-0.22,0.83-0.33C113.55,233.45,113.28,233.22,113,233
		c0.21-0.37,0.39-0.76,0.62-1.11c0.6-0.9,0.75-1.64-0.62-1.89c-0.63-0.87-1.26-1.74-1.87-2.58c0.3-0.36,0.61-0.72,0.99-1.18
		c-0.54-1.08-1.07-2.15-1.61-3.25c-0.51,0.51-0.98,0.98-1.44,1.45c0.35,0.48,0.71,0.96,1.02,1.38c-0.59,1.17-0.75,2.07-0.32,3.39
		c0.19,0.59-1.87,1.95,0.69,1.93C111.1,231.13,111.06,233.73,113,233z M145.32,154.21c2.57-0.77,3.11,1.11,4.68,2
		c1.2-0.35,2.72-0.69,4.14-1.27c0.45-0.18,0.64-1.01,1.48-2.45c-3.59,2.47-5.68,1.31-8.28-0.59c1.2-0.67,1.9-1.06,2.56-1.43
		c-0.5-0.53-0.94-1.01-1.28-1.38c-0.9,0.5-1.73,0.96-2.59,1.43c0.46,0.46,0.7,0.7,0.88,0.88c-0.38,0.67-0.75,1.32-0.89,2.84
		c-0.6-0.47-1.08-0.84-1.57-1.22c-0.44,0.9-0.87,1.79-1.34,2.76C144.99,156.42,145.42,155.09,145.32,154.21z M140,206
		c-0.53,0.67-1.06,1.33-1.74,2.21c-0.95,0-2.06,0-3.26,0c0.07,0.67,0.11,1.12,0.2,1.92c3.08-0.69,6.18,0.83,9.2-0.82
		c0.29-0.16,2.15-0.25,2.31,0.04c0.83,1.47,1.53-0.85,2.22,0.06c1.01,1.33,1.51-1,2.8-0.31c3.33,1.8,6.85,1.33,10.02-0.48
		c0.99-0.56,1.83-0.47,2.75-0.65c0.15-0.03,0.23-0.43,0.36-0.68c-0.62-0.53-1.21-1.03-1.72-1.47c-0.79,0.47-1.28,0.76-1.59,0.94
		c-1.18-0.59-2.21-1.12-2.61-1.32c-1.42,0.27-2.17,0.41-3.01,0.66c0.07-0.07,0.13-0.13,0.2-0.2c-0.23-0.27-0.46-0.54-0.7-0.82
		c-0.11,0.11-0.21,0.21-0.32,0.32c0.27,0.23,0.54,0.46,0.91,0.59c-0.26,0.33-0.52,0.95-0.78,0.96c-3.48,0.07-6.96,0.07-10.43,0
		c-0.27,0-0.52-0.62-1.28-1.45c0.17,0.18,0.33,0.35,0.5,0.53c0.59-0.04,1.18-0.09,1.98-0.14c-0.05-0.7-0.08-1.24-0.13-1.91
		c-0.94,0.61-1.64,1.06-1.86,2.02c-0.38,0.21-0.74,0.47-1.14,0.63c-1.08,0.43-2.25,1.15-2.97-0.72c0.07,0.07,0.13,0.13,0.2,0.2
		c0.27-0.23,0.54-0.46,0.82-0.7c-0.11-0.11-0.21-0.21-0.32-0.32C140.36,205.36,140.13,205.64,140,206z M140.45,195.95
		c3.11-1.91,3.11-1.91,4.37-4.06c-0.42-0.73-0.8-1.39-1.49-2.59c-0.26,1.8-0.4,2.71-0.52,3.58c-1.74,0.13-3.29,0.25-5.82,0.44
		C138.66,194.58,139.55,195.26,140.45,195.95z M121.89,218.46c0.6,2.29,1.03,3.94,1.46,5.58c1.06-0.06,1.84-0.1,2.57-0.15
		c0.04-0.66,0.06-0.99,0.08-1.4c-0.65-0.31-1.33-0.63-1.82-0.86c0.29-0.83,0.57-1.61,1.16-3.26c-1.13,0.96-1.47,1.25-1.84,1.57
		C123.19,219.65,122.84,219.33,121.89,218.46z M114.84,189.83c0-2.21,0-4.42,0-6.73c-0.59,0-1.03,0-1.55,0
		C112.13,185.59,114.2,187.57,114.84,189.83z M150.02,246.75c-1.29-1.56-2.52-3.04-3.89-4.7c0,0.97,0,1.75,0,2.36
		c1.24,1.52,2.41,2.97,3.77,4.63C149.95,248.18,149.99,247.41,150.02,246.75z M188.33,170.83c0.49-1.92,1.03-3.85,0.25-6.03
		c-0.58,1.12-1,1.94-1.29,2.49C187.66,168.54,187.99,169.69,188.33,170.83z M151.56,167.54c1.62,0.11,3.42-0.55,3.45-1.9
		c-0.22-0.18-0.63-0.5-1.28-1.03C152.85,165.8,152.09,166.82,151.56,167.54z M179.37,264.86c0.44-1.7,1.03-3.37,0.1-5.07
		c-0.68,0.29-1.09,0.47-1.51,0.65C178.45,261.98,178.91,263.42,179.37,264.86z M164.41,163c-0.36,1.21-0.74,2.44-1.1,3.67
		c0.34,0.41,0.75,0.89,1.55,1.83c0.06-1.41,0.01-2.34,0.17-3.24c0.13-0.73,0.51-1.42,0.83-2.26C165.15,163,164.82,163,164.41,163z
		 M123.01,152.95c-1.44,0.1-2.67,0.18-3.74,0.25c0.92,1.07,1.62,1.88,2.3,2.67C121.95,155.11,122.39,154.22,123.01,152.95z
		 M155.47,149.77c-1.13-0.9-1.84-1.46-2.77-2.2c-0.65,0.82-1.12,1.42-1.74,2.2C152.25,149.77,153.45,149.77,155.47,149.77z
		 M172.5,165.12c-0.43-1.12-0.65-1.69-0.89-2.32c-0.65,1.51-1.13,2.59-1.58,3.69c-0.02,0.06,0.2,0.22,0.38,0.42c0.36,0,0.8,0,1.17,0
		C172.03,166.05,172.43,165.25,172.5,165.12z M172.33,157.69c-0.16,0.82-0.27,1.38-0.42,2.14c1.12,0,2,0,3.11,0
		c-0.1-0.71-0.17-1.26-0.28-2.01c-0.56,0.52-0.9,0.83-1.31,1.21C173.16,158.68,172.85,158.31,172.33,157.69z M187.44,158.25
		c-1.44,0-2.43,0-3.71,0c0.32,0.82,0.52,1.33,0.87,2.24C185.62,159.69,186.33,159.12,187.44,158.25z M131.84,152.19
		c-0.16-0.01-0.33-0.02-0.49-0.03c-0.33,1-0.77,1.98-0.98,3c-0.3,1.48,0.76,0.65,1.47,0.75
		C131.84,154.62,131.84,153.4,131.84,152.19z M155.79,242.4c-0.43-0.48-0.85-0.95-1.56-1.74c0,1.68,0,3,0,4.86
		C154.89,244.2,155.29,243.41,155.79,242.4z M126.64,190.08c0.41,1,0.62,1.51,0.78,1.9c1.63,0.1,2.03-0.76,2.24-1.9
		C128.88,190.08,128.11,190.08,126.64,190.08z M121.46,218.22c0.4-2.51,0.4-2.51-1.82-4.29
		C120.38,215.66,120.88,216.85,121.46,218.22z M155.89,151.92c0.17,1.21,0.3,2.08,0.52,3.61c0.86-1.4,1.32-2.16,1.98-3.23
		C157.44,152.15,156.89,152.07,155.89,151.92z M167.08,161.04c2.17-0.1,2.82-1.09,2.94-2.93
		C168.99,159.14,168.15,159.98,167.08,161.04z M152.26,256c0,0.67,0,1.33,0,2.12c0.72-0.15,1.17-0.24,1.82-0.37
		c-0.14-0.7-0.26-1.25-0.37-1.75C153.15,256,152.83,256,152.26,256z M129.9,202.1c0.68,1.16,1.16,1.99,1.93,3.31
		c0-1.46,0-2.34,0-3.31C131.25,202.1,130.81,202.1,129.9,202.1z M116.13,186.08c1-0.14,1.87-0.27,3.36-0.48
		c-1.56-0.64-2.45-1-3.45-1.41C116.07,184.82,116.09,185.26,116.13,186.08z M131.62,170.83c1.42,0,2.3,0,3.42,0
		c-0.11-0.72-0.19-1.27-0.28-1.85C133.74,169.58,132.91,170.06,131.62,170.83z M105.15,193.59c-0.22-0.22-0.44-0.44-0.66-0.66
		c-0.45,0.09-0.89,0.17-1.55,0.3c0.13,0.69,0.23,1.25,0.47,2.5C104.25,194.7,104.7,194.15,105.15,193.59z M134.53,190.71
		c-1.14,2.66,0.06,2.35,1.33,2.13C135.4,192.1,135.02,191.48,134.53,190.71z M124.16,155.17c0.03,0.3,0.06,0.59,0.09,0.89
		c0.87-0.13,1.75-0.25,2.62-0.38c-0.02-0.17-0.04-0.34-0.05-0.51C125.93,155.17,125.04,155.17,124.16,155.17z M168.75,195.46
		c0-0.12,0-0.79,0-1.55c-0.69,0.12-1.13,0.2-1.32,0.23C167.88,194.59,168.39,195.1,168.75,195.46z M160.39,214.48
		c-0.19,2.43-0.19,2.43,1.32,2.11C161.4,216.1,161.02,215.48,160.39,214.48z M134.17,225.81c0.29-0.01,0.59-0.01,0.88-0.02
		c-0.12-0.89-0.24-1.78-0.36-2.68c-0.17,0.01-0.35,0.03-0.52,0.04C134.17,224.04,134.17,224.93,134.17,225.81z M109.17,238.84
		c0.3-0.03,0.59-0.06,0.89-0.09c-0.13-0.87-0.25-1.75-0.38-2.62c-0.17,0.02-0.34,0.04-0.51,0.05
		C109.17,237.07,109.17,237.96,109.17,238.84z M131.75,236c-0.17,0-0.33,0-0.5,0c0,1,0,2,0,3c0.17,0,0.33,0,0.5,0
		C131.75,238,131.75,237,131.75,236z M125.84,162.83c-0.03-0.3-0.06-0.59-0.09-0.89c-0.87,0.13-1.75,0.25-2.62,0.38
		c0.02,0.17,0.04,0.34,0.05,0.51C124.07,162.83,124.96,162.83,125.84,162.83z M129.17,162.16c0.02,0.3,0.04,0.6,0.05,0.89
		c0.88-0.12,1.77-0.25,2.65-0.37c-0.02-0.17-0.03-0.35-0.05-0.52C130.94,162.16,130.06,162.16,129.17,162.16z M145.14,242.92
		c-0.16-0.87-0.24-1.31-0.36-1.94c-0.53,0.8-0.93,1.41-1.28,1.94C143.79,242.92,144.22,242.92,145.14,242.92z M133.25,149.54
		c0,0.12,0,0.79,0,1.55c0.69-0.12,1.13-0.2,1.32-0.23C134.12,150.41,133.61,149.9,133.25,149.54z M136.37,148.22
		c-0.16,2.71-0.16,2.71,0.88,2.46C137.13,150.35,136.87,149.62,136.37,148.22z M169.29,153.53c-2.66-1.14-2.35,0.06-2.13,1.33
		C167.9,154.4,168.52,154.02,169.29,153.53z M157.16,166.17c0.04,0.29,0.07,0.58,0.11,0.86c0.54-0.13,1.08-0.26,1.63-0.39
		c-0.03-0.16-0.05-0.32-0.08-0.48C158.26,166.17,157.71,166.17,157.16,166.17z M130,183.25c0,0.17,0,0.33,0,0.5c0.67,0,1.33,0,2,0
		c0-0.17,0-0.33,0-0.5C131.33,183.25,130.67,183.25,130,183.25z M179.17,151.84c0.29-0.04,0.58-0.07,0.86-0.11
		c-0.13-0.54-0.26-1.08-0.39-1.63c-0.16,0.03-0.32,0.05-0.48,0.08C179.17,150.74,179.17,151.29,179.17,151.84z M135.17,228.84
		c0.29-0.04,0.58-0.07,0.86-0.11c-0.13-0.54-0.26-1.08-0.39-1.63c-0.16,0.03-0.32,0.05-0.48,0.08
		C135.17,227.74,135.17,228.29,135.17,228.84z M149.17,117.82c0.29-0.02,0.57-0.04,0.86-0.06c-0.12-0.56-0.24-1.11-0.36-1.67
		c-0.16,0.02-0.33,0.04-0.49,0.07C149.17,116.71,149.17,117.26,149.17,117.82z M167.16,167.17c0.04,0.29,0.07,0.58,0.11,0.86
		c0.54-0.13,1.08-0.26,1.63-0.39c-0.03-0.16-0.05-0.32-0.08-0.48C168.26,167.17,167.71,167.17,167.16,167.17z M139.17,228.82
		c0.29-0.01,0.57-0.03,0.86-0.04c-0.12-0.56-0.25-1.12-0.37-1.69c-0.16,0.02-0.33,0.05-0.49,0.07
		C139.17,227.71,139.17,228.26,139.17,228.82z M109.75,217c-0.17,0-0.33,0-0.5,0c0,0.67,0,1.33,0,2c0.17,0,0.33,0,0.5,0
		C109.75,218.33,109.75,217.67,109.75,217z M177.82,157.83c-0.02-0.29-0.04-0.57-0.06-0.86c-0.56,0.12-1.11,0.24-1.67,0.36
		c0.02,0.16,0.04,0.33,0.07,0.49C176.71,157.83,177.26,157.83,177.82,157.83z M121.83,234.18c-0.29,0.01-0.57,0.03-0.86,0.04
		c0.12,0.56,0.25,1.12,0.37,1.69c0.16-0.02,0.33-0.05,0.49-0.07C121.83,235.29,121.83,234.74,121.83,234.18z M176,213.75
		c0-0.17,0-0.33,0-0.5c-0.67,0-1.33,0-2,0c0,0.17,0,0.33,0,0.5C174.67,213.75,175.33,213.75,176,213.75z M178.16,159.17
		c0.04,0.29,0.07,0.58,0.11,0.86c0.54-0.13,1.08-0.26,1.63-0.39c-0.03-0.16-0.05-0.32-0.08-0.48
		C179.26,159.17,178.71,159.17,178.16,159.17z M138.16,214.17c0.04,0.29,0.07,0.58,0.11,0.86c0.54-0.13,1.08-0.26,1.63-0.39
		c-0.03-0.16-0.05-0.32-0.08-0.48C139.26,214.17,138.71,214.17,138.16,214.17z M142.25,163c0.17,0,0.33,0,0.5,0c0-0.67,0-1.33,0-2
		c-0.17,0-0.33,0-0.5,0C142.25,161.67,142.25,162.33,142.25,163z M122,162.75c0-0.17,0-0.33,0-0.5c-0.67,0-1.33,0-2,0
		c0,0.17,0,0.33,0,0.5C120.67,162.75,121.33,162.75,122,162.75z M157,148.25c0,0.17,0,0.33,0,0.5c0.67,0,1.33,0,2,0
		c0-0.17,0-0.33,0-0.5C158.33,148.25,157.67,148.25,157,148.25z M111.17,207.84c0.29-0.04,0.58-0.07,0.86-0.11
		c-0.13-0.54-0.26-1.08-0.39-1.63c-0.16,0.03-0.32,0.05-0.48,0.08C111.17,206.74,111.17,207.29,111.17,207.84z M133.75,220
		c-0.17,0-0.33,0-0.5,0c0,0.67,0,1.33,0,2c0.17,0,0.33,0,0.5,0C133.75,221.33,133.75,220.67,133.75,220z M152.16,205.17
		c0.04,0.29,0.07,0.58,0.11,0.86c0.54-0.13,1.08-0.26,1.63-0.39c-0.03-0.16-0.05-0.32-0.08-0.48
		C153.26,205.17,152.71,205.17,152.16,205.17z M151.75,252c-0.17,0-0.33,0-0.5,0c0,0.67,0,1.33,0,2c0.17,0,0.33,0,0.5,0
		C151.75,253.33,151.75,252.67,151.75,252z M156.16,200.17c0.04,0.29,0.07,0.58,0.11,0.86c0.54-0.13,1.08-0.26,1.63-0.39
		c-0.03-0.16-0.05-0.32-0.08-0.48C157.26,200.17,156.71,200.17,156.16,200.17z M110.82,199.83c-0.02-0.29-0.04-0.57-0.06-0.86
		c-0.56,0.12-1.11,0.24-1.67,0.36c0.02,0.16,0.04,0.33,0.07,0.49C109.71,199.83,110.26,199.83,110.82,199.83z M121.83,259.18
		c-0.29,0.01-0.57,0.03-0.86,0.04c0.12,0.56,0.25,1.12,0.37,1.69c0.16-0.02,0.33-0.05,0.49-0.07
		C121.83,260.29,121.83,259.74,121.83,259.18z M174.18,261.17c0.02,0.29,0.04,0.57,0.06,0.86c0.56-0.12,1.11-0.24,1.67-0.36
		c-0.02-0.16-0.04-0.33-0.07-0.49C175.29,261.17,174.74,261.17,174.18,261.17z M177.83,222.16c-0.29,0.04-0.58,0.07-0.86,0.11
		c0.13,0.54,0.26,1.08,0.39,1.63c0.16-0.03,0.32-0.05,0.48-0.08C177.83,223.26,177.83,222.71,177.83,222.16z M176,177.75
		c0-0.17,0-0.33,0-0.5c-0.67,0-1.33,0-2,0c0,0.17,0,0.33,0,0.5C174.67,177.75,175.33,177.75,176,177.75z M121.25,179
		c0.17,0,0.33,0,0.5,0c0-0.67,0-1.33,0-2c-0.17,0-0.33,0-0.5,0C121.25,177.67,121.25,178.33,121.25,179z M125.83,225.18
		c-0.29,0.01-0.57,0.03-0.86,0.04c0.12,0.56,0.25,1.12,0.37,1.69c0.16-0.02,0.33-0.05,0.49-0.07
		C125.83,226.29,125.83,225.74,125.83,225.18z M160.67,167c-0.11,0-0.22,0-0.33,0c0,0.33,0,0.67,0,1c0.11,0,0.22,0,0.33,0
		C160.67,167.67,160.67,167.33,160.67,167z M107.67,168c-0.11,0-0.22,0-0.33,0c0,0.33,0,0.67,0,1c0.11,0,0.22,0,0.33,0
		C107.67,168.67,107.67,168.33,107.67,168z M105,170.33c0,0.11,0,0.22,0,0.33c0.33,0,0.67,0,1,0c0-0.11,0-0.22,0-0.33
		C105.67,170.33,105.33,170.33,105,170.33z M137,172.33c0,0.11,0,0.22,0,0.33c0.33,0,0.67,0,1,0c0-0.11,0-0.22,0-0.33
		C137.67,172.33,137.33,172.33,137,172.33z M169,225.33c0,0.11,0,0.22,0,0.33c0.33,0,0.67,0,1,0c0-0.11,0-0.22,0-0.33
		C169.67,225.33,169.33,225.33,169,225.33z M174.33,227c0.11,0,0.22,0,0.33,0c0-0.33,0-0.67,0-1c-0.11,0-0.22,0-0.33,0
		C174.33,226.33,174.33,226.67,174.33,227z M152.33,228c0.11,0,0.22,0,0.33,0c0-0.33,0-0.67,0-1c-0.11,0-0.22,0-0.33,0
		C152.33,227.33,152.33,227.67,152.33,228z M124,228.33c0,0.11,0,0.22,0,0.33c0.33,0,0.67,0,1,0c0-0.11,0-0.22,0-0.33
		C124.67,228.33,124.33,228.33,124,228.33z M140.67,230c-0.11,0-0.22,0-0.33,0c0,0.33,0,0.67,0,1c0.11,0,0.22,0,0.33,0
		C140.67,230.67,140.67,230.33,140.67,230z M152,230.33c0,0.11,0,0.22,0,0.33c0.33,0,0.67,0,1,0c0-0.11,0-0.22,0-0.33
		C152.67,230.33,152.33,230.33,152,230.33z M143,232.67c0-0.11,0-0.22,0-0.33c-0.33,0-0.67,0-1,0c0,0.11,0,0.22,0,0.33
		C142.33,232.67,142.67,232.67,143,232.67z M114,195.33c0,0.11,0,0.22,0,0.33c0.33,0,0.67,0,1,0c0-0.11,0-0.22,0-0.33
		C114.67,195.33,114.33,195.33,114,195.33z M153,233.67c0-0.11,0-0.22,0-0.33c-0.33,0-0.67,0-1,0c0,0.11,0,0.22,0,0.33
		C152.33,233.67,152.67,233.67,153,233.67z M172,233.67c0-0.11,0-0.22,0-0.33c-0.33,0-0.67,0-1,0c0,0.11,0,0.22,0,0.33
		C171.33,233.67,171.67,233.67,172,233.67z M139.67,234c-0.11,0-0.22,0-0.33,0c0,0.33,0,0.67,0,1c0.11,0,0.22,0,0.33,0
		C139.67,234.67,139.67,234.33,139.67,234z M157,235.67c0-0.11,0-0.22,0-0.33c-0.33,0-0.67,0-1,0c0,0.11,0,0.22,0,0.33
		C156.33,235.67,156.67,235.67,157,235.67z M116.33,220c0.11,0,0.22,0,0.33,0c0-0.33,0-0.67,0-1c-0.11,0-0.22,0-0.33,0
		C116.33,219.33,116.33,219.67,116.33,220z M128.67,212c-0.11,0-0.22,0-0.33,0c0,0.33,0,0.67,0,1c0.11,0,0.22,0,0.33,0
		C128.67,212.67,128.67,212.33,128.67,212z M179.67,238c-0.11,0-0.22,0-0.33,0c0,0.33,0,0.67,0,1c0.11,0,0.22,0,0.33,0
		C179.67,238.67,179.67,238.33,179.67,238z M156.67,239c-0.11,0-0.22,0-0.33,0c0,0.33,0,0.67,0,1c0.11,0,0.22,0,0.33,0
		C156.67,239.67,156.67,239.33,156.67,239z M109.33,221c0.11,0,0.22,0,0.33,0c0-0.33,0-0.67,0-1c-0.11,0-0.22,0-0.33,0
		C109.33,220.33,109.33,220.67,109.33,221z M176.67,211c-0.11,0-0.22,0-0.33,0c0,0.33,0,0.67,0,1c0.11,0,0.22,0,0.33,0
		C176.67,211.67,176.67,211.33,176.67,211z M172,211.67c0-0.11,0-0.22,0-0.33c-0.33,0-0.67,0-1,0c0,0.11,0,0.22,0,0.33
		C171.33,211.67,171.67,211.67,172,211.67z M140.33,212c0.11,0,0.22,0,0.33,0c0-0.33,0-0.67,0-1c-0.11,0-0.22,0-0.33,0
		C140.33,211.33,140.33,211.67,140.33,212z M123.33,243c0.11,0,0.22,0,0.33,0c0-0.33,0-0.67,0-1c-0.11,0-0.22,0-0.33,0
		C123.33,242.33,123.33,242.67,123.33,243z M160.67,245c-0.11,0-0.22,0-0.33,0c0,0.33,0,0.67,0,1c0.11,0,0.22,0,0.33,0
		C160.67,245.67,160.67,245.33,160.67,245z M136,74.33c0,0.11,0,0.22,0,0.33c0.33,0,0.67,0,1,0c0-0.11,0-0.22,0-0.33
		C136.67,74.33,136.33,74.33,136,74.33z M144.67,248c-0.11,0-0.22,0-0.33,0c0,0.33,0,0.67,0,1c0.11,0,0.22,0,0.33,0
		C144.67,248.67,144.67,248.33,144.67,248z M148.67,121c-0.11,0-0.22,0-0.33,0c0,0.33,0,0.67,0,1c0.11,0,0.22,0,0.33,0
		C148.67,121.67,148.67,121.33,148.67,121z M148.67,250c-0.11,0-0.22,0-0.33,0c0,0.33,0,0.67,0,1c0.11,0,0.22,0,0.33,0
		C148.67,250.67,148.67,250.33,148.67,250z M158.33,251c0.11,0,0.22,0,0.33,0c0-0.33,0-0.67,0-1c-0.11,0-0.22,0-0.33,0
		C158.33,250.33,158.33,250.67,158.33,251z M139.67,129c-0.11,0-0.22,0-0.33,0c0,0.33,0,0.67,0,1c0.11,0,0.22,0,0.33,0
		C139.67,129.67,139.67,129.33,139.67,129z M144.67,130c-0.11,0-0.22,0-0.33,0c0,0.33,0,0.67,0,1c0.11,0,0.22,0,0.33,0
		C144.67,130.67,144.67,130.33,144.67,130z M109,202.67c0-0.11,0-0.22,0-0.33c-0.33,0-0.67,0-1,0c0,0.11,0,0.22,0,0.33
		C108.33,202.67,108.67,202.67,109,202.67z M139,132.33c0,0.11,0,0.22,0,0.33c0.33,0,0.67,0,1,0c0-0.11,0-0.22,0-0.33
		C139.67,132.33,139.33,132.33,139,132.33z M120,199.33c0,0.11,0,0.22,0,0.33c0.33,0,0.67,0,1,0c0-0.11,0-0.22,0-0.33
		C120.67,199.33,120.33,199.33,120,199.33z M143,133.33c0,0.11,0,0.22,0,0.33c0.33,0,0.67,0,1,0c0-0.11,0-0.22,0-0.33
		C143.67,133.33,143.33,133.33,143,133.33z M154.33,143c0.11,0,0.22,0,0.33,0c0-0.33,0-0.67,0-1c-0.11,0-0.22,0-0.33,0
		C154.33,142.33,154.33,142.67,154.33,143z M155.33,198c0.11,0,0.22,0,0.33,0c0-0.33,0-0.67,0-1c-0.11,0-0.22,0-0.33,0
		C155.33,197.33,155.33,197.67,155.33,198z M143,197.67c0-0.11,0-0.22,0-0.33c-0.33,0-0.67,0-1,0c0,0.11,0,0.22,0,0.33
		C142.33,197.67,142.67,197.67,143,197.67z M164,143.67c0-0.11,0-0.22,0-0.33c-0.33,0-0.67,0-1,0c0,0.11,0,0.22,0,0.33
		C163.33,143.67,163.67,143.67,164,143.67z M118,197.33c0,0.11,0,0.22,0,0.33c0.33,0,0.67,0,1,0c0-0.11,0-0.22,0-0.33
		C118.67,197.33,118.33,197.33,118,197.33z M117.67,148c-0.11,0-0.22,0-0.33,0c0,0.33,0,0.67,0,1c0.11,0,0.22,0,0.33,0
		C117.67,148.67,117.67,148.33,117.67,148z M101,188.67c0-0.11,0-0.22,0-0.33c-0.33,0-0.67,0-1,0c0,0.11,0,0.22,0,0.33
		C100.33,188.67,100.67,188.67,101,188.67z M139.67,148c-0.11,0-0.22,0-0.33,0c0,0.33,0,0.67,0,1c0.11,0,0.22,0,0.33,0
		C139.67,148.67,139.67,148.33,139.67,148z M166.33,150c0.11,0,0.22,0,0.33,0c0-0.33,0-0.67,0-1c-0.11,0-0.22,0-0.33,0
		C166.33,149.33,166.33,149.67,166.33,150z M161.33,265c0.11,0,0.22,0,0.33,0c0-0.33,0-0.67,0-1c-0.11,0-0.22,0-0.33,0
		C161.33,264.33,161.33,264.67,161.33,265z M174.67,149c-0.11,0-0.22,0-0.33,0c0,0.33,0,0.67,0,1c0.11,0,0.22,0,0.33,0
		C174.67,149.67,174.67,149.33,174.67,149z M164.33,154c0.11,0,0.22,0,0.33,0c0-0.33,0-0.67,0-1c-0.11,0-0.22,0-0.33,0
		C164.33,153.33,164.33,153.67,164.33,154z M139,154.67c0-0.11,0-0.22,0-0.33c-0.33,0-0.67,0-1,0c0,0.11,0,0.22,0,0.33
		C138.33,154.67,138.67,154.67,139,154.67z M121,183.67c0-0.11,0-0.22,0-0.33c-0.33,0-0.67,0-1,0c0,0.11,0,0.22,0,0.33
		C120.33,183.67,120.67,183.67,121,183.67z M124,180.67c0-0.11,0-0.22,0-0.33c-0.33,0-0.67,0-1,0c0,0.11,0,0.22,0,0.33
		C123.33,180.67,123.67,180.67,124,180.67z M113,178.67c0-0.11,0-0.22,0-0.33c-0.33,0-0.67,0-1,0c0,0.11,0,0.22,0,0.33
		C112.33,178.67,112.67,178.67,113,178.67z M139.67,224c-0.11,0-0.22,0-0.33,0c0,0.33,0,0.67,0,1c0.11,0,0.22,0,0.33,0
		C139.67,224.67,139.67,224.33,139.67,224z M175.67,155c-0.11,0-0.22,0-0.33,0c0,0.33,0,0.67,0,1c0.11,0,0.22,0,0.33,0
		C175.67,155.67,175.67,155.33,175.67,155z M167,157.67c0-0.11,0-0.22,0-0.33c-0.33,0-0.67,0-1,0c0,0.11,0,0.22,0,0.33
		C166.33,157.67,166.67,157.67,167,157.67z M165,272.67c0-0.11,0-0.22,0-0.33c-0.33,0-0.67,0-1,0c0,0.11,0,0.22,0,0.33
		C164.33,272.67,164.67,272.67,165,272.67z M112.33,159c0.11,0,0.22,0,0.33,0c0-0.33,0-0.67,0-1c-0.11,0-0.22,0-0.33,0
		C112.33,158.33,112.33,158.67,112.33,159z M123,225.33c0,0.11,0,0.22,0,0.33c0.33,0,0.67,0,1,0c0-0.11,0-0.22,0-0.33
		C123.67,225.33,123.33,225.33,123,225.33z M128.67,159c-0.11,0-0.22,0-0.33,0c0,0.33,0,0.67,0,1c0.11,0,0.22,0,0.33,0
		C128.67,159.67,128.67,159.33,128.67,159z M118.67,161c-0.11,0-0.22,0-0.33,0c0,0.33,0,0.67,0,1c0.11,0,0.22,0,0.33,0
		C118.67,161.67,118.67,161.33,118.67,161z M117.33,177c0.11,0,0.22,0,0.33,0c0-0.33,0-0.67,0-1c-0.11,0-0.22,0-0.33,0
		C117.33,176.33,117.33,176.67,117.33,177z"/>
	<path class="st0" d="M140,257c0.11,0.61,0.18,1.23,0.34,1.82c0.19,0.73,0.44,1.45,0.72,2.22c-0.01-0.02-0.08-0.08-0.14-0.15
		c-0.27,0.23-0.54,0.46-0.82,0.7c0.11,0.11,0.21,0.21,0.32,0.32c0.23-0.27,0.46-0.54,0.64-0.86c1.87,0.42,0.57,1.97,0.95,2.95
		c-0.41,0.32-0.83,0.64-1.42,1.11c2,1.28,3.64,2.33,5.28,3.38c-0.28,0.4-0.62,0.88-1.14,1.63c0.67,0.71,1.3,1.39,2.29,2.45
		c-0.02,1.24-0.2,3.03,0.99,4.43c-2.33,0-4.67,0-7,0c0.63-0.86,1.26-1.73,1.83-2.5c-0.55-0.45-1.19-0.98-1.83-1.5
		c0.5,0,0.99,0,1.92,0c-0.19-0.87-0.36-1.66-0.59-2.71c0.11-0.16,0.43-0.65,0.75-1.14c-0.43-1.44-1.19-2.28-2.97-2.11
		c0.39,0.91,0.7,1.63,1.27,2.95c-1.27-0.52-2.02-0.83-3.01-1.24c-0.31-0.63-0.76-1.53-1.21-2.44c0.64-0.23,1.21-0.43,1.84-0.66
		c-0.05-0.52-0.09-0.97-0.14-1.4c-0.98,0.23-1.86,0.44-2.84,0.68c-0.13-2.49,1.66-2.74,3.11-3.32c-0.67-0.67-1.14-1.14-1.57-1.57
		c-0.49,0.38-0.98,0.75-1.81,1.39c-1.06-2.1-2-3.94-3-5.94c0.8-0.27,1.37-0.47,2.27-0.78c0-0.83,0-1.77,0-2.72
		c1.44,0,2.98-0.27,3.76,1.27C139.63,254.44,137.87,256.33,140,257z M136.16,257.17c0.04,0.29,0.07,0.58,0.11,0.86
		c0.54-0.13,1.08-0.26,1.63-0.39c-0.03-0.16-0.05-0.32-0.08-0.48C137.26,257.17,136.71,257.17,136.16,257.17z"/>
	<path class="st0" d="M121,277c-1.66-1.69,0.17-3.95-0.96-5.78c-0.29-0.46-0.04-1.26-0.04-1.99c-0.61-0.12-1.06-0.22-1.96-0.4
		c0.37-2.01,0.75-4.09,1.12-6.15c-2.19-1.21-3.41-2.79-3.11-5.35c0.42-0.13,0.86-0.27,1.5-0.46c0.72,1.39,0.57,3.05,1.88,4.28
		c0.77,0.73,3.38,0.3,2.39,2.75c-0.59-0.28-1.05-0.5-1.63-0.78c-0.07,0.54-0.13,0.99-0.21,1.52c0.63,0.22,1.21,0.43,1.97,0.7
		c0,1.39,0,2.84,0,4.29c0.73,0.27,1.31,0.49,2.23,0.84c-0.85,0.38-1.45,0.65-2.63,1.18c1.6,0.69,2.8,1.21,4.46,1.92
		c0,0.87,0,2.15,0,3.44c-1,0-2,0-3,0c-0.1-0.97-0.19-1.93-0.29-2.9c-0.24,0.02-0.47,0.05-0.71,0.07c0,0.94,0,1.88,0,2.83
		C121.67,277,121.33,277,121,277z"/>
	<path d="M110,277c0-0.61,0-1.22,0-2.27c0.74,0.59,1.07,0.86,1.67,1.34c0.68-2.26,0.07-4.47,0.41-6.49c-0.69-0.69-1.27-1.27-1.9-1.9
		c0.26-0.62,0.85-1.31,0.76-1.9c-0.36-2.28-0.92-4.53-1.45-6.79c-0.4-1.73-1.45-3.51,0.5-5c0,1.15,0,2.3,0,3.45
		c0.86,1.1,1.89,1.9,2.18,3.58c0.2,1.19-0.25,2.27-0.03,3.11c0.3,1.17,1.02,2.24,0.87,3.57c-0.06,0.53,1.71,5.82,1.98,6.28
		c0,1,0,2,0,3C113.33,277,111.67,277,110,277z"/>
	<path class="st0" d="M168,265c0-0.33,0-0.67,0-1c0.98,0.3,1.96,0.61,2.83,0.88c0.43,2.99,0.8,5.56,1.17,8.12
		c-0.33,0.33-0.67,0.67-1,1c-1.93,0.47-0.62,2.02-1,3c-0.33,0-0.67,0-1,0c0.12-1.45-0.05-2.82-1-4c0.58,0,1.17,0,2,0
		c0-0.83,0-1.42,0-2c0.28-0.11,0.55-0.22,0.83-0.33c-0.28-0.22-0.55-0.45-0.83-0.67c0.62-1.22-1.62-2.36-0.01-3.67
		C169.31,265.88,168.65,265.44,168,265z"/>
	<path class="st0" d="M172,273c0.6,0,1.19,0,2,0c0,1.52,0,2.76,0,4c-1,0-2,0-3,0c0-1,0-2,0-3C171.33,273.67,171.67,273.33,172,273z"
		/>
	<path class="st0" d="M159,277c0.66-0.76,1.31-1.51,2.51-2.89c0.26,1.51,0.37,2.2,0.49,2.89C161,277,160,277,159,277z"/>
	<ellipse class="st0" cx="115.5" cy="275.5" rx="0.71" ry="2.12"/>
	<path d="M122,277c0-0.94,0-1.88,0-2.83c0.24-0.02,0.47-0.05,0.71-0.07c0.1,0.97,0.19,1.93,0.29,2.9C122.67,277,122.33,277,122,277z
		"/>
	<path d="M171,274c0,1,0,2,0,3c-0.33,0-0.67,0-1,0C170.38,276.02,169.07,274.47,171,274z"/>
	<path class="st0" d="M134,277c0.41-0.33,0.83-0.67,1.24-1c0.25,0.33,0.5,0.67,0.76,1C135.33,277,134.67,277,134,277z"/>
	<path d="M136.28,49.75c-0.93,0.15-1.24,0.2-1.74,0.29c-2.17-3.74-1.38-7.83-1-11.92c0.49,1.8,1.03,3.59,1.45,5.41
		C135.44,45.49,134.02,47.78,136.28,49.75z"/>
	<path d="M136.55,58.17c0.32,3.24,2.25,6.29,1.01,9.67C137.02,64.64,135.12,61.62,136.55,58.17z"/>
	<path d="M150.53,67.25c-0.25,0.54-0.57,1.22-1.18,2.56c-0.25-1.42-0.32-1.86-0.44-2.56C149.67,67.25,150.34,67.25,150.53,67.25z"/>
	<path d="M182.12,249.85c0-0.76,0-1.68,0-2.81C183.05,248.69,183.05,248.69,182.12,249.85z"/>
	<path d="M135.17,56.82c0-0.55,0-1.11,0-1.66c0.16-0.02,0.33-0.04,0.49-0.07c0.12,0.56,0.24,1.11,0.36,1.67
		C135.74,56.78,135.46,56.8,135.17,56.82z"/>
	<path d="M149.83,64.16c0,0.55,0,1.1,0,1.66c-0.16,0.03-0.32,0.05-0.48,0.08c-0.13-0.54-0.26-1.08-0.39-1.63
		C149.25,64.23,149.54,64.19,149.83,64.16z"/>
	<path d="M156.83,74.16c0,0.55,0,1.1,0,1.66c-0.16,0.03-0.32,0.05-0.48,0.08c-0.13-0.54-0.26-1.08-0.39-1.63
		C156.25,74.23,156.54,74.19,156.83,74.16z"/>
	<path d="M181,231c-0.15,0.76,0.5,1.91-1,2c0-0.67,0-1.33,0-2C180.33,231,180.67,231,181,231z"/>
	<path d="M184,227c0.28,0.22,0.55,0.45,0.83,0.67c-0.28,0.11-0.55,0.22-0.83,0.33C184,227.67,184,227.33,184,227z"/>
	<path d="M184,230c0.28,0.22,0.55,0.45,0.83,0.67c-0.28,0.11-0.55,0.22-0.83,0.33C184,230.67,184,230.33,184,230z"/>
	<path d="M180,233c0,0.33,0,0.67,0,1c-0.28-0.11-0.55-0.22-0.83-0.33C179.45,233.45,179.72,233.22,180,233z"/>
	<path d="M184.09,213.9c0.27,0.23,0.54,0.46,0.82,0.7c-0.11,0.11-0.21,0.21-0.32,0.32c-0.23-0.27-0.46-0.54-0.7-0.82
		C183.96,214.03,184.03,213.96,184.09,213.9z"/>
	<ellipse cx="131.5" cy="29.5" rx="0.24" ry="0.71"/>
	<ellipse cx="150.5" cy="74.5" rx="0.24" ry="0.71"/>
	<path d="M138,115c0.33-0.33,0.67-0.67,1-1C138.67,114.33,138.33,114.67,138,115z"/>
	<ellipse cx="188.5" cy="193.5" rx="0.71" ry="0.24"/>
	<ellipse cx="194.5" cy="187.5" rx="0.24" ry="0.71"/>
	<ellipse cx="189.5" cy="184.5" rx="0.24" ry="0.71"/>
	<ellipse cx="109.5" cy="273.5" rx="0.71" ry="0.24"/>
	<path class="st0" d="M140,206c0.61,1.77,1.78,1.05,2.86,0.63c0.4-0.16,0.76-0.41,1.14-0.63c0.26,0.33,0.52,0.95,0.78,0.96
		c3.48,0.07,6.96,0.07,10.43,0c0.27-0.01,0.52-0.62,0.78-0.96c0.75-0.14,1.5-0.29,2.92-0.56c0.4,0.2,1.43,0.72,2.61,1.32
		c0.31-0.18,0.8-0.48,1.59-0.94c0.51,0.44,1.1,0.94,1.72,1.47c-0.13,0.25-0.21,0.65-0.36,0.68c-0.92,0.18-1.76,0.09-2.75,0.65
		c-3.17,1.81-6.7,2.28-10.02,0.48c-1.29-0.7-1.79,1.64-2.8,0.31c-0.69-0.91-1.39,1.41-2.22-0.06c-0.16-0.29-2.02-0.2-2.31-0.04
		c-3.02,1.64-6.11,0.13-9.2,0.82c-0.08-0.8-0.13-1.25-0.2-1.92c1.2,0,2.31,0,3.26,0C138.94,207.33,139.47,206.67,140,206z
		 M159,207.67c0-0.11,0-0.22,0-0.33c-0.33,0-0.67,0-1,0c0,0.11,0,0.22,0,0.33C158.33,207.67,158.67,207.67,159,207.67z"/>
	<path class="st0" d="M176,256c-1.95,0.77-0.81,1.74-0.33,3.07c-0.89-0.36-1.78-0.71-2.67-1.07c0-0.82,0-1.63,0-2.7
		c-0.58-0.52-1.3-1.16-1.87-1.67c0.38-0.76,0.71-1.42,1.42-2.83c-1.51,0.44-2.29,0.67-3.22,0.95c-0.05-0.15-0.38-0.59-0.29-0.92
		c0.46-1.75,1.02-3.48,1.65-5.58c-0.23-0.82-2.01-2.14,0.32-3.26c0.47,0.97,0.93,1.94,1.45,3.01c0.61-0.53,1.19-1.03,1.78-1.54
		c-0.89-1.77-1.65-3.28-2.32-4.6c0.46-0.79,0.78-1.33,1.09-1.87c2.31,0.66,0.56,2.73,1.38,4.1c1.11,1.87,1.22,4.34,1.04,6.8
		c-0.23-0.55-0.45-1.11-0.84-2.07c-0.51,1.42-0.92,2.58-1.38,3.87c0.27,0.27,0.74,0.73,1.26,1.24c0.32-0.28,0.66-0.57,1.29-1.1
		c0.05,0.74,0.3,1.4,0.08,1.77c-0.45,0.74-2.56,0.15-1.5,2.4c0.45,0,1.06,0,1.67,0C176,254.67,176,255.33,176,256z"/>
	<path class="st0" d="M160,185c0,0.67,0,1.33,0,2c-0.33,0.26-0.94,0.51-0.96,0.79c-0.09,1.63-0.04,3.27-0.04,4.88
		c-1.59,1.08-3.03,2.06-5.26,3.58c-1.98,0.97-3.5-1.74-5.53-2.69c-1.48-0.7-1.92-2.61-1.65-4.54c0.84,1.21,1.68,2.42,2.77,3.99
		c0.99-0.16,2.13-0.33,3.62-0.57c0.03,0.02,0.53,0.38,1.37,0.99c1.04-1.59,1.95-2.98,3.19-4.87c-0.87-0.39-1.64-0.74-3.01-1.36
		c-0.97,0.28-3.27-1.21-5.1,0.88c-0.18-0.49-0.33-0.92-0.61-1.69c2.32-0.58,4.52-1.13,6.47-1.62c0.94,0.94,1.53,1.53,2.12,2.12
		C158.25,186.25,159.13,185.63,160,185z"/>
	<path class="st0" d="M170,240c-1.4-0.48-2.79-0.96-4.64-1.6c1.29-1.15,2.09-1.87,2.89-2.58c-0.11-0.23-0.22-0.46-0.33-0.69
		c-0.79,0.16-1.57,0.32-2.6,0.52c0.08,0.07-0.28-0.09-0.29-0.28c-0.09-1.43,0.3-2.96-0.98-4.13c-0.03-0.03,0.62-0.81,0.95-1.24
		c0.74,2.29,1.78,0.25,3,0.16c0,0.63,0,1.23,0.25,2.08c0.08,0.07-0.09-0.11-0.25-0.28c-0.59,0.04-1.18,0.09-1.98,0.14
		c0.05,0.7,0.08,1.24,0.13,1.91c0.94-0.61,1.64-1.06,2.1-1.77c1.12-0.26,0.78-1.32,0.72-2.03c-0.11-1.43,0.31-2.48,2.22-3.39
		c-0.43,1.2-0.7,1.98-0.99,2.8c0.25,0.34,0.62,0.84,1.32,1.79c-1,0.55-1.87,1.03-2.58,1.41c0.6,1.29,0.98,2.08,1.38,2.93
		c0.7-0.27,1.45-0.56,2.68-1.04c0,1.04,0,1.65,0,2.27C170.76,237.21,170.21,237.76,170,240z"/>
	<path class="st0" d="M115,274c-0.27-0.46-2.04-5.75-1.98-6.28c0.15-1.34-0.57-2.4-0.87-3.57c-0.22-0.84,0.23-1.92,0.03-3.11
		c-0.29-1.68-1.32-2.48-2.18-3.58c0-1.15,0-2.3,0-3.45c0.95,0,1.9,0,3.37,0c-0.6,1.3-0.97,2.1-1.38,3c0.91,1.81,1.87,3.71,2.85,5.64
		c-0.25,0.29-0.56,0.65-1.13,1.31c2.24,1.57,2.15,4.29,2.97,6.4c-0.23,0.9-0.46,1.78-0.68,2.65C115.67,273.33,115.33,273.67,115,274
		z"/>
	<path class="st0" d="M121,244c1.86-0.35,3.32,0.71,4.89,1.39c-0.33,0.49-0.65,0.98-1.09,1.64c0.39,0.52,0.77,1.01,1.14,1.51
		c-0.27,0.3-0.59,0.65-0.91,0.99c0.61,0.61,1.19,1.19,1.79,1.79c0.03,0.98,1.05,2.26-0.82,2.68c-1.3-0.9-2.59-1.8-4-2.77
		c0-0.25,0-0.74-0.01-1.62c0-0.1,0.02,0.19,0.03,0.48c0.65-0.13,1.3-0.25,1.95-0.38c-0.03-0.22-0.06-0.43-0.09-0.65
		c-0.64,0.05-1.27,0.11-1.9,0.55c-0.32,0-0.77-0.35-0.96-0.8c-0.33-0.78-0.49-1.62-0.68-2.3C120.56,245.67,120.78,244.84,121,244z
		 M123.75,246c-0.17,0-0.33,0-0.5,0c0,0.67,0,1.33,0,2c0.17,0,0.33,0,0.5,0C123.75,247.33,123.75,246.67,123.75,246z"/>
	<path class="st0" d="M116,228c2.33-0.46,2.7,1.85,4.23,2.58c-0.79,1.51-1.42,2.72-2.09,4.01c1.28,1.67,2.67,3.46,3.71,4.82
		c-0.36,1.9-0.61,3.25-0.86,4.59c-1.53-0.59-1.46-2.15-1.98-3.34c-0.62-1.39-1.13-2.84-2.08-5.26c0.17-0.92,0.55-2.91,0.94-5
		c-0.53-0.24-1.21-0.56-1.87-0.86C116,228.99,116,228.49,116,228z"/>
	<path class="st0" d="M164,259c-0.37,0.2-0.73,0.41-1.41,0.78c0.95,1.15,1.74,2.09,2.54,3.05c-0.42,0.81-0.78,1.49-1.13,2.17
		c-1.8-1.49-1.39-3.83-2.47-5.86c-0.49,0-1.26,0-1.95,0c-0.26-0.43-0.6-0.74-0.55-0.94c0.59-2.03-1.32-4.45,0.97-6.2
		c0.33,1.15,0.67,2.29,1.01,3.45c-0.32,0.34-0.65,0.69-0.99,1.05c0.79,0.39,1.58,0.78,2.66,1.32c0.36-0.5,0.84-1.16,1.33-1.82
		c1.25,0,2.5,0,3.83,0c0.08,0.68,0.12,1.12,0.16,1.48C166.97,259,164.64,256.67,164,259z"/>
	<path class="st0" d="M182.09,181.41c-0.43,0.43-0.67,0.67-0.88,0.88c0.33,2.12,0.67,4.23,1,6.35c-0.27,0.06-0.54,0.12-0.8,0.18
		c-0.14-0.57-0.2-1.16-0.43-1.69c-0.24-0.57-0.79-1.04-0.91-1.61c-0.17-0.79-0.06-1.64-0.07-2.47c-0.04-1.77-1-2.86-2.2-4.15
		c-1.39-1.49-2-3.7-3.08-5.84c0.94-1.04,1.85-2.06,3.01-3.35c0.13,0.85,0.43,1.52,0.23,1.73c-1.15,1.25-1.47,2.41-0.24,3.82
		c0.38,0.44,0.33,1.33,0.75,1.64C180.03,178.04,180.08,180.26,182.09,181.41z"/>
	<path class="st0" d="M169,183c0.38-0.98-0.93-2.53,1-3c0.22,0.72,0.34,1.48,0.67,2.13c0.34,0.67,0.88,1.25,1.33,1.87
		c-0.33,0.26-0.94,0.51-0.96,0.78c-0.09,1.63-0.04,3.26-0.04,4.83c-2.92,1.06-5.33,3.3-9.12,2.08c-0.22-0.68-0.55-1.69-0.88-2.7
		c2.01,1.54,4.33,0.92,6.45,0.96c0.9-0.86,1.74-1.66,2.77-2.64c-0.37-0.64-0.75-1.28-1.13-1.91C169.94,184.58,170.8,183.74,169,183z
		"/>
	<path class="st0" d="M115.1,228.4c0.49-6.87-3.44-12.67-2.46-19.54c0.18,0.65,0.36,1.29,0.54,1.94c0.04,4.49,2.44,9.04,3.06,14.03
		c0.37,0.08,0.83,0.17,1.31,0.27c0.06,0.18,0.27,0.54,0.19,0.63C117.02,226.51,116.25,227.25,115.1,228.4z"/>
	<path class="st0" d="M113,234c0.33,0.69,0.84,1.34,0.97,2.07c0.42,2.32,0.83,4.66,1,7.01c0.17,2.3,0.04,4.62,0.04,6.93
		c-0.33-0.25-0.98-0.56-0.95-0.75c0.38-2.13-0.53-4-1.05-5.95c-0.49-1.85-2.24-3.65-0.24-5.66c0.11-0.11-0.73-0.94-0.71-1.41
		C112.09,235.43,111.36,234.16,113,234z"/>
	<path class="st0" d="M145.32,154.21c0.84-1.48,1.21-2.14,1.59-2.81c-0.18-0.18-0.41-0.41-0.88-0.88c0.86-0.48,1.69-0.94,2.59-1.43
		c0.34,0.37,0.79,0.84,1.28,1.38c-0.67,0.37-1.36,0.76-2.56,1.43c2.61,1.9,4.7,3.06,8.28,0.59c-0.84,1.45-1.03,2.27-1.48,2.45
		c-1.42,0.58-2.94,0.92-4.14,1.27C148.43,155.32,147.88,153.44,145.32,154.21z"/>
	<path class="st0" d="M113.05,230.05c1.32,0.2,1.17,0.94,0.57,1.84c-0.23,0.35-0.42,0.74-0.62,1.11c-1.94,0.73-1.9-1.87-2.55-1.86
		c-2.56,0.02-0.5-1.34-0.69-1.93c-0.43-1.32-0.27-2.23,0.32-3.39c-0.31-0.42-0.66-0.9-1.01-1.38c0.47-0.47,0.93-0.93,1.44-1.44
		c0.54,1.09,1.08,2.17,1.61,3.25c-0.38,0.45-0.69,0.82-0.99,1.18C111.74,228.26,112.37,229.13,113.05,230.05
		c-0.01-0.02-0.08-0.08-0.14-0.15c-0.27,0.23-0.54,0.46-0.82,0.7c0.11,0.11,0.21,0.21,0.32,0.32
		C112.64,230.64,112.87,230.36,113.05,230.05z"/>
	<path class="st0" d="M127,259c-1.55,1.2-1.25,2.58-0.46,4.07c0.26,0.49,0.36,1.07,0.2,1.71c-3.1-2.83-1.6-7.23-4.56-10.77
		c1.91,0,2.86,0,3.81,0c0,0.49,0,0.98,0,1.54c0.65,0.29,1.33,0.6,1.73,0.78C127.47,257.28,127.23,258.14,127,259z"/>
	<path class="st0" d="M181,231c-0.33,0-0.67,0-1,0c-0.11-0.28-0.22-0.55-0.33-0.83c-0.22,0.28-0.45,0.55-0.67,0.83
		c-0.49,0-0.98,0-1.48,0c-0.78-1.82-2.39-3.44-1.1-5.86c0.19-0.03,0.64-0.11,1.01-0.18c0.6,1.42,1.17,2.77,1.75,4.11
		c0.25-0.05,0.49-0.11,0.74-0.16c0-1.22,0-2.44,0-3.85c0.58,0.21,0.96,0.25,1,0.39c0.34,1.17,0.61,2.36,0.98,3.83
		C181.71,229.66,181.35,230.33,181,231z"/>
	<path class="st0" d="M134,252c0,0.61,0,1.23,0,1.84c-0.2,0.09-0.41,0.18-0.61,0.27c-0.55-0.97-1.1-1.94-1.65-2.91
		c-0.18,0.17-0.35,0.34-0.53,0.52c-0.23-2.13-0.45-4.26-0.71-6.71c0.56,0.21,1.32,0.5,2.16,0.81c0.19-0.17,0.54-0.48,0.88-0.78
		c0.5,0.5,0.96,0.96,1.44,1.44c-1.39,0.88-0.92,2.27-0.98,3.52c-0.6,0-1.2,0-2.74,0C132.65,251.02,133.33,251.51,134,252z"/>
	<path class="st0" d="M164,225c-0.34-0.5-0.64-1.03-1.02-1.51c-1.51-1.93-1.49-2.21,1.02-4.59c0,0.89,0,1.49,0.05,2.14
		c-0.01-0.02-0.08-0.08-0.14-0.15c-0.27,0.23-0.54,0.46-0.82,0.7c0.11,0.11,0.21,0.21,0.32,0.32c0.23-0.27,0.46-0.54,0.64-0.86
		c0.89-0.05,1.84-0.05,2.79-0.05c0.1,0.21,0.2,0.43,0.3,0.64c-0.89,0.4-1.79,0.79-2.5,1.11c1.18,1.63,1.89,2.61,2.67,3.69
		c-0.59,0.17-0.92,0.38-1.05,0.29C165.49,226.19,164.75,225.58,164,225z"/>
	<path class="st0" d="M130.78,238.54c-1.14,1.34-1.43,1.68-1.71,2c1.7,0.9,3.35,1.76,4.99,2.63c-2.07,0.45-3.83-0.03-5.63-0.98
		c-0.44-1.96-0.87-3.89-1.34-5.96C130.16,235.1,128.35,238.9,130.78,238.54z"/>
	<path class="st0" d="M155,262c-1.87,1.3-0.99,4.07-2.87,5.31c0.23,1.34,2.65,1.58,1.77,3.18c-0.79-0.75-1.66-1.58-2.82-2.68
		c0.22-1.18,0.57-2.99,0.92-4.81c2.05-0.21,0.24-2.29,1.52-2.97c0.33,0.03,0.77,0.06,1.48,0.12C155,260.81,155,261.41,155,262z"/>
	<path class="st0" d="M164,256c-0.5,0-0.99,0-1.75,0c0-1.55,0-3.11,0-4.71c0.49-0.19,1.06-0.4,1.79-0.67c0-1.44,0-2.88,0-4.33
		c0.18-0.04,0.37-0.07,0.55-0.11c0.14,0.56,0.22,1.14,0.43,1.67c0.28,0.71,0.65,1.38,1.03,2.15c-0.33,0.63-0.69,1.31-1.04,1.99
		c-0.61,0.4-1.22,0.79-1.78,1.16C163.5,254.18,163.75,255.09,164,256z"/>
	<path class="st0" d="M140.45,195.95c-0.9-0.68-1.79-1.37-3.47-2.64c2.54-0.19,4.09-0.31,5.82-0.44c0.13-0.87,0.26-1.78,0.52-3.58
		c0.7,1.21,1.07,1.86,1.49,2.59C143.56,194.04,143.56,194.04,140.45,195.95z"/>
	<path class="st0" d="M110,252.05c0-1.71,0.15-3.39-0.04-5.03c-0.18-1.53-0.71-3.01-1.11-4.61c0.6-0.2,1.04-0.34,1.73-0.56
		c0.51,3.34,1,6.56,1.53,10.01C111.25,251.93,110.63,251.99,110,252.05z"/>
	<path class="st0" d="M161,171c0,0.49,0,0.98,0,1.47c-2.61,2.12-5.67,1.43-9.03,1.54C151.64,173,151.32,172,151,171
		c0.78,0.55,1.57,1.1,2.53,1.78c0.28-0.18,0.74-0.47,1.39-0.89c0.58,0.34,1.24,0.73,1.96,1.14C158.24,172.36,159.62,171.68,161,171z
		"/>
	<path class="st0" d="M127,259c0.97,0.3,1.93,0.59,2.76,0.85c0.38,2.44,0.56,4.4-0.76,6.15c-0.33,0-0.67,0-1,0
		C127.67,263.67,127.33,261.33,127,259z"/>
	<path class="st0" d="M184.73,176.93c0.49-1.63,0.97-3.24,1.45-4.85c0.77,2.5,1.45,4.92,3.27,7.34c-0.89,0.38-1.67,0.72-2.26,0.97
		c-0.06-0.6-0.2-1.83-0.35-3.28C186.24,177.07,185.62,177.01,184.73,176.93z"/>
	<path class="st0" d="M138,169.12c0-0.61,0-1.1,0-1.61c1.74-0.88,3.5-1.77,5.12-2.59c1,1.01,1.86,1.87,2.93,2.95
		c-1.65,0.06-3.2,0.69-4.45-0.75C140.41,167.78,139.23,168.43,138,169.12z"/>
	<path class="st0" d="M138.89,174c2.59,0,4.06,0,5.37,0c1.09-0.8,2.08-1.53,3.23-2.38c0.28,0.81,0.43,1.24,0.57,1.64
		c-1.32,0.92-2.57,1.8-4.21,2.95C142.7,175.69,141.26,175.05,138.89,174z"/>
	<path class="st0" d="M138,115c0.33-0.33,0.67-0.67,1-1c0.33,0.26,0.97,0.54,0.95,0.77c-0.17,2.54,1.02,4.7,1.86,6.96
		c-0.36,0.1-0.65,0.18-1.39,0.39c-0.46-1.32-0.95-2.7-1.42-4.08C138.66,117.03,138.33,116.01,138,115z"/>
	<path class="st0" d="M121.89,218.46c0.94,0.87,1.29,1.19,1.62,1.49c0.37-0.31,0.71-0.6,1.84-1.57c-0.59,1.65-0.86,2.43-1.16,3.26
		c0.48,0.23,1.16,0.55,1.82,0.86c-0.02,0.42-0.04,0.74-0.08,1.4c-0.74,0.04-1.51,0.09-2.57,0.15
		C122.92,222.41,122.49,220.76,121.89,218.46z"/>
	<path class="st0" d="M165,145.67c0,1.15,0,1.96,0,2.85c-1.14,1.09-2.31,2.22-3.65,3.5c-0.5-0.8-1.01-1.63-1.76-2.83
		c1.3,0,2.06,0,2.87,0C163.32,148.01,164.09,146.93,165,145.67z"/>
	<path class="st0" d="M114.84,189.83c-0.63-2.26-2.71-4.23-1.55-6.73c0.52,0,0.97,0,1.55,0
		C114.84,185.41,114.84,187.62,114.84,189.83z"/>
	<path class="st0" d="M115.16,249.84c0.46,0.38,0.89,0.84,1.42,1.13c0.38,0.21,0.88,0.18,1.46,0.29c-0.86,0.69-1.57,1.25-2.51,2
		c1.1,0.53,1.77,0.85,2.5,1.2c-0.07,0.46-0.14,0.91-0.27,1.78c-0.99-0.5-1.76-0.88-2.6-1.31
		C115.16,253.22,115.16,251.61,115.16,249.84z"/>
	<path class="st0" d="M130.86,272.27c0.23-0.4,0.55-0.91,0.8-1.45c0.26-0.55,0.44-1.12,0.66-1.69c0.85,1.18,1.69,2.34,2.32,3.21
		c-0.79,0.88-1.54,1.73-2.22,2.5C132.02,274.15,131.51,273.33,130.86,272.27z"/>
	<path class="st0" d="M158.32,267.63c1.56,3.35,1.56,3.35,1.45,6.19c-0.87-0.81-1.71-1.6-2.76-2.59
		C157.33,270.35,157.75,269.2,158.32,267.63z"/>
	<path class="st0" d="M143.09,186.8c-1.62-0.05-3.4,0.89-4.47-0.59c-0.84,0.29-1.61,0.55-2.39,0.81c-0.1-0.27-0.21-0.53-0.31-0.8
		c0.92-0.41,1.81-0.99,2.77-1.18C140.53,184.67,141.77,185.9,143.09,186.8z"/>
	<path class="st0" d="M150.02,246.75c-0.03,0.67-0.08,1.44-0.12,2.29c-1.36-1.67-2.53-3.11-3.77-4.63c0-0.61,0-1.39,0-2.36
		C147.5,243.7,148.73,245.19,150.02,246.75z"/>
	<path class="st0" d="M180,233c-0.28,0.22-0.55,0.45-0.83,0.67c0.28,0.11,0.55,0.22,0.83,0.33c0,0.6,0,1.2,0,1.68
		c-2.72,1.16-1.6-1.95-2.87-2.12c0.61-0.83,1.24-1.69,1.87-2.56c0.33,0,0.67,0,1,0C180,231.67,180,232.33,180,233z"/>
	<path class="st0" d="M135,252c-0.33,0-0.67,0-1,0c0-0.67,0-1.33,0-2c0.52-0.67,1.05-1.33,1.62-2.07c0.42,0.11,0.86,0.22,1.7,0.44
		C136.46,249.72,135.73,250.86,135,252z"/>
	<path class="st0" d="M174.5,218c0.47,0.47,0.94,0.94,1.38,1.38c0,1.15,0,2.26,0,3.38c-0.19,0.05-0.39,0.1-0.58,0.15
		c-0.54-1.6-1.08-3.2-1.62-4.8C173.94,218.07,174.22,218.04,174.5,218z"/>
	<path class="st0" d="M169.03,183.65c-1.99,0.31-3.98,0.62-5.99,0.93c-0.02-0.36-0.03-0.68-0.06-1.3
		C164.99,182.77,166.99,182.93,169.03,183.65z"/>
	<path class="st0" d="M188.33,170.83c-0.34-1.14-0.67-2.29-1.04-3.54c0.29-0.55,0.71-1.37,1.29-2.49
		C189.36,166.98,188.82,168.91,188.33,170.83z"/>
	<path class="st0" d="M126.71,231.4c0.45-0.59,0.84-1.11,1.5-1.99c0.81,1.68,1.39,2.86,2.44,5.03
		C128.73,233.48,128.05,232.38,126.71,231.4z"/>
	<path class="st0" d="M105,197c0.52-0.65,1.04-1.3,1.56-1.96c1.27,0.56-0.66,2.76,1.44,2.96c0,0.6,0,1.2,0,2.72
		C106.63,199.03,105.82,198.01,105,197z"/>
	<path class="st0" d="M151.56,167.54c0.53-0.72,1.29-1.74,2.17-2.93c0.66,0.53,1.06,0.85,1.28,1.03
		C154.98,166.99,153.18,167.65,151.56,167.54z"/>
	<path class="st0" d="M179.37,264.86c-0.46-1.44-0.92-2.89-1.41-4.42c0.41-0.18,0.82-0.35,1.51-0.65
		C180.39,261.49,179.8,263.17,179.37,264.86z"/>
	<path class="st0" d="M164.41,163c0.41,0,0.74,0,1.45,0c-0.32,0.83-0.7,1.52-0.83,2.26c-0.16,0.9-0.11,1.83-0.17,3.24
		c-0.8-0.94-1.21-1.43-1.55-1.83C163.67,165.44,164.05,164.21,164.41,163z"/>
	<path class="st0" d="M177,254c1.6,1.19,1.18,3.15,1.5,5.01c-0.83-1-1.66-2.01-2.5-3.01C177.5,255.91,176.85,254.76,177,254z"/>
	<path class="st0" d="M144.69,124.5c1.43-0.43,2.58-0.78,4.22-1.28c0.17,0.2,0.63,0.74,1.14,1.33c-1.29,0.41-2.44,0.78-3.78,1.2
		C146.06,125.59,145.59,125.22,144.69,124.5z"/>
	<path class="st0" d="M123.01,152.95c-0.62,1.27-1.06,2.16-1.44,2.92c-0.68-0.79-1.38-1.6-2.3-2.67
		C120.34,153.13,121.57,153.05,123.01,152.95z"/>
	<path class="st0" d="M155.47,149.77c-2.02,0-3.22,0-4.5,0c0.61-0.78,1.09-1.38,1.74-2.2C153.63,148.31,154.34,148.88,155.47,149.77
		z"/>
	<path class="st0" d="M159,241c0.72,0.23,1.43,0.45,3.03,0.96c-1.82,0.94-2.75,1.42-4.03,2.08c0-0.85,0-1.44,0-2.04
		C158.33,241.67,158.67,241.33,159,241z"/>
	<path class="st0" d="M172.5,165.12c-0.06,0.13-0.47,0.92-0.92,1.79c-0.38,0-0.81,0-1.17,0c-0.19-0.2-0.41-0.36-0.38-0.42
		c0.45-1.1,0.93-2.18,1.58-3.69C171.85,163.43,172.07,164,172.5,165.12z"/>
	<path class="st0" d="M177.58,185.96c0.52,1.19,1.04,2.37,1.63,3.71c-0.73,0.19-1.16,0.3-1.94,0.5c-0.13-1.47-0.25-2.81-0.37-4.15
		C177.13,185.99,177.36,185.97,177.58,185.96z"/>
	<path class="st0" d="M185,177c-0.25,0.33-0.47,0.7-0.76,0.99c-0.38,0.37-0.82,0.68-1.24,1.01c-1-0.33-2-0.67-3-1
		c0.4-0.33,0.77-0.91,1.2-0.95C182.45,176.92,183.73,177,185,177z"/>
	<path class="st0" d="M172.33,157.69c0.52,0.62,0.82,0.99,1.11,1.34c0.41-0.37,0.74-0.69,1.31-1.21c0.1,0.75,0.18,1.3,0.28,2.01
		c-1.12,0-1.99,0-3.11,0C172.07,159.07,172.17,158.51,172.33,157.69z"/>
	<path class="st0" d="M187.44,158.25c-1.11,0.87-1.82,1.44-2.84,2.24c-0.35-0.9-0.55-1.42-0.87-2.24
		C185.01,158.25,186,158.25,187.44,158.25z"/>
	<path class="st0" d="M165.31,258.8c2.77,0.34,3.77,1.03,3.63,3.64C167.69,261.2,166.85,260.35,165.31,258.8z"/>
	<path class="st0" d="M164.23,160.82c-1.26,0.98-2.29,1.79-3.23,2.51C161.06,161.7,162.21,161.02,164.23,160.82z"/>
	<path class="st0" d="M131.84,152.19c0,1.21,0,2.43,0,3.72c-0.71-0.1-1.77,0.74-1.47-0.75c0.21-1.03,0.64-2,0.98-3
		C131.51,152.17,131.67,152.18,131.84,152.19z"/>
	<path class="st0" d="M155.79,242.4c-0.5,1.01-0.9,1.8-1.56,3.12c0-1.86,0-3.17,0-4.86C154.95,241.45,155.37,241.92,155.79,242.4z"
		/>
	<path class="st0" d="M126.64,190.08c1.47,0,2.24,0,3.02,0c-0.21,1.14-0.61,2-2.24,1.9C127.26,191.59,127.05,191.08,126.64,190.08z"
		/>
	<path class="st0" d="M181.98,213.8c-0.56,0.42-1.05,0.79-1.75,1.32c0-1.39,0-2.62,0-4.63C181.04,212.03,181.55,213,181.98,213.8z"
		/>
	<path class="st0" d="M121.46,218.22c-0.58-1.37-1.09-2.57-1.82-4.29C121.86,215.71,121.86,215.71,121.46,218.22z"/>
	<path class="st0" d="M149.51,264.01c-0.5-0.5-0.97-0.97-1.47-1.47c0.5-0.58,0.99-1.17,1.36-1.6c0.64,0.11,0.95,0.16,1.26,0.21
		c-0.05,0.28-0.05,0.59-0.16,0.84C150.2,262.67,149.85,263.33,149.51,264.01z"/>
	<path class="st0" d="M129,268c0,1.67,0,3.33,0,5C127.56,271.37,127.56,269.63,129,268z"/>
	<path class="st0" d="M158,139.98c0.97,0.48,1.94,0.95,2.98,1.46c-0.04,0.42-0.08,0.87-0.13,1.48c-1.04-0.51-1.95-0.96-2.84-1.39
		C158,140.99,158,140.5,158,139.98z"/>
	<path class="st0" d="M165,267c0.33,0,0.67,0,1,0c0.67,1,1.33,2,2,3C165.76,269.79,165.21,269.24,165,267z"/>
	<path class="st0" d="M158,268c-0.58,0-1.17,0-2,0c0-0.83,0-1.42,0-2c0.51-0.28,1.02-0.57,1.77-0.99
		C157.85,266.01,157.92,267,158,268z"/>
	<path class="st0" d="M126.83,231.96c0,0.98,0,1.93,0,3.71c-0.9-1.88-1.44-3.01-2.27-4.75
		C125.77,231.48,126.37,231.75,126.83,231.96z"/>
	<path class="st0" d="M146.02,154.25c-0.6,0.85-1.03,2.18-2.92,1.54c0.47-0.97,0.9-1.86,1.34-2.76
		C144.94,153.41,145.41,153.78,146.02,154.25z"/>
	<path class="st0" d="M155.89,151.92c0.99,0.15,1.55,0.23,2.5,0.38c-0.66,1.07-1.12,1.83-1.98,3.23
		C156.19,154,156.07,153.12,155.89,151.92z"/>
	<path class="st0" d="M167.08,161.04c1.07-1.06,1.91-1.9,2.94-2.93C169.91,159.94,169.25,160.94,167.08,161.04z"/>
	<path class="st0" d="M129,268c0-0.67,0-1.33,0-2c1.26,0.44,2.25,1.06,1.84,2.88C130.18,268.56,129.59,268.28,129,268z"/>
	<path class="st0" d="M152.26,256c0.56,0,0.89,0,1.45,0c0.11,0.51,0.22,1.06,0.37,1.75c-0.65,0.13-1.09,0.22-1.82,0.37
		C152.26,257.33,152.26,256.67,152.26,256z"/>
	<path class="st0" d="M129.9,202.1c0.91,0,1.35,0,1.93,0c0,0.98,0,1.86,0,3.31C131.06,204.09,130.58,203.26,129.9,202.1z"/>
	<path class="st0" d="M135.04,165.04c-0.64-0.05-1.24-0.1-1.9-0.15c-0.05-0.6-0.09-1.03-0.14-1.7c0.61-0.07,1.15-0.13,1.88-0.21
		C134.94,163.8,134.99,164.4,135.04,165.04z"/>
	<path class="st0" d="M180.04,217.96c-0.05,0.64-0.1,1.24-0.15,1.9c-0.6,0.05-1.03,0.09-1.7,0.14c-0.07-0.61-0.13-1.15-0.21-1.88
		C178.8,218.06,179.4,218.01,180.04,217.96z"/>
	<path class="st0" d="M116.13,186.08c-0.04-0.81-0.06-1.25-0.09-1.89c1.01,0.41,1.89,0.77,3.45,1.41
		C118,185.81,117.12,185.93,116.13,186.08z"/>
	<path class="st0" d="M152.96,237.96c0.64,0.05,1.24,0.1,1.9,0.15c0.05,0.6,0.09,1.03,0.14,1.7c-0.61,0.07-1.15,0.13-1.88,0.21
		C153.06,239.2,153.01,238.6,152.96,237.96z"/>
	<path class="st0" d="M168,264c-0.49,0-0.98,0-1.48,0c-0.6-1.84-0.6-1.84,1.48-2C168,262.67,168,263.33,168,264z"/>
	<path class="st0" d="M155.62,146.75c0.59-0.91,1.18-1.82,2-3.08C158.45,145.99,157.11,146.42,155.62,146.75z"/>
	<path class="st0" d="M144.95,238.86c-0.66,0.05-1.09,0.09-1.74,0.14c0-0.95,0-1.81,0-3.64
		C144.01,236.98,144.44,237.84,144.95,238.86z"/>
	<path class="st0" d="M129,273c0.67,0,1.33,0,2,0c0,0.94,0,1.89,0,4.03C129.98,274.97,129.49,273.98,129,273z"/>
	<path class="st0" d="M131.62,170.83c1.3-0.76,2.12-1.25,3.15-1.85c0.09,0.58,0.17,1.13,0.28,1.85
		C133.92,170.83,133.03,170.83,131.62,170.83z"/>
	<path class="st0" d="M105.15,193.59c-0.45,0.55-0.9,1.1-1.74,2.14c-0.23-1.25-0.34-1.8-0.47-2.5c0.66-0.13,1.1-0.21,1.55-0.3
		C104.71,193.16,104.93,193.38,105.15,193.59z"/>
	<path class="st0" d="M148.5,257.99c1.48,1.68-0.52,2.02-1.47,2.85c0.09-0.55,0.05-1.16,0.3-1.63
		C147.58,258.74,148.1,258.4,148.5,257.99z"/>
	<circle class="st0" cx="171" cy="179" r="1.41"/>
	<path class="st0" d="M134.53,190.71c0.48,0.78,0.87,1.39,1.33,2.13C134.59,193.06,133.4,193.37,134.53,190.71z"/>
	<path class="st0" d="M124.16,155.17c0.89,0,1.77,0,2.66,0c0.02,0.17,0.04,0.34,0.05,0.51c-0.87,0.13-1.75,0.25-2.62,0.38
		C124.21,155.76,124.18,155.47,124.16,155.17z"/>
	<path class="st0" d="M168.75,195.46c-0.36-0.36-0.87-0.87-1.32-1.32c0.19-0.03,0.63-0.11,1.32-0.23
		C168.75,194.67,168.75,195.34,168.75,195.46z"/>
	<path class="st0" d="M143.5,205.5c0.71-0.46,1.42-0.92,2.35-1.52c0.04,0.67,0.08,1.21,0.13,1.91c-0.8,0.06-1.39,0.1-1.98,0.14
		C143.84,205.86,143.67,205.68,143.5,205.5z"/>
	<path class="st0" d="M160.39,214.48c0.62,1,1.01,1.62,1.32,2.11C160.2,216.91,160.2,216.91,160.39,214.48z"/>
	<path class="st0" d="M173.96,217.1c0.05-0.69,0.09-1.28,0.14-1.87c0.18-0.13,0.37-0.26,0.55-0.39c0.26,0.68,0.52,1.37,0.75,1.97
		C175.32,216.83,174.67,216.96,173.96,217.1z"/>
	<path class="st0" d="M139.12,112.85c0-0.76,0-1.68,0-2.81C140.05,111.69,140.05,111.69,139.12,112.85z"/>
	<path class="st0" d="M134.17,225.81c0-0.89,0-1.77,0-2.66c0.17-0.01,0.35-0.03,0.52-0.04c0.12,0.89,0.24,1.78,0.36,2.68
		C134.76,225.8,134.47,225.8,134.17,225.81z"/>
	<path class="st0" d="M163.78,160.36c0.7-0.17,1.23-0.31,2.01-0.5c0.08,0.74,0.14,1.28,0.29,2.63
		C165.03,161.51,164.51,161.03,163.78,160.36z"/>
	<path class="st0" d="M109.17,238.84c0-0.89,0-1.77,0-2.66c0.17-0.02,0.34-0.04,0.51-0.05c0.13,0.87,0.25,1.75,0.38,2.62
		C109.76,238.79,109.47,238.82,109.17,238.84z"/>
	<ellipse class="st0" cx="131.5" cy="237.5" rx="0.35" ry="2.12"/>
	<path class="st0" d="M141.64,240.78c0.17,0.7,0.31,1.23,0.5,2.01c-0.74,0.08-1.28,0.14-2.63,0.29
		C140.49,242.03,140.97,241.51,141.64,240.78z"/>
	<path class="st0" d="M125.84,162.83c-0.89,0-1.77,0-2.66,0c-0.02-0.17-0.04-0.34-0.05-0.51c0.87-0.13,1.75-0.25,2.62-0.38
		C125.79,162.24,125.82,162.53,125.84,162.83z"/>
	<path class="st0" d="M129.17,162.16c0.89,0,1.77,0,2.66,0c0.02,0.17,0.03,0.35,0.05,0.52c-0.88,0.12-1.77,0.25-2.65,0.37
		C129.21,162.76,129.19,162.46,129.17,162.16z"/>
	<path class="st0" d="M145.14,242.92c-0.92,0-1.35,0-1.64,0c0.35-0.53,0.76-1.14,1.28-1.94
		C144.9,241.61,144.98,242.05,145.14,242.92z"/>
	<path class="st0" d="M147,249c0,0.58,0,1.17,0,2c-0.83,0-1.42,0-2,0C145.67,250.33,146.33,249.67,147,249z"/>
	<path class="st0" d="M144,251c0.33,0,0.67,0,1,0c0.33,0.67,0.67,1.33,1,2c-0.58,0-1.17,0-2,0C144,252.17,144,251.58,144,251z"/>
	<path class="st0" d="M167,144c-0.67,0.67-1.33,1.33-2,2c0-0.58,0-1.17,0-2C165.83,144,166.42,144,167,144z"/>
	<path class="st0" d="M166,267c0-0.58,0-1.17,0-2c0.83,0,1.42,0,2,0C167.33,265.67,166.67,266.33,166,267z"/>
	<path class="st0" d="M168,272c0-0.67,0-1.33,0-2c0.67,0,1.33,0,2,0c0,0.33,0,0.67,0,1C169.33,271.33,168.67,271.67,168,272z"/>
	<path class="st0" d="M141,273.03c-0.59-0.04-1.18-0.09-1.98-0.14c0.05-0.7,0.08-1.24,0.13-1.91c0.94,0.61,1.64,1.06,2.35,1.52
		C141.33,272.68,141.16,272.86,141,273.03z"/>
	<path class="st0" d="M133.25,149.54c0.36,0.36,0.87,0.87,1.32,1.32c-0.19,0.03-0.63,0.11-1.32,0.23
		C133.25,150.33,133.25,149.66,133.25,149.54z"/>
	<path class="st0" d="M136.37,148.22c0.5,1.4,0.76,2.13,0.88,2.46C136.21,150.94,136.21,150.94,136.37,148.22z"/>
	<path class="st0" d="M155.04,272.9c-0.05,0.69-0.09,1.28-0.14,1.87c-0.17,0.11-0.33,0.23-0.5,0.34c-0.16-0.77-0.32-1.55-0.41-2
		C153.68,273.17,154.33,273.04,155.04,272.9z"/>
	<path class="st0" d="M183.5,178.5c0.46,0.71,0.92,1.42,1.52,2.35c-0.67,0.04-1.21,0.08-1.91,0.13c-0.06-0.8-0.1-1.39-0.14-1.98
		C183.14,178.84,183.32,178.67,183.5,178.5z"/>
	<path class="st0" d="M159.5,184.5c0.71-0.46,1.42-0.92,2.35-1.52c0.04,0.67,0.08,1.21,0.13,1.91c-0.8,0.06-1.39,0.1-1.98,0.14
		C159.84,184.86,159.67,184.68,159.5,184.5z"/>
	<path class="st0" d="M169.29,153.53c-0.78,0.48-1.39,0.87-2.13,1.33C166.94,153.59,166.63,152.4,169.29,153.53z"/>
	<path class="st0" d="M172,183.97c0.59,0.04,1.18,0.09,1.98,0.14c-0.05,0.7-0.08,1.24-0.13,1.91c-0.94-0.61-1.64-1.06-2.35-1.52
		C171.67,184.32,171.84,184.14,172,183.97z"/>
	<path class="st0" d="M143,186.97c0.59,0.04,1.18,0.09,1.98,0.14c-0.05,0.7-0.08,1.24-0.13,1.91c-0.94-0.61-1.64-1.06-2.35-1.52
		C142.67,187.32,142.84,187.14,143,186.97z"/>
	<path class="st0" d="M157.16,166.17c0.55,0,1.1,0,1.66,0c0.03,0.16,0.05,0.32,0.08,0.48c-0.54,0.13-1.08,0.26-1.63,0.39
		C157.23,166.75,157.19,166.46,157.16,166.17z"/>
	<ellipse class="st0" cx="131" cy="183.5" rx="1.41" ry="0.35"/>
	<path class="st0" d="M179.17,151.84c0-0.55,0-1.11,0-1.66c0.16-0.03,0.32-0.05,0.48-0.08c0.13,0.54,0.26,1.08,0.39,1.63
		C179.75,151.77,179.46,151.81,179.17,151.84z"/>
	<path class="st0" d="M135.17,228.84c0-0.55,0-1.11,0-1.66c0.16-0.03,0.32-0.05,0.48-0.08c0.13,0.54,0.26,1.08,0.39,1.63
		C135.75,228.77,135.46,228.81,135.17,228.84z"/>
	<path class="st0" d="M149.17,117.82c0-0.55,0-1.11,0-1.66c0.16-0.02,0.33-0.04,0.49-0.07c0.12,0.56,0.24,1.11,0.36,1.67
		C149.74,117.78,149.46,117.8,149.17,117.82z"/>
	<path class="st0" d="M167.16,167.17c0.55,0,1.1,0,1.66,0c0.03,0.16,0.05,0.32,0.08,0.48c-0.54,0.13-1.08,0.26-1.63,0.39
		C167.23,167.75,167.19,167.46,167.16,167.17z"/>
	<path class="st0" d="M154.03,122.78c-0.64,0.05-1.28,0.11-1.92,0.16c-0.03-0.22-0.05-0.43-0.08-0.65c0.65-0.13,1.3-0.25,1.95-0.38
		C154,122.2,154.01,122.49,154.03,122.78z"/>
	<path class="st0" d="M139.17,228.82c0-0.55,0-1.11,0-1.66c0.16-0.02,0.33-0.05,0.49-0.07c0.12,0.56,0.25,1.12,0.37,1.69
		C139.74,228.79,139.46,228.8,139.17,228.82z"/>
	<path class="st0" d="M181.58,210.85c1.22,0.35,1.82,0.52,2.42,0.69c-0.47,0.16-0.92,0.36-1.4,0.43
		C182.46,211.99,182.26,211.61,181.58,210.85z"/>
	<path class="st0" d="M162.15,168.58c-0.35,1.22-0.52,1.82-0.69,2.42c-0.16-0.47-0.36-0.92-0.43-1.4
		C161.01,169.46,161.39,169.26,162.15,168.58z"/>
	<ellipse class="st0" cx="109.5" cy="218" rx="0.35" ry="1.41"/>
	<path class="st0" d="M177.82,157.83c-0.55,0-1.11,0-1.66,0c-0.02-0.16-0.04-0.33-0.07-0.49c0.56-0.12,1.11-0.24,1.67-0.36
		C177.78,157.26,177.8,157.54,177.82,157.83z"/>
	<path class="st0" d="M121.83,234.18c0,0.55,0,1.11,0,1.66c-0.16,0.02-0.33,0.05-0.49,0.07c-0.12-0.56-0.25-1.12-0.37-1.69
		C121.26,234.21,121.54,234.2,121.83,234.18z"/>
	<ellipse class="st0" cx="175" cy="213.5" rx="1.41" ry="0.35"/>
	<path class="st0" d="M178.16,159.17c0.55,0,1.11,0,1.66,0c0.03,0.16,0.05,0.32,0.08,0.48c-0.54,0.13-1.08,0.26-1.63,0.39
		C178.23,159.75,178.19,159.46,178.16,159.17z"/>
	<path class="st0" d="M138.16,214.17c0.55,0,1.1,0,1.66,0c0.03,0.16,0.05,0.32,0.08,0.48c-0.54,0.13-1.08,0.26-1.63,0.39
		C138.23,214.75,138.19,214.46,138.16,214.17z"/>
	<ellipse class="st0" cx="142.5" cy="162" rx="0.35" ry="1.41"/>
	<ellipse class="st0" cx="121" cy="162.5" rx="1.41" ry="0.35"/>
	<ellipse class="st0" cx="158" cy="148.5" rx="1.41" ry="0.35"/>
	<path class="st0" d="M147,217c0,0.67,0,1.33,0,2c-0.33-0.41-0.67-0.83-1-1.24C146.33,217.5,146.67,217.25,147,217z"/>
	<path class="st0" d="M165,228c0.33,0.41,0.67,0.83,1,1.24c-0.33,0.25-0.67,0.5-1,0.76C165,229.33,165,228.67,165,228z"/>
	<path class="st0" d="M111.17,207.84c0-0.55,0-1.11,0-1.66c0.16-0.03,0.32-0.05,0.48-0.08c0.13,0.54,0.26,1.08,0.39,1.63
		C111.75,207.77,111.46,207.81,111.17,207.84z"/>
	<ellipse class="st0" cx="133.5" cy="221" rx="0.35" ry="1.41"/>
	<path class="st0" d="M152.16,205.17c0.55,0,1.1,0,1.66,0c0.03,0.16,0.05,0.32,0.08,0.48c-0.54,0.13-1.08,0.26-1.63,0.39
		C152.23,205.75,152.19,205.46,152.16,205.17z"/>
	<path class="st0" d="M148.78,219.97c0.05,0.64,0.11,1.27,0.16,1.91c-0.22,0.03-0.43,0.06-0.65,0.09c-0.13-0.65-0.25-1.3-0.38-1.95
		C148.2,220,148.49,219.99,148.78,219.97z"/>
	<ellipse class="st0" cx="151.5" cy="253" rx="0.35" ry="1.41"/>
	<path class="st0" d="M165.78,251.97c0.05,0.64,0.11,1.27,0.16,1.91c-0.22,0.03-0.43,0.06-0.65,0.09c-0.13-0.65-0.25-1.3-0.38-1.95
		C165.2,252,165.49,251.99,165.78,251.97z"/>
	<path class="st0" d="M156.16,200.17c0.55,0,1.1,0,1.66,0c0.03,0.16,0.05,0.32,0.08,0.48c-0.54,0.13-1.08,0.26-1.63,0.39
		C156.23,200.75,156.19,200.46,156.16,200.17z"/>
	<path class="st0" d="M147,254c1.5,0.09,0.85,1.24,1,2C146.5,255.91,147.15,254.76,147,254z"/>
	<path class="st0" d="M110.82,199.83c-0.55,0-1.11,0-1.66,0c-0.02-0.16-0.04-0.33-0.07-0.49c0.56-0.12,1.11-0.24,1.67-0.36
		C110.78,199.26,110.8,199.54,110.82,199.83z"/>
	<path class="st0" d="M121.83,259.18c0,0.55,0,1.11,0,1.66c-0.16,0.02-0.33,0.05-0.49,0.07c-0.12-0.56-0.25-1.12-0.37-1.69
		C121.26,259.21,121.54,259.2,121.83,259.18z"/>
	<path class="st0" d="M109.15,195.58c-0.35,1.22-0.52,1.82-0.69,2.42c-0.16-0.47-0.36-0.92-0.43-1.4
		C108.01,196.46,108.39,196.26,109.15,195.58z"/>
	<path class="st0" d="M180.85,195.42c0.35-1.22,0.52-1.82,0.69-2.42c0.16,0.47,0.36,0.92,0.43,1.4
		C181.99,194.54,181.61,194.74,180.85,195.42z"/>
	<path class="st0" d="M174.18,261.17c0.55,0,1.11,0,1.66,0c0.02,0.16,0.04,0.33,0.07,0.49c-0.56,0.12-1.11,0.24-1.67,0.36
		C174.22,261.74,174.2,261.46,174.18,261.17z"/>
	<path class="st0" d="M161,189c-1.5-0.09-0.85-1.24-1-2C161.5,187.09,160.85,188.24,161,189z"/>
	<path class="st0" d="M174.58,184.85c1.22,0.35,1.82,0.52,2.42,0.69c-0.47,0.16-0.92,0.36-1.4,0.43
		C175.46,185.99,175.26,185.61,174.58,184.85z"/>
	<path class="st0" d="M164,265c1.5,0.09,0.85,1.24,1,2C163.5,266.91,164.15,265.76,164,265z"/>
	<path class="st0" d="M177.83,222.16c0,0.55,0,1.11,0,1.66c-0.16,0.03-0.32,0.05-0.48,0.08c-0.13-0.54-0.26-1.08-0.39-1.63
		C177.25,222.23,177.54,222.19,177.83,222.16z"/>
	<path class="st0" d="M176,265c1.5,0.09,0.85,1.24,1,2C175.5,266.91,176.15,265.76,176,265z"/>
	<path class="st0" d="M153.85,268.42c0.35-1.22,0.52-1.82,0.69-2.42c0.16,0.47,0.36,0.92,0.43,1.4
		C154.99,267.54,154.61,267.74,153.85,268.42z"/>
	<path class="st0" d="M177,267c0.33,0.41,0.67,0.83,1,1.24c-0.33,0.25-0.67,0.5-1,0.76C177,268.33,177,267.67,177,267z"/>
	<path class="st0" d="M155,273c0-0.61,0-1.22,0-1.83c0.22-0.02,0.44-0.05,0.66-0.07c0.11,0.63,0.23,1.27,0.34,1.9
		C155.67,273,155.33,273,155,273z"/>
	<ellipse class="st0" cx="175" cy="177.5" rx="1.41" ry="0.35"/>
	<path class="st0" d="M168,273c-0.61,0-1.22,0-1.83,0c-0.02-0.22-0.05-0.44-0.07-0.66c0.63-0.11,1.27-0.23,1.9-0.34
		C168,272.33,168,272.67,168,273z"/>
	<ellipse class="st0" cx="121.5" cy="178" rx="0.35" ry="1.41"/>
	<path class="st0" d="M125.83,225.18c0,0.55,0,1.11,0,1.66c-0.16,0.02-0.33,0.05-0.49,0.07c-0.12-0.56-0.25-1.12-0.37-1.69
		C125.26,225.21,125.54,225.2,125.83,225.18z"/>
	<path class="st0" d="M149.78,224.97c0.05,0.64,0.11,1.27,0.16,1.91c-0.22,0.03-0.43,0.06-0.65,0.09c-0.13-0.65-0.25-1.3-0.38-1.95
		C149.2,225,149.49,224.99,149.78,224.97z"/>
	<path class="st0" d="M135.09,164.9c0.27,0.23,0.54,0.46,0.82,0.7c-0.11,0.11-0.21,0.21-0.32,0.32c-0.23-0.27-0.46-0.54-0.7-0.82
		C134.96,165.03,135.03,164.96,135.09,164.9z"/>
	<ellipse class="st0" cx="160.5" cy="167.5" rx="0.24" ry="0.71"/>
	<ellipse class="st0" cx="107.5" cy="168.5" rx="0.24" ry="0.71"/>
	<path class="st0" d="M138.1,169.09c-0.23,0.27-0.46,0.54-0.7,0.82c-0.11-0.11-0.21-0.21-0.32-0.32c0.27-0.23,0.54-0.46,0.82-0.7
		C137.97,168.96,138.04,169.03,138.1,169.09z"/>
	<ellipse class="st0" cx="105.5" cy="170.5" rx="0.71" ry="0.24"/>
	<path class="st0" d="M150.91,171.1c-0.27-0.23-0.54-0.46-0.82-0.7c0.11-0.11,0.21-0.21,0.32-0.32c0.23,0.27,0.46,0.54,0.7,0.82
		C151.04,170.97,150.97,171.04,150.91,171.1z"/>
	<ellipse class="st0" cx="137.5" cy="172.5" rx="0.71" ry="0.24"/>
	<path class="st0" d="M139.91,174.1c-0.27-0.23-0.54-0.46-0.82-0.7c0.11-0.11,0.21-0.21,0.32-0.32c0.23,0.27,0.46,0.54,0.7,0.82
		C140.04,173.97,139.97,174.04,139.91,174.1z"/>
	<ellipse class="st0" cx="169.5" cy="225.5" rx="0.71" ry="0.24"/>
	<ellipse class="st0" cx="174.5" cy="226.5" rx="0.24" ry="0.71"/>
	<ellipse class="st0" cx="152.5" cy="227.5" rx="0.24" ry="0.71"/>
	<path class="st0" d="M164.91,228.1c-0.27-0.23-0.54-0.46-0.82-0.7c0.11-0.11,0.21-0.21,0.32-0.32c0.23,0.27,0.46,0.54,0.7,0.82
		C165.04,227.97,164.97,228.04,164.91,228.1z"/>
	<path class="st0" d="M184,227c0,0.33,0,0.67,0,1c-0.28-0.22-0.55-0.45-0.83-0.67C183.45,227.22,183.72,227.11,184,227z"/>
	<path class="st0" d="M131.91,218.1c-0.27-0.23-0.54-0.46-0.82-0.7c0.11-0.11,0.21-0.21,0.32-0.32c0.23,0.27,0.46,0.54,0.7,0.82
		C132.04,217.97,131.97,218.04,131.91,218.1z"/>
	<ellipse class="st0" cx="124.5" cy="228.5" rx="0.71" ry="0.24"/>
	<path class="st0" d="M180.9,216.91c0.23-0.27,0.46-0.54,0.7-0.82c0.11,0.11,0.21,0.21,0.32,0.32c-0.27,0.23-0.54,0.46-0.82,0.7
		C181.03,217.04,180.96,216.97,180.9,216.91z"/>
	<ellipse class="st0" cx="140.5" cy="230.5" rx="0.24" ry="0.71"/>
	<ellipse class="st0" cx="152.5" cy="230.5" rx="0.71" ry="0.24"/>
	<path class="st0" d="M184,230c0,0.33,0,0.67,0,1c-0.28-0.22-0.55-0.45-0.83-0.67C183.45,230.22,183.72,230.11,184,230z"/>
	<path class="st0" d="M178.09,215.9c0.27,0.23,0.54,0.46,0.82,0.7c-0.11,0.11-0.21,0.21-0.32,0.32c-0.23-0.27-0.46-0.54-0.7-0.82
		C177.96,216.03,178.03,215.96,178.09,215.9z"/>
	<path class="st0" d="M146.9,216.91c0.23-0.27,0.46-0.54,0.7-0.82c0.11,0.11,0.21,0.21,0.32,0.32c-0.27,0.23-0.54,0.46-0.82,0.7
		C147.03,217.04,146.96,216.97,146.9,216.91z"/>
	<ellipse class="st0" cx="142.5" cy="232.5" rx="0.71" ry="0.24"/>
	<path class="st0" d="M156.91,233.1c-0.27-0.23-0.54-0.46-0.82-0.7c0.11-0.11,0.21-0.21,0.32-0.32c0.23,0.27,0.46,0.54,0.7,0.82
		C157.04,232.97,156.97,233.04,156.91,233.1z"/>
	<ellipse class="st0" cx="114.5" cy="195.5" rx="0.71" ry="0.24"/>
	<path class="st0" d="M113,233c0.28,0.22,0.55,0.45,0.83,0.67c-0.28,0.11-0.55,0.22-0.83,0.33C113,233.67,113,233.33,113,233z"/>
	<ellipse class="st0" cx="152.5" cy="233.5" rx="0.71" ry="0.24"/>
	<path class="st0" d="M158,234c-0.33-0.33-0.67-0.67-1-1C157.33,233.33,157.67,233.67,158,234z"/>
	<ellipse class="st0" cx="171.5" cy="233.5" rx="0.71" ry="0.24"/>
	<path class="st0" d="M177.91,216.1c-0.27-0.23-0.54-0.46-0.82-0.7c0.11-0.11,0.21-0.21,0.32-0.32c0.23,0.27,0.46,0.54,0.7,0.82
		C178.04,215.97,177.97,216.04,177.91,216.1z"/>
	<ellipse class="st0" cx="139.5" cy="234.5" rx="0.24" ry="0.71"/>
	<path class="st0" d="M158.09,233.9c0.27,0.23,0.54,0.46,0.82,0.7c-0.11,0.11-0.21,0.21-0.32,0.32c-0.23-0.27-0.46-0.54-0.7-0.82
		C157.96,234.03,158.03,233.96,158.09,233.9z"/>
	<path class="st0" d="M128.9,235.91c0.23-0.27,0.46-0.54,0.7-0.82c0.11,0.11,0.21,0.21,0.32,0.32c-0.27,0.23-0.54,0.46-0.82,0.7
		C129.03,236.04,128.96,235.97,128.9,235.91z"/>
	<path class="st0" d="M143.9,235.91c0.23-0.27,0.46-0.54,0.7-0.82c0.11,0.11,0.21,0.21,0.32,0.32c-0.27,0.23-0.54,0.46-0.82,0.7
		C144.03,236.04,143.96,235.97,143.9,235.91z"/>
	<ellipse class="st0" cx="156.5" cy="235.5" rx="0.71" ry="0.24"/>
	<ellipse class="st0" cx="116.5" cy="219.5" rx="0.24" ry="0.71"/>
	<path class="st0" d="M180,218c0.33-0.33,0.67-0.67,1-1C180.67,217.33,180.33,217.67,180,218z"/>
	<path class="st0" d="M152.91,238.1c-0.27-0.23-0.54-0.46-0.82-0.7c0.11-0.11,0.21-0.21,0.32-0.32c0.23,0.27,0.46,0.54,0.7,0.82
		C153.04,237.97,152.97,238.04,152.91,238.1z"/>
	<path class="st0" d="M158.91,238.1c-0.27-0.23-0.54-0.46-0.82-0.7c0.11-0.11,0.21-0.21,0.32-0.32c0.23,0.27,0.46,0.54,0.7,0.82
		C159.04,237.97,158.97,238.04,158.91,238.1z"/>
	<ellipse class="st0" cx="128.5" cy="212.5" rx="0.24" ry="0.71"/>
	<path class="st0" d="M159.09,237.9c0.27,0.23,0.54,0.46,0.82,0.7c-0.11,0.11-0.21,0.21-0.32,0.32c-0.23-0.27-0.46-0.54-0.7-0.82
		C158.96,238.03,159.03,237.96,159.09,237.9z"/>
	<ellipse class="st0" cx="179.5" cy="238.5" rx="0.24" ry="0.71"/>
	<ellipse class="st0" cx="156.5" cy="239.5" rx="0.24" ry="0.71"/>
	<path class="st0" d="M140.91,241.1c-0.27-0.23-0.54-0.46-0.82-0.7c0.11-0.11,0.21-0.21,0.32-0.32c0.23,0.27,0.46,0.54,0.7,0.82
		C141.04,240.97,140.97,241.04,140.91,241.1z"/>
	<path class="st0" d="M170.09,149.9c0.27,0.23,0.54,0.46,0.82,0.7c-0.11,0.11-0.21,0.21-0.32,0.32c-0.23-0.27-0.46-0.54-0.7-0.82
		C169.96,150.03,170.03,149.96,170.09,149.9z"/>
	<path class="st0" d="M171,241c-0.33-0.33-0.67-0.67-1-1C170.33,240.33,170.67,240.67,171,241z"/>
	<path class="st0" d="M147,219c0.33,0.33,0.67,0.67,1,1C147.67,219.67,147.33,219.33,147,219z"/>
	<ellipse class="st0" cx="109.5" cy="220.5" rx="0.24" ry="0.71"/>
	<ellipse class="st0" cx="176.5" cy="211.5" rx="0.24" ry="0.71"/>
	<path class="st0" d="M158,242c-0.28-0.22-0.55-0.45-0.83-0.67c0.28-0.11,0.55-0.22,0.83-0.33C158,241.33,158,241.67,158,242z"/>
	<ellipse class="st0" cx="171.5" cy="211.5" rx="0.71" ry="0.24"/>
	<path class="st0" d="M171,242c0-0.33,0-0.67,0-1c0.28,0.11,0.55,0.22,0.83,0.33C171.55,241.55,171.28,241.78,171,242z"/>
	<ellipse class="st0" cx="140.5" cy="211.5" rx="0.24" ry="0.71"/>
	<ellipse class="st0" cx="123.5" cy="242.5" rx="0.24" ry="0.71"/>
	<path class="st0" d="M171.1,205.09c-0.23,0.27-0.46,0.54-0.7,0.82c-0.11-0.11-0.21-0.21-0.32-0.32c0.27-0.23,0.54-0.46,0.82-0.7
		C170.97,204.96,171.04,205.03,171.1,205.09z"/>
	<path class="st0" d="M155.9,245.91c0.23-0.27,0.46-0.54,0.7-0.82c0.11,0.11,0.21,0.21,0.32,0.32c-0.27,0.23-0.54,0.46-0.82,0.7
		C156.03,246.04,155.96,245.97,155.9,245.91z"/>
	<ellipse class="st0" cx="160.5" cy="245.5" rx="0.24" ry="0.71"/>
	<ellipse class="st0" cx="136.5" cy="74.5" rx="0.71" ry="0.24"/>
	<path class="st0" d="M156.1,246.09c-0.23,0.27-0.46,0.54-0.7,0.82c-0.11-0.11-0.21-0.21-0.32-0.32c0.27-0.23,0.54-0.46,0.82-0.7
		C155.97,245.96,156.04,246.03,156.1,246.09z"/>
	<path class="st0" d="M155.91,206.1c-0.27-0.23-0.54-0.46-0.82-0.7c0.11-0.11,0.21-0.21,0.32-0.32c0.23,0.27,0.46,0.54,0.7,0.82
		C156.04,205.97,155.97,206.04,155.91,206.1z"/>
	<ellipse class="st0" cx="144.5" cy="248.5" rx="0.24" ry="0.71"/>
	<path class="st0" d="M146.9,248.91c0.23-0.27,0.46-0.54,0.7-0.82c0.11,0.11,0.21,0.21,0.32,0.32c-0.27,0.23-0.54,0.46-0.82,0.7
		C147.03,249.04,146.96,248.97,146.9,248.91z"/>
	<ellipse class="st0" cx="148.5" cy="121.5" rx="0.24" ry="0.71"/>
	<path class="st0" d="M145.1,125.09c-0.23,0.27-0.46,0.54-0.7,0.82c-0.11-0.11-0.21-0.21-0.32-0.32c0.27-0.23,0.54-0.46,0.82-0.7
		C144.97,124.96,145.04,125.03,145.1,125.09z"/>
	<path class="st0" d="M139.9,205.91c0.23-0.27,0.46-0.54,0.7-0.82c0.11,0.11,0.21,0.21,0.32,0.32c-0.27,0.23-0.54,0.46-0.82,0.7
		C140.03,206.04,139.96,205.97,139.9,205.91z"/>
	<path class="st0" d="M143.91,251.1c-0.27-0.23-0.54-0.46-0.82-0.7c0.11-0.11,0.21-0.21,0.32-0.32c0.23,0.27,0.46,0.54,0.7,0.82
		C144.04,250.97,143.97,251.04,143.91,251.1z"/>
	<ellipse class="st0" cx="148.5" cy="250.5" rx="0.24" ry="0.71"/>
	<ellipse class="st0" cx="158.5" cy="250.5" rx="0.24" ry="0.71"/>
	<path class="st0" d="M170.9,204.91c0.23-0.27,0.46-0.54,0.7-0.82c0.11,0.11,0.21,0.21,0.32,0.32c-0.27,0.23-0.54,0.46-0.82,0.7
		C171.03,205.04,170.96,204.97,170.9,204.91z"/>
	<path class="st0" d="M174,218c-0.28-0.22-0.55-0.45-0.83-0.67c0.28-0.11,0.55-0.22,0.83-0.33C174,217.33,174,217.67,174,218z"/>
	<path class="st0" d="M159.9,251.91c0.23-0.27,0.46-0.54,0.7-0.82c0.11,0.11,0.21,0.21,0.32,0.32c-0.27,0.23-0.54,0.46-0.82,0.7
		C160.03,252.04,159.96,251.97,159.9,251.91z"/>
	<ellipse class="st0" cx="139.5" cy="129.5" rx="0.24" ry="0.71"/>
	<ellipse class="st0" cx="144.5" cy="130.5" rx="0.24" ry="0.71"/>
	<path class="st0" d="M147,254c-0.33-0.33-0.67-0.67-1-1C146.33,253.33,146.67,253.67,147,254z"/>
	<path class="st0" d="M176,254c0.22-0.28,0.45-0.55,0.67-0.83c0.11,0.28,0.22,0.55,0.33,0.83C176.67,254,176.33,254,176,254z"/>
	<ellipse class="st0" cx="108.5" cy="202.5" rx="0.71" ry="0.24"/>
	<ellipse class="st0" cx="139.5" cy="132.5" rx="0.71" ry="0.24"/>
	<ellipse class="st0" cx="120.5" cy="199.5" rx="0.71" ry="0.24"/>
	<ellipse class="st0" cx="143.5" cy="133.5" rx="0.71" ry="0.24"/>
	<path class="st0" d="M157.91,140.1c-0.27-0.23-0.54-0.46-0.82-0.7c0.11-0.11,0.21-0.21,0.32-0.32c0.23,0.27,0.46,0.54,0.7,0.82
		C158.04,139.97,157.97,140.04,157.91,140.1z"/>
	<ellipse class="st0" cx="154.5" cy="142.5" rx="0.24" ry="0.71"/>
	<path class="st0" d="M139.9,256.91c0.23-0.27,0.46-0.54,0.7-0.82c0.11,0.11,0.21,0.21,0.32,0.32c-0.27,0.23-0.54,0.46-0.82,0.7
		C140.03,257.04,139.96,256.97,139.9,256.91z"/>
	<path class="st0" d="M148,257c0-0.33,0-0.67,0-1c0.28,0.22,0.55,0.45,0.83,0.67C148.55,256.78,148.28,256.89,148,257z"/>
	<path class="st0" d="M187.91,199.1c-0.27-0.23-0.54-0.46-0.82-0.7c0.11-0.11,0.21-0.21,0.32-0.32c0.23,0.27,0.46,0.54,0.7,0.82
		C188.04,198.97,187.97,199.04,187.91,199.1z"/>
	<ellipse class="st0" cx="155.5" cy="197.5" rx="0.24" ry="0.71"/>
	<ellipse class="st0" cx="142.5" cy="197.5" rx="0.71" ry="0.24"/>
	<ellipse class="st0" cx="163.5" cy="143.5" rx="0.71" ry="0.24"/>
	<path class="st0" d="M148,257c0,0.33,0,0.67,0,1c-0.28-0.22-0.55-0.45-0.83-0.67C147.45,257.22,147.72,257.11,148,257z"/>
	<ellipse class="st0" cx="118.5" cy="197.5" rx="0.71" ry="0.24"/>
	<path class="st0" d="M173.1,258.09c-0.23,0.27-0.46,0.54-0.7,0.82c-0.11-0.11-0.21-0.21-0.32-0.32c0.27-0.23,0.54-0.46,0.82-0.7
		C172.97,257.96,173.04,258.03,173.1,258.09z"/>
	<path class="st0" d="M166.9,143.91c0.23-0.27,0.46-0.54,0.7-0.82c0.11,0.11,0.21,0.21,0.32,0.32c-0.27,0.23-0.54,0.46-0.82,0.7
		C167.03,144.04,166.96,143.97,166.9,143.91z"/>
	<path class="st0" d="M156.1,147.09c-0.23,0.27-0.46,0.54-0.7,0.82c-0.11-0.11-0.21-0.21-0.32-0.32c0.27-0.23,0.54-0.46,0.82-0.7
		C155.97,146.96,156.04,147.03,156.1,147.09z"/>
	<path class="st0" d="M164.09,258.9c0.27,0.23,0.54,0.46,0.82,0.7c-0.11,0.11-0.21,0.21-0.32,0.32c-0.23-0.27-0.46-0.54-0.7-0.82
		C163.96,259.03,164.03,258.96,164.09,258.9z"/>
	<ellipse class="st0" cx="117.5" cy="148.5" rx="0.24" ry="0.71"/>
	<path class="st0" d="M181.9,192.91c0.23-0.27,0.46-0.54,0.7-0.82c0.11,0.11,0.21,0.21,0.32,0.32c-0.27,0.23-0.54,0.46-0.82,0.7
		C182.03,193.04,181.96,192.97,181.9,192.91z"/>
	<ellipse class="st0" cx="100.5" cy="188.5" rx="0.71" ry="0.24"/>
	<ellipse class="st0" cx="139.5" cy="148.5" rx="0.24" ry="0.71"/>
	<path class="st0" d="M152,263c-0.33-0.33-0.67-0.67-1-1C151.33,262.33,151.67,262.67,152,263z"/>
	<path class="st0" d="M155.09,261.9c0.27,0.23,0.54,0.46,0.82,0.7c-0.11,0.11-0.21,0.21-0.32,0.32c-0.23-0.27-0.46-0.54-0.7-0.82
		C154.96,262.03,155.03,261.96,155.09,261.9z"/>
	<ellipse class="st0" cx="166.5" cy="149.5" rx="0.24" ry="0.71"/>
	<path class="st0" d="M142.09,263.9c0.27,0.23,0.54,0.46,0.82,0.7c-0.11,0.11-0.21,0.21-0.32,0.32c-0.23-0.27-0.46-0.54-0.7-0.82
		C141.96,264.03,142.03,263.96,142.09,263.9z"/>
	<ellipse class="st0" cx="161.5" cy="264.5" rx="0.24" ry="0.71"/>
	<path class="st0" d="M133.09,185.9c0.27,0.23,0.54,0.46,0.82,0.7c-0.11,0.11-0.21,0.21-0.32,0.32c-0.23-0.27-0.46-0.54-0.7-0.82
		C132.96,186.03,133.03,185.96,133.09,185.9z"/>
	<path class="st0" d="M175.91,265.1c-0.27-0.23-0.54-0.46-0.82-0.7c0.11-0.11,0.21-0.21,0.32-0.32c0.23,0.27,0.46,0.54,0.7,0.82
		C176.04,264.97,175.97,265.04,175.91,265.1z"/>
	<path class="st0" d="M156,266c-0.33,0-0.67,0-1,0c0.22-0.28,0.45-0.55,0.67-0.83C155.78,265.45,155.89,265.72,156,266z"/>
	<path class="st0" d="M169.91,150.1c-0.27-0.23-0.54-0.46-0.82-0.7c0.11-0.11,0.21-0.21,0.32-0.32c0.23,0.27,0.46,0.54,0.7,0.82
		C170.04,149.97,169.97,150.04,169.91,150.1z"/>
	<ellipse class="st0" cx="174.5" cy="149.5" rx="0.24" ry="0.71"/>
	<ellipse class="st0" cx="164.5" cy="153.5" rx="0.24" ry="0.71"/>
	<path class="st0" d="M132.91,186.1c-0.27-0.23-0.54-0.46-0.82-0.7c0.11-0.11,0.21-0.21,0.32-0.32c0.23,0.27,0.46,0.54,0.7,0.82
		C133.04,185.97,132.97,186.04,132.91,186.1z"/>
	<path class="st0" d="M107.9,154.91c0.23-0.27,0.46-0.54,0.7-0.82c0.11,0.11,0.21,0.21,0.32,0.32c-0.27,0.23-0.54,0.46-0.82,0.7
		C108.03,155.04,107.96,154.97,107.9,154.91z"/>
	<path class="st0" d="M128.1,266.09c-0.23,0.27-0.46,0.54-0.7,0.82c-0.11-0.11-0.21-0.21-0.32-0.32c0.27-0.23,0.54-0.46,0.82-0.7
		C127.97,265.96,128.04,266.03,128.1,266.09z"/>
	<ellipse class="st0" cx="138.5" cy="154.5" rx="0.71" ry="0.24"/>
	<path class="st0" d="M158,241c0.22-0.28,0.45-0.55,0.67-0.83c0.11,0.28,0.22,0.55,0.33,0.83C158.67,241,158.33,241,158,241z"/>
	<path class="st0" d="M107,156c0.33-0.33,0.67-0.67,1-1C107.67,155.33,107.33,155.67,107,156z"/>
	<ellipse class="st0" cx="120.5" cy="183.5" rx="0.71" ry="0.24"/>
	<ellipse class="st0" cx="123.5" cy="180.5" rx="0.71" ry="0.24"/>
	<ellipse class="st0" cx="112.5" cy="178.5" rx="0.71" ry="0.24"/>
	<path class="st0" d="M177,269c0,0.33,0,0.67,0,1c-0.28-0.22-0.55-0.45-0.83-0.67C176.45,269.22,176.72,269.11,177,269z"/>
	<path class="st0" d="M132.09,217.9c0.27,0.23,0.54,0.46,0.82,0.7c-0.11,0.11-0.21,0.21-0.32,0.32c-0.23-0.27-0.46-0.54-0.7-0.82
		C131.96,218.03,132.03,217.96,132.09,217.9z"/>
	<ellipse class="st0" cx="139.5" cy="224.5" rx="0.24" ry="0.71"/>
	<ellipse class="st0" cx="175.5" cy="155.5" rx="0.24" ry="0.71"/>
	<path class="st0" d="M148.91,225.1c-0.27-0.23-0.54-0.46-0.82-0.7c0.11-0.11,0.21-0.21,0.32-0.32c0.23,0.27,0.46,0.54,0.7,0.82
		C149.04,224.97,148.97,225.04,148.91,225.1z"/>
	<ellipse class="st0" cx="166.5" cy="157.5" rx="0.71" ry="0.24"/>
	<ellipse class="st0" cx="164.5" cy="272.5" rx="0.71" ry="0.24"/>
	<ellipse class="st0" cx="112.5" cy="158.5" rx="0.24" ry="0.71"/>
	<path class="st0" d="M116,273c0.28,0.22,0.55,0.45,0.83,0.67c-0.28,0.11-0.55,0.22-0.83,0.33C116,273.67,116,273.33,116,273z"/>
	<path class="st0" d="M171.9,177.91c0.23-0.27,0.46-0.54,0.7-0.82c0.11,0.11,0.21,0.21,0.32,0.32c-0.27,0.23-0.54,0.46-0.82,0.7
		C172.03,178.04,171.96,177.97,171.9,177.91z"/>
	<ellipse class="st0" cx="123.5" cy="225.5" rx="0.71" ry="0.24"/>
	<path class="st0" d="M156.09,272.9c0.27,0.23,0.54,0.46,0.82,0.7c-0.11,0.11-0.21,0.21-0.32,0.32c-0.23-0.27-0.46-0.54-0.7-0.82
		C155.96,273.03,156.03,272.96,156.09,272.9z"/>
	<ellipse class="st0" cx="128.5" cy="159.5" rx="0.24" ry="0.71"/>
	<ellipse class="st0" cx="118.5" cy="161.5" rx="0.24" ry="0.71"/>
	<path class="st0" d="M126.9,163.91c0.23-0.27,0.46-0.54,0.7-0.82c0.11,0.11,0.21,0.21,0.32,0.32c-0.27,0.23-0.54,0.46-0.82,0.7
		C127.03,164.04,126.96,163.97,126.9,163.91z"/>
	<path class="st0" d="M164.1,225.09c-0.23,0.27-0.46,0.54-0.7,0.82c-0.11-0.11-0.21-0.21-0.32-0.32c0.27-0.23,0.54-0.46,0.82-0.7
		C163.97,224.96,164.04,225.03,164.1,225.09z"/>
	<ellipse class="st0" cx="117.5" cy="176.5" rx="0.24" ry="0.71"/>
	<path class="st0" d="M127.1,164.09c-0.23,0.27-0.46,0.54-0.7,0.82c-0.11-0.11-0.21-0.21-0.32-0.32c0.27-0.23,0.54-0.46,0.82-0.7
		C126.97,163.96,127.04,164.03,127.1,164.09z"/>
	<path d="M136.16,257.17c0.55,0,1.1,0,1.66,0c0.03,0.16,0.05,0.32,0.08,0.48c-0.54,0.13-1.08,0.26-1.63,0.39
		C136.23,257.75,136.19,257.46,136.16,257.17z"/>
	<path d="M141.1,261.09c-0.23,0.27-0.46,0.54-0.7,0.82c-0.11-0.11-0.21-0.21-0.32-0.32c0.27-0.23,0.54-0.46,0.82-0.7
		C140.97,260.96,141.04,261.03,141.1,261.09z"/>
	<path d="M170,270c-0.67,0-1.33,0-2,0c-0.67-1-1.33-2-2-3c0.67-0.67,1.33-1.33,2-2c0.65,0.44,1.31,0.88,1.99,1.33
		C168.38,267.64,170.62,268.78,170,270z"/>
	<path d="M168,273c0-0.33,0-0.67,0-1c0.67-0.33,1.33-0.67,2-1c0,0.58,0,1.17,0,2C169.17,273,168.58,273,168,273z"/>
	<path d="M170,271c0-0.33,0-0.67,0-1c0.28,0.22,0.55,0.45,0.83,0.67C170.55,270.78,170.28,270.89,170,271z"/>
	<path d="M172,273c-0.33,0.33-0.67,0.67-1,1C171.33,273.67,171.67,273.33,172,273z"/>
	<path d="M116,273c0,0.33,0,0.67,0,1c-0.33,0-0.67,0-1,0C115.33,273.67,115.67,273.33,116,273z"/>
	<ellipse cx="158.5" cy="207.5" rx="0.71" ry="0.24"/>
	<path d="M171,242c0.28-0.22,0.55-0.45,0.83-0.67c-0.28-0.11-0.55-0.22-0.83-0.33c-0.33-0.33-0.67-0.67-1-1c0.21-2.24,0.76-2.79,3-3
		c-0.32,0.54-0.63,1.08-1.09,1.87c0.67,1.32,1.43,2.83,2.32,4.6c-0.58,0.51-1.17,1.01-1.78,1.54
		C171.93,243.94,171.47,242.97,171,242z"/>
	<path d="M176,254c0.33,0,0.67,0,1,0c-0.15,0.76,0.5,1.91-1,2C176,255.33,176,254.67,176,254z"/>
	<path d="M168.5,232.5c-0.71,0.46-1.42,0.92-2.35,1.52c-0.04-0.67-0.08-1.21-0.13-1.91c0.8-0.06,1.39-0.1,1.98-0.14
		C168.16,232.14,168.33,232.32,168.5,232.5z"/>
	<ellipse cx="123.5" cy="247" rx="0.35" ry="1.41"/>
	<path d="M121.97,249.22c0.64-0.05,1.27-0.11,1.91-0.16c0.03,0.22,0.06,0.43,0.09,0.65c-0.65,0.13-1.3,0.25-1.95,0.38
		C122,249.8,121.99,249.51,121.97,249.22z"/>
	<path d="M113.1,230.09c-0.23,0.27-0.46,0.54-0.7,0.82c-0.11-0.11-0.21-0.21-0.32-0.32c0.27-0.23,0.54-0.46,0.82-0.7
		C112.97,229.96,113.04,230.03,113.1,230.09z"/>
	<path d="M180,231c-0.33,0-0.67,0-1,0c0.22-0.28,0.45-0.55,0.67-0.83C179.78,230.45,179.89,230.72,180,231z"/>
	<path d="M134,250c0,0.67,0,1.33,0,2c-0.67-0.49-1.35-0.98-2.74-2C132.8,250,133.4,250,134,250z"/>
	<path d="M164.1,221.09c-0.23,0.27-0.46,0.54-0.7,0.82c-0.11-0.11-0.21-0.21-0.32-0.32c0.27-0.23,0.54-0.46,0.82-0.7
		C163.97,220.96,164.04,221.03,164.1,221.09z"/>
	<path d="M158,241c0.33,0,0.67,0,1,0c-0.33,0.33-0.67,0.67-1,1C158,241.67,158,241.33,158,241z"/>
</g>
<path class="st0" d="M80.4,285.04l10.8-36.6c0,0,40.8,50.88,125.28-1.41l4.32,38.01"/>
</svg>
