<?xml version="1.0" encoding="utf-8"?>
<!-- Generator: Adobe Illustrator 23.0.2, SVG Export Plug-In . SVG Version: 6.00 Build 0)  -->
<svg version="1.1" id="Layer_1" xmlns="http://www.w3.org/2000/svg" xmlns:xlink="http://www.w3.org/1999/xlink" x="0px" y="0px"
	 viewBox="0 0 300 300" style="enable-background:new 0 0 300 300;" xml:space="preserve">
<style type="text/css">
	.st0{fill:#FFFFFF;}
</style>
<g id="y-stup">
	<path d="M146.67,265c-2.8-2.25-5.66-2.42-9.2-0.57c-0.46,0.24-0.96,0.38-1.45,0.57c-1.71-3.95-5.12-0.75-8.25-2.28
		c-1.8,2.04-3.57,4.36-5.68,6.31c-0.9,0.83-2.52,0.88-3.82,1.29c1.69-2.15,3.38-4.31,5.07-6.46c-3.78-2.53-6.85,1.47-10.4,1.14
		c-1.15-0.92-2.3-1.83-4.23-3.37c8.27,0,15.79,0,22.89,0c0.55-0.84,0.83-1.07,0.84-1.31c0.61-10.38,0.48-20.86,2.07-31.09
		c0.93-6,0.49-12.1,1.77-17.84c1.27-5.73,0.28-11.65,1.82-16.94c1.69-5.8,0.25-11.59,1.68-17c1.43-5.42,1.32-10.73,1.64-16.13
		c0.18-3.02,1.1-6,1.69-9c-3.6-2.12-0.53-6.47-3.33-9.36c-1.81-1.87-1.34-5.8-2.33-8.66c-3.32-9.6-6.41-19.24-8.66-29.18
		c-1.32-5.81-3.97-11.33-6.15-17.33c-9.73,0-19.97,0-30.27,0c0.35,1.64,0.92,3.34,1.01,5.07c0.08,1.67-0.18,3.41-0.57,5.05
		c-0.44,1.85-1.21,3.62-1.95,5.78c-0.94-0.27-1.9-0.54-3.36-0.96c0.9-1.63,1.52-2.76,2.48-4.51c-1.43,0-2.53,0-3.62,0
		c0-2.96,0-5.91,0-8.87c1.12-0.2,2.25-0.4,3.37-0.6c-0.04-0.39-0.08-0.78-0.12-1.17c-1.08,0-2.17,0-3.25,0c0-1.18,0-2.37,0-3.55
		c8.23-2.16,15.99-5.58,23.86-8.74c2.53-1.02,5.2-1.7,8.39-2.72c-2.1-7.3-5.56-14.39-6.94-21.67c-1.4-7.31-6.3-13.97-5.02-24.1
		c9.72,15.61,16.7,30.33,25.2,44.65c13.58,0,27.72,0,42.95,0c1.59-2.36,3.92-5.17,5.54-8.34c5.39-10.53,11.16-20.84,17.33-30.93
		c0.3-0.49,0.82-0.84,1.62-1.65c0.87,2.68,0.64,4.84-0.16,7.37c-3.58,11.26-6.84,22.61-10.4,34.51c9.13,4.14,18.01,8.15,27.24,12.34
		c-0.22,0.97-0.44,1.98-0.88,3.92c0.25,2.34,0.6,5.76,0.98,9.38c-2.73,0-4.71,0-7.45,0c0.33-3.4,0.63-6.6,0.97-10.1
		c-7.61,0-16.08,0-25.37,0c-1.74,5.35-3.67,11.29-5.59,17.23c-2.96,9.12-5.67,18.34-8.38,27.52c-1.71,5.79-3.68,11.55-5.08,17.39
		c-1.03,4.29-0.14,9.06,0.04,13.61c0.04,1.05,1.05,2.12,0.94,3.11c-1.25,11.68,2.27,23.08,1.95,34.73
		c-0.12,4.46,1.31,8.95,1.59,13.45c0.3,4.71-1.08,9.84,0.35,14.08c1.95,5.78,1.65,11.45,1.31,17.08c-0.32,5.35,2.77,9.84,1.97,15.3
		c4.31,0,8.07,0,13.15,0c-3.31,2.25-5.58,3.78-7.85,5.32c0-0.88,0-1.75,0-3.26c-1.88-0.13-3.8-0.27-5.9-0.42
		c-3.58,3.06-6.6,6.89-11.03,9.11c1.21-3.51,4.09-5.56,6.61-8.61c-2.42,0-4.36,0-6.93,0c-1.49,0.9-2.51,4.11-5.82,3.19
		c0.52-0.92,1.04-1.83,1.77-3.13C153.63,262.96,150.03,262.52,146.67,265z M144.77,156c1.38,8.91-2.8,17.58-1.65,26.61
		c0.04,0.29,0.13,0.69-0.01,0.87c-2.81,3.57-1.96,7.79-1.62,11.67c0.37,4.18-1.59,7.76-1.87,11.68c-0.7,9.49-1.22,19-1.8,28.5
		c-0.04,0.59,0.25,1.42-0.04,1.74c-3.01,3.25-1.23,7.21-1.74,10.82c-0.56,3.89-1.2,7.78-1.73,11.67c-0.07,0.48,0.33,1.03,0.47,1.45
		c11.69,0,23.34,0,35.03,0c-0.36-6.42-0.23-12.31-1.5-18.37c-1.51-7.18-0.31-14.79-1.86-22.28c-1.49-7.22,0.99-15.01-2.01-22.25
		c1.32-11.37-2.21-22.49-1.81-33.82c0.14-3.92,0.7-8.06-2.77-10.99c-4.21,0-8.32,0-12.35,0C146.56,154.21,145.73,155.04,144.77,156z
		 M153.76,133.27c4.09-4.92,7.47-9.06,10.92-13.13c3.5-4.13,7.07-8.21,9.96-11.56c0-7.62,0-14.3,0-20.74c-6.53,0-12.64,0-19.14,0
		c4.27,5.84,0.26,10.64-0.75,15.98c-1.18-0.38-1.96-0.63-2.67-0.86c0.74-1.32,1.4-2.48,2.1-3.73c-1.62-0.76-2.83-1.34-4.45-2.1
		c0.74-1.29,1.39-2.42,1.83-3.18c-0.59-1.42-1.08-2.61-1.58-3.82c1.05-0.39,1.57-0.56,2.06-0.79c0.54-0.25,1.04-0.57,2.55-1.4
		c-8.15,0-15.06,0-21.91,0c0,6.48,0,12.59,0,18.28C139.69,115.21,146.41,123.84,153.76,133.27z M174.9,75.44
		c-14.57,0-28.35,0-42.48,0c0.14,3.08,0.26,5.85,0.37,8.3c14.41,0,28.19,0,42.12,0C174.9,80.87,174.9,78.31,174.9,75.44z
		 M152.35,135.4c-5.96-7.28-11.62-14.2-17.56-21.45c0.95,8.53,7.79,29.4,10.65,32.4C147.78,142.64,150.08,138.99,152.35,135.4z
		 M170.75,117.87c-4.36,4.86-8.78,9.66-13.02,14.63c-0.95,1.12-1.23,2.81-1.68,3.89c1.95,3.93,3.8,7.64,6.2,12.47
		C166.66,138.29,168.27,128.18,170.75,117.87z M119.26,74.78c-7.18,2.88-13.75,5.51-22.11,8.85c9.57,0,17.07,0,24.78,0
		C121.03,80.63,120.24,78.04,119.26,74.78z M178.88,70.99c7.18,0.58,6.94,0.51,8.68-6.22c1.15-4.46,3.22-8.68,4.68-13.08
		c0.49-1.47,0.37-3.13,0.68-6.3C187.68,54.94,183.28,62.97,178.88,70.99z M128.58,71.39c-4.4-7.82-8.61-15.3-12.82-22.78
		c0.23,8.22,3.26,15.44,6.06,22.78C124.27,71.39,126.25,71.39,128.58,71.39z M153.01,138.77c-2.4,4.09-4.59,7.82-7.26,12.37
		c5.13,0.34,9.25,0.61,13.54-0.17C159.13,145.45,155.03,142.8,153.01,138.77z M185.03,84.02c7.07,0,13.19,0.01,19.3-0.05
		c0.2,0,0.39-0.76,0.53-1.05c-5.7-2.44-11.35-4.86-17.14-7.35C186.91,78.12,186.1,80.67,185.03,84.02z M177.11,75.29
		c0,3.32,0,5.88,0,8.56c1.65,0,3.03,0,4.38,0c0.83-2.83,3.94-5.07,1.74-8.56C181.35,75.29,179.39,75.29,177.11,75.29z M128.64,84.03
		c0-3.08,0-5.82,0-8.47c-2.47,0-4.61,0-7.42,0C124.95,77.84,122.05,83.95,128.64,84.03z M181.02,87.15
		c-2.35,0.46-3.15,0.61-3.78,0.73c0,3.63,0,6.96,0,10.3c0.26,0.02,0.51,0.03,0.77,0.05C178.91,94.94,179.8,91.64,181.02,87.15z
		 M127.46,94.4c0.51-0.04,1.01-0.08,1.52-0.13c-0.14-2.14-0.28-4.28-0.42-6.42c-0.37,0.02-0.73,0.04-1.1,0.07
		C127.46,90.08,127.46,92.24,127.46,94.4z M114.14,44.99c-0.2,0-0.39,0-0.59,0c0,0.59,0,1.18,0,1.77c0.2,0,0.39,0,0.59,0
		C114.14,46.17,114.14,45.58,114.14,44.99z"/>
	<path class="st0" d="M86.34,87.57c1.08,0,2.17,0,3.25,0c0.04,0.39,0.08,0.78,0.12,1.17c-1.12,0.2-2.25,0.4-3.37,0.6
		C86.34,88.75,86.34,88.16,86.34,87.57z"/>
	<path d="M211.6,99.72c0.98,0.8,1.95,1.6,3.79,3.09c-2.21,0.42-3.2,0.6-4.43,0.83c-0.22-1.16-0.37-1.96-0.53-2.75
		C210.82,100.51,211.21,100.11,211.6,99.72z"/>
	<path d="M175.94,271.2c-1.26,0.81-2.51,1.63-4.18,2.7c-0.08-1.18-0.14-2.14-0.23-3.39c1.42-0.1,2.46-0.18,3.5-0.26
		C175.34,270.58,175.64,270.89,175.94,271.2z"/>
	<path d="M131.58,271.2c-1.26,0.81-2.51,1.63-4.18,2.7c-0.08-1.19-0.14-2.14-0.23-3.38c1.42-0.1,2.46-0.18,3.5-0.26
		C130.98,270.58,131.28,270.89,131.58,271.2z"/>
	<path d="M150.4,272.26c-0.41,0.48-0.82,0.97-1.24,1.45c-0.19-0.19-0.37-0.37-0.56-0.56c0.48-0.41,0.97-0.82,1.45-1.24
		C150.17,272.03,150.29,272.14,150.4,272.26z"/>
	<path d="M139.76,272.26c-0.41,0.48-0.82,0.97-1.24,1.45c-0.19-0.19-0.37-0.37-0.56-0.56c0.48-0.41,0.97-0.82,1.45-1.24
		C139.52,272.03,139.64,272.14,139.76,272.26z"/>
	<path d="M111.18,266.77c0.59-0.59,1.18-1.18,1.77-1.77C112.36,265.59,111.77,266.18,111.18,266.77z"/>
	<path d="M134.25,266.77c0.59-0.59,1.18-1.18,1.77-1.77C135.43,265.59,134.84,266.18,134.25,266.77z"/>
	<path d="M144.89,266.77c0.59-0.59,1.18-1.18,1.77-1.77C146.08,265.59,145.48,266.18,144.89,266.77z"/>
	<path d="M151.99,270.32c-0.59,0.59-1.18,1.18-1.77,1.77C150.81,271.5,151.4,270.91,151.99,270.32z"/>
	<path d="M139.57,272.1c0.59-0.59,1.18-1.18,1.77-1.77C140.75,270.91,140.16,271.5,139.57,272.1z"/>
	<path d="M118.46,270.48c-0.41,0.48-0.82,0.97-1.24,1.45c-0.19-0.19-0.37-0.37-0.56-0.56c0.48-0.41,0.97-0.82,1.45-1.24
		C118.23,270.25,118.35,270.37,118.46,270.48z"/>
	<path d="M107.82,270.48c-0.41,0.48-0.82,0.97-1.24,1.45c-0.19-0.19-0.37-0.37-0.56-0.56c0.48-0.41,0.97-0.82,1.45-1.24
		C107.59,270.25,107.7,270.37,107.82,270.48z"/>
	<path d="M175.06,270.32c0.59-0.59,1.18-1.18,1.77-1.77C176.24,269.14,175.65,269.73,175.06,270.32z"/>
	<path d="M153.76,268.55c-0.59,0.59-1.18,1.18-1.77,1.77C152.58,269.73,153.17,269.14,153.76,268.55z"/>
	<path d="M130.7,270.32c0.59-0.59,1.18-1.18,1.77-1.77C131.88,269.14,131.29,269.73,130.7,270.32z"/>
	<path d="M109.41,268.55c-0.59,0.59-1.18,1.18-1.77,1.77C108.22,269.73,108.82,269.14,109.41,268.55z"/>
	<path d="M143.12,268.55c-0.59,0.59-1.18,1.18-1.77,1.77C141.94,269.73,142.53,269.14,143.12,268.55z"/>
	<path d="M176.83,268.55c0.59-0.59,1.18-1.18,1.77-1.77C178.01,267.36,177.42,267.96,176.83,268.55z"/>
	<path d="M155.54,266.77c-0.59,0.59-1.18,1.18-1.77,1.77C154.36,267.96,154.95,267.36,155.54,266.77z"/>
	<path d="M144.89,266.77c-0.59,0.59-1.18,1.18-1.77,1.77C143.71,267.96,144.3,267.36,144.89,266.77z"/>
	<path d="M132.47,268.55c0.59-0.59,1.18-1.18,1.77-1.77C133.66,267.36,133.06,267.96,132.47,268.55z"/>
	<path d="M109.41,268.55c0.59-0.59,1.18-1.18,1.77-1.77C110.59,267.36,110,267.96,109.41,268.55z"/>
	<path class="st0" d="M144.77,156c0.96-0.96,1.8-1.8,2.71-2.71c4.04,0,8.15,0,12.35,0c3.48,2.93,2.91,7.07,2.77,10.99
		c-0.4,11.33,3.13,22.45,1.81,33.82c3,7.24,0.52,15.03,2.01,22.25c1.55,7.49,0.35,15.1,1.86,22.28c1.27,6.06,1.15,11.95,1.5,18.37
		c-11.69,0-23.34,0-35.03,0c-0.15-0.42-0.54-0.96-0.47-1.45c0.53-3.9,1.18-7.78,1.73-11.67c0.51-3.61-1.27-7.57,1.74-10.82
		c0.29-0.32,0.01-1.15,0.04-1.74c0.58-9.5,1.11-19.01,1.8-28.5c0.29-3.92,2.24-7.51,1.87-11.68c-0.34-3.88-1.19-8.1,1.62-11.67
		c0.14-0.18,0.05-0.58,0.01-0.87C141.97,173.58,146.15,164.91,144.77,156z"/>
	<path class="st0" d="M153.76,133.27c-7.35-9.44-14.07-18.07-21.07-27.06c0-5.7,0-11.81,0-18.28c6.85,0,13.76,0,21.91,0
		c-1.51,0.84-2.01,1.15-2.55,1.4c-0.49,0.23-1.02,0.39-2.06,0.79c0.5,1.21,0.99,2.39,1.58,3.82c-0.44,0.76-1.08,1.88-1.83,3.18
		c1.62,0.77,2.83,1.34,4.45,2.1c-0.7,1.25-1.36,2.41-2.1,3.73c0.71,0.23,1.48,0.48,2.67,0.86c1.01-5.34,5.02-10.14,0.75-15.98
		c6.5,0,12.61,0,19.14,0c0,6.44,0,13.12,0,20.74c-2.89,3.35-6.46,7.43-9.96,11.56C161.23,124.22,157.85,128.35,153.76,133.27z"/>
	<path class="st0" d="M174.9,75.44c0,2.87,0,5.44,0,8.3c-13.93,0-27.71,0-42.12,0c-0.11-2.44-0.23-5.21-0.37-8.3
		C146.56,75.44,160.34,75.44,174.9,75.44z"/>
	<path class="st0" d="M152.35,135.4c-2.27,3.59-4.57,7.24-6.91,10.95c-2.86-3-9.7-23.87-10.65-32.4
		C140.73,121.21,146.39,128.13,152.35,135.4z"/>
	<path class="st0" d="M170.75,117.87c-2.48,10.31-4.08,20.43-8.5,30.99c-2.4-4.83-4.25-8.54-6.2-12.47
		c0.45-1.08,0.73-2.77,1.68-3.89C161.96,127.53,166.39,122.73,170.75,117.87z"/>
	<path class="st0" d="M119.26,74.78c0.99,3.26,1.77,5.85,2.68,8.85c-7.71,0-15.21,0-24.78,0C105.5,80.29,112.07,77.66,119.26,74.78z
		"/>
	<path class="st0" d="M178.88,70.99c4.4-8.02,8.8-16.04,14.04-25.6c-0.32,3.17-0.19,4.84-0.68,6.3c-1.46,4.39-3.52,8.62-4.68,13.08
		C185.82,71.5,186.06,71.56,178.88,70.99z"/>
	<path class="st0" d="M128.58,71.39c-2.33,0-4.31,0-6.76,0c-2.8-7.34-5.84-14.56-6.06-22.78C119.97,56.09,124.18,63.58,128.58,71.39
		z"/>
	<path class="st0" d="M153.01,138.77c2.03,4.02,6.12,6.67,6.27,12.2c-4.29,0.78-8.41,0.51-13.54,0.17
		C148.41,146.6,150.61,142.86,153.01,138.77z"/>
	<path class="st0" d="M185.03,84.02c1.07-3.35,1.88-5.9,2.69-8.45c5.79,2.48,11.44,4.9,17.14,7.35c-0.14,0.29-0.33,1.05-0.53,1.05
		C198.22,84.03,192.1,84.02,185.03,84.02z"/>
	<path class="st0" d="M177.11,75.29c2.28,0,4.24,0,6.12,0c2.2,3.49-0.91,5.74-1.74,8.56c-1.35,0-2.73,0-4.38,0
		C177.11,81.17,177.11,78.62,177.11,75.29z"/>
	<path class="st0" d="M128.64,84.03c-6.59-0.09-3.69-6.2-7.42-8.47c2.81,0,4.95,0,7.42,0C128.64,78.21,128.64,80.95,128.64,84.03z"
		/>
	<path class="st0" d="M181.02,87.15c-1.22,4.49-2.11,7.78-3.01,11.08c-0.26-0.02-0.51-0.03-0.77-0.05c0-3.33,0-6.67,0-10.3
		C177.87,87.76,178.67,87.61,181.02,87.15z"/>
	<path class="st0" d="M127.46,94.4c0-2.16,0-4.32,0-6.48c0.37-0.02,0.73-0.04,1.1-0.07c0.14,2.14,0.28,4.28,0.42,6.42
		C128.47,94.31,127.96,94.35,127.46,94.4z"/>
	<ellipse class="st0" cx="113.84" cy="45.87" rx="0.42" ry="1.25"/>
</g>
</svg>
